LondrinaShadow-Regular_ik.ufo
<glyph name="ampersand" format="1">
  <advance width="565"/>
  <unicode hex="0026"/>
  <outline>
    <contour>
      <point x="227" y="514" type="curve" name="hr01"/>
      <point x="223" y="529"/>
      <point x="221" y="545"/>
      <point x="221" y="557" type="curve" smooth="yes"/>
      <point x="221" y="574"/>
      <point x="229" y="584"/>
      <point x="244" y="587" type="curve"/>
      <point x="243" y="554"/>
      <point x="239" y="525"/>
    </contour>
    <contour>
      <point x="255" y="151" type="curve" smooth="yes"/>
      <point x="248" y="150"/>
      <point x="242" y="149"/>
      <point x="235" y="149" type="curve" smooth="yes"/>
      <point x="198" y="149"/>
      <point x="199" y="172"/>
      <point x="199" y="192" type="curve" smooth="yes" name="hr02"/>
      <point x="199" y="235"/>
      <point x="215" y="258"/>
      <point x="242" y="258" type="curve" smooth="yes"/>
      <point x="282" y="258"/>
      <point x="282" y="232"/>
      <point x="282" y="209" type="curve" smooth="yes"/>
      <point x="282" y="204"/>
      <point x="277" y="159"/>
      <point x="277" y="154" type="curve"/>
      <point x="276" y="154" type="line"/>
      <point x="271" y="154"/>
      <point x="259" y="151"/>
    </contour>
    <contour>
      <point x="583" y="12" type="line"/>
      <point x="583" y="25" type="line"/>
      <point x="576" y="60"/>
      <point x="556" y="85"/>
      <point x="537" y="108" type="curve"/>
      <point x="529" y="116"/>
      <point x="507" y="142"/>
      <point x="507" y="145" type="curve" smooth="yes"/>
      <point x="507" y="153"/>
      <point x="517" y="163"/>
      <point x="528" y="191" type="curve"/>
      <point x="528" y="190" type="line"/>
      <point x="536" y="202"/>
      <point x="536" y="210"/>
      <point x="544" y="229" type="curve"/>
      <point x="544" y="228" type="line"/>
      <point x="559" y="263"/>
      <point x="571" y="290"/>
      <point x="571" y="331" type="curve" smooth="yes"/>
      <point x="571" y="358"/>
      <point x="563" y="369"/>
      <point x="548" y="374" type="curve"/>
      <point x="541" y="393"/>
      <point x="527" y="398"/>
      <point x="504" y="398" type="curve" smooth="yes"/>
      <point x="433" y="398" type="line" smooth="yes"/>
      <point x="372" y="398"/>
      <point x="372" y="366"/>
      <point x="364" y="331" type="curve"/>
      <point x="353" y="351"/>
      <point x="352" y="365"/>
      <point x="352" y="373" type="curve" smooth="yes"/>
      <point x="352" y="382"/>
      <point x="364" y="401"/>
      <point x="381" y="426" type="curve" smooth="yes"/>
      <point x="387" y="435" type="line" smooth="yes"/>
      <point x="411" y="474"/>
      <point x="436" y="511"/>
      <point x="436" y="559" type="curve" smooth="yes"/>
      <point x="436" y="643"/>
      <point x="349" y="741"/>
      <point x="234" y="741" type="curve" smooth="yes"/>
      <point x="133" y="741"/>
      <point x="31" y="671"/>
      <point x="31" y="580" type="curve" smooth="yes" name="hr03"/>
      <point x="31" y="519"/>
      <point x="72" y="454"/>
      <point x="104" y="411" type="curve"/>
      <point x="54" y="364"/>
      <point x="8" y="289"/>
      <point x="8" y="220" type="curve" smooth="yes" name="hr04"/>
      <point x="8" y="99"/>
      <point x="97" y="-31"/>
      <point x="239" y="-31" type="curve"/>
      <point x="288" y="-28"/>
      <point x="341" y="-18"/>
      <point x="381" y="5" type="curve"/>
      <point x="421" y="-32"/>
      <point x="440" y="-31"/>
      <point x="491" y="-31" type="curve" smooth="yes"/>
      <point x="496" y="-31" type="line" smooth="yes"/>
      <point x="530" y="-31"/>
      <point x="572" y="-30"/>
      <point x="582" y="6" type="curve" smooth="yes"/>
    </contour>
    <contour>
      <point x="262" y="142" type="curve"/>
      <point x="293" y="152"/>
      <point x="292" y="158"/>
      <point x="292" y="208" type="curve" smooth="yes" name="hr05"/>
      <point x="292" y="246"/>
      <point x="281" y="288"/>
      <point x="226" y="288" type="curve" smooth="yes"/>
      <point x="193" y="288"/>
      <point x="169" y="260"/>
      <point x="169" y="211" type="curve" smooth="yes"/>
      <point x="169" y="182"/>
      <point x="181" y="139"/>
      <point x="235" y="139" type="curve" smooth="yes"/>
      <point x="246" y="139"/>
      <point x="255" y="141"/>
    </contour>
    <contour>
      <point x="234" y="618" type="curve" smooth="yes"/>
      <point x="205" y="618"/>
      <point x="191" y="604"/>
      <point x="191" y="577" type="curve" smooth="yes" name="hr06"/>
      <point x="191" y="549"/>
      <point x="209" y="502"/>
      <point x="222" y="502" type="curve"/>
      <point x="222" y="501" type="line"/>
      <point x="246" y="505"/>
      <point x="254" y="549"/>
      <point x="254" y="597" type="curve" smooth="yes"/>
      <point x="254" y="609"/>
      <point x="249" y="618"/>
    </contour>
    <contour>
      <point x="552" y="29" type="line" smooth="yes"/>
      <point x="544" y="0"/>
      <point x="507" y="-1"/>
      <point x="476" y="-1" type="curve" smooth="yes"/>
      <point x="471" y="-1" type="line" smooth="yes"/>
      <point x="422" y="-1"/>
      <point x="402" y="1"/>
      <point x="362" y="38" type="curve"/>
      <point x="322" y="11"/>
      <point x="271" y="2"/>
      <point x="219" y="-1" type="curve"/>
      <point x="87" y="-1"/>
      <point x="18" y="113"/>
      <point x="18" y="220" type="curve" smooth="yes"/>
      <point x="18" y="291"/>
      <point x="67" y="362"/>
      <point x="118" y="410" type="curve"/>
      <point x="86" y="453"/>
      <point x="41" y="519"/>
      <point x="41" y="580" type="curve" smooth="yes"/>
      <point x="41" y="665"/>
      <point x="138" y="731"/>
      <point x="234" y="731" type="curve" smooth="yes"/>
      <point x="336" y="731"/>
      <point x="406" y="659"/>
      <point x="406" y="579" type="curve" smooth="yes"/>
      <point x="406" y="501"/>
      <point x="322" y="428"/>
      <point x="322" y="394" type="curve" smooth="yes" name="hr07"/>
      <point x="322" y="379"/>
      <point x="326" y="351"/>
      <point x="365" y="302" type="curve"/>
      <point x="383" y="333"/>
      <point x="361" y="388"/>
      <point x="433" y="388" type="curve" smooth="yes"/>
      <point x="504" y="388" type="line" smooth="yes"/>
      <point x="527" y="388"/>
      <point x="541" y="382"/>
      <point x="541" y="351" type="curve" smooth="yes"/>
      <point x="541" y="308"/>
      <point x="527" y="279"/>
      <point x="512" y="244" type="curve"/>
      <point x="512" y="245" type="line"/>
      <point x="509" y="238"/>
      <point x="507" y="233"/>
      <point x="504" y="224" type="curve"/>
      <point x="499" y="216"/>
      <point x="477" y="173"/>
      <point x="477" y="165" type="curve" smooth="yes"/>
      <point x="477" y="157"/>
      <point x="491" y="144"/>
      <point x="503" y="128" type="curve"/>
      <point x="503" y="129" type="line"/>
      <point x="522" y="105"/>
      <point x="546" y="78"/>
      <point x="553" y="43" type="curve"/>
      <point x="553" y="34" type="line"/>
    </contour>
  </outline>
</glyph>
<glyph name="parenleft" format="1">
  <advance width="314"/>
  <unicode hex="0028"/>
  <outline>
    <contour>
      <point x="122" y="13" type="curve" smooth="yes" name="hr01"/>
      <point x="161" y="-16"/>
      <point x="203" y="-30"/>
      <point x="248" y="-30" type="curve" smooth="yes"/>
      <point x="271" y="-30" type="line" smooth="yes"/>
      <point x="287" y="-30"/>
      <point x="305" y="-33"/>
      <point x="317" y="-14" type="curve"/>
      <point x="320" y="21"/>
      <point x="316" y="66"/>
      <point x="320" y="103" type="curve"/>
      <point x="320" y="119" type="line"/>
      <point x="313" y="119"/>
      <point x="306" y="118"/>
      <point x="299" y="121" type="curve"/>
      <point x="299" y="121"/>
      <point x="299" y="122"/>
      <point x="300" y="123" type="curve"/>
      <point x="300" y="139" type="line"/>
      <point x="267" y="139"/>
      <point x="226" y="155"/>
      <point x="215" y="187" type="curve" smooth="yes"/>
      <point x="216" y="186" type="line"/>
      <point x="207" y="217"/>
      <point x="205" y="247"/>
      <point x="205" y="278" type="curve" smooth="yes"/>
      <point x="205" y="290"/>
      <point x="206" y="303"/>
      <point x="206" y="315" type="curve" smooth="yes"/>
      <point x="206" y="358" type="line"/>
      <point x="207" y="362"/>
      <point x="207" y="370"/>
      <point x="207" y="375" type="curve" smooth="yes"/>
      <point x="215" y="487"/>
      <point x="234" y="529"/>
      <point x="316" y="553" type="curve"/>
      <point x="316" y="580"/>
      <point x="318" y="612"/>
      <point x="318" y="641" type="curve" smooth="yes"/>
      <point x="318" y="656"/>
      <point x="318" y="672"/>
      <point x="315" y="693" type="curve"/>
      <point x="297" y="696" type="line"/>
      <point x="296" y="701"/>
      <point x="296" y="706"/>
      <point x="295" y="713" type="curve"/>
      <point x="267" y="717"/>
      <point x="237" y="721"/>
      <point x="212" y="721" type="curve" smooth="yes"/>
      <point x="149" y="721"/>
      <point x="88" y="689"/>
      <point x="53" y="626" type="curve" smooth="yes"/>
      <point x="22" y="572"/>
      <point x="31" y="500"/>
      <point x="28" y="444" type="curve"/>
      <point x="28" y="420" type="line"/>
      <point x="28" y="396" type="line" smooth="yes"/>
      <point x="28" y="333"/>
      <point x="22" y="265"/>
      <point x="22" y="202" type="curve"/>
      <point x="25" y="166"/>
      <point x="30" y="129"/>
      <point x="57" y="82" type="curve"/>
      <point x="57" y="83" type="line"/>
      <point x="74" y="56"/>
      <point x="95" y="32"/>
    </contour>
    <contour>
      <point x="108" y="41" type="curve" smooth="yes"/>
      <point x="91" y="52"/>
      <point x="75" y="68"/>
      <point x="66" y="87" type="curve"/>
      <point x="41" y="132"/>
      <point x="35" y="167"/>
      <point x="32" y="203" type="curve"/>
      <point x="35" y="267"/>
      <point x="38" y="334"/>
      <point x="38" y="398" type="curve" smooth="yes"/>
      <point x="38" y="420" type="line"/>
      <point x="38" y="444" type="line" smooth="yes"/>
      <point x="38" y="464"/>
      <point x="39" y="484"/>
      <point x="38" y="504" type="curve"/>
      <point x="38" y="649"/>
      <point x="121" y="708"/>
      <point x="212" y="711" type="curve"/>
      <point x="235" y="710"/>
      <point x="262" y="708"/>
      <point x="285" y="705" type="curve"/>
      <point x="286" y="704" type="line"/>
      <point x="289" y="689"/>
      <point x="288" y="673"/>
      <point x="288" y="658" type="curve" smooth="yes"/>
      <point x="288" y="631"/>
      <point x="287" y="606"/>
      <point x="286" y="581" type="curve"/>
      <point x="249" y="570"/>
      <point x="202" y="545"/>
      <point x="194" y="501" type="curve"/>
      <point x="171" y="436"/>
      <point x="175" y="368"/>
      <point x="175" y="301" type="curve" smooth="yes" name="hr02"/>
      <point x="175" y="268"/>
      <point x="177" y="234"/>
      <point x="186" y="203" type="curve"/>
      <point x="205" y="160"/>
      <point x="249" y="130"/>
      <point x="289" y="129" type="curve"/>
      <point x="290" y="124" type="line"/>
      <point x="287" y="105"/>
      <point x="288" y="86"/>
      <point x="288" y="66" type="curve" smooth="yes"/>
      <point x="288" y="35"/>
      <point x="299" y="0"/>
      <point x="257" y="0" type="curve" smooth="yes"/>
      <point x="245" y="0" type="line"/>
      <point x="228" y="0" type="line" smooth="yes"/>
      <point x="187" y="0"/>
      <point x="147" y="14"/>
    </contour>
  </outline>
</glyph>
<glyph name="plus" format="1">
  <advance width="445"/>
  <unicode hex="002B"/>
  <outline>
    <contour>
      <point x="152" y="78" type="line" name="hr01"/>
      <point x="159" y="81"/>
      <point x="191" y="84"/>
      <point x="211" y="84" type="curve" smooth="yes" name="hr02"/>
      <point x="234" y="84"/>
      <point x="261" y="82"/>
      <point x="282" y="82" type="curve" smooth="yes"/>
      <point x="306" y="82"/>
      <point x="323" y="85"/>
      <point x="323" y="96" type="curve" smooth="yes"/>
      <point x="323" y="114"/>
      <point x="331" y="178"/>
      <point x="331" y="213" type="curve"/>
      <point x="350" y="216"/>
      <point x="429" y="211"/>
      <point x="448" y="221" type="curve"/>
      <point x="456" y="291"/>
      <point x="450" y="321"/>
      <point x="453" y="381" type="curve"/>
      <point x="446" y="382"/>
      <point x="439" y="383"/>
      <point x="432" y="383" type="curve"/>
      <point x="432" y="390"/>
      <point x="433" y="394"/>
      <point x="433" y="401" type="curve"/>
      <point x="410" y="405"/>
      <point x="381" y="405"/>
      <point x="354" y="405" type="curve" smooth="yes"/>
      <point x="345" y="405"/>
      <point x="337" y="404"/>
      <point x="329" y="404" type="curve"/>
      <point x="329" y="411"/>
      <point x="330" y="418"/>
      <point x="330" y="427" type="curve" smooth="yes"/>
      <point x="330" y="509" type="line"/>
      <point x="325" y="510"/>
      <point x="318" y="510"/>
      <point x="310" y="510" type="curve"/>
      <point x="310" y="529" type="line"/>
      <point x="303" y="530"/>
      <point x="291" y="531"/>
      <point x="278" y="531" type="curve" smooth="yes" name="hr03"/>
      <point x="251" y="531"/>
      <point x="225" y="529"/>
      <point x="200" y="529" type="curve" smooth="yes"/>
      <point x="181" y="529"/>
      <point x="164" y="531"/>
      <point x="145" y="543" type="curve" name="hr04"/>
      <point x="145" y="541"/>
      <point x="136" y="473"/>
      <point x="136" y="403" type="curve"/>
      <point x="118" y="400"/>
      <point x="61" y="397"/>
      <point x="29" y="397" type="curve" smooth="yes"/>
      <point x="18" y="397"/>
      <point x="11" y="397"/>
      <point x="9" y="398" type="curve"/>
      <point x="9" y="375"/>
      <point x="13" y="327"/>
      <point x="13" y="276" type="curve" smooth="yes" name="hr05"/>
      <point x="13" y="264"/>
      <point x="12" y="253"/>
      <point x="12" y="246" type="curve"/>
      <point x="15" y="243"/>
      <point x="22" y="241"/>
      <point x="33" y="239" type="curve"/>
      <point x="33" y="234"/>
      <point x="32" y="229"/>
      <point x="32" y="226" type="curve"/>
      <point x="44" y="217"/>
      <point x="97" y="212"/>
      <point x="129" y="209" type="curve"/>
      <point x="129" y="170" type="line" smooth="yes"/>
      <point x="129" y="165"/>
      <point x="128" y="159"/>
      <point x="128" y="152" type="curve" smooth="yes"/>
      <point x="128" y="141"/>
      <point x="129" y="129"/>
      <point x="131" y="116" type="curve"/>
      <point x="131" y="117" type="line"/>
      <point x="132" y="98" type="line"/>
      <point x="134" y="99"/>
      <point x="140" y="100"/>
      <point x="150" y="101" type="curve"/>
      <point x="150" y="99"/>
      <point x="150" y="97"/>
      <point x="151" y="96" type="curve"/>
      <point x="151" y="97" type="line"/>
    </contour>
    <contour>
      <point x="141" y="115" type="line"/>
      <point x="141" y="117" type="line" smooth="yes"/>
      <point x="138" y="130"/>
      <point x="139" y="139"/>
      <point x="139" y="150" type="curve" smooth="yes"/>
      <point x="139" y="165"/>
      <point x="140" y="176"/>
      <point x="140" y="192" type="curve" smooth="yes"/>
      <point x="140" y="205"/>
      <point x="140" y="236"/>
      <point x="137" y="239" type="curve"/>
      <point x="135" y="239" type="line" smooth="yes"/>
      <point x="118" y="239"/>
      <point x="23" y="242"/>
      <point x="23" y="251" type="curve" smooth="yes"/>
      <point x="23" y="256"/>
      <point x="24" y="263"/>
      <point x="24" y="272" type="curve" smooth="yes"/>
      <point x="24" y="311"/>
      <point x="19" y="377"/>
      <point x="19" y="384" type="curve"/>
      <point x="23" y="384" type="line" smooth="yes"/>
      <point x="44" y="384"/>
      <point x="141" y="392"/>
      <point x="146" y="394" type="curve"/>
      <point x="146" y="420"/>
      <point x="150" y="497"/>
      <point x="155" y="524" type="curve"/>
      <point x="162" y="520"/>
      <point x="179" y="519"/>
      <point x="202" y="519" type="curve" smooth="yes"/>
      <point x="231" y="519"/>
      <point x="265" y="520"/>
      <point x="286" y="520" type="curve" smooth="yes" name="hr06"/>
      <point x="300" y="520" type="line"/>
      <point x="300" y="416" type="line" smooth="yes"/>
      <point x="300" y="387"/>
      <point x="311" y="395"/>
      <point x="330" y="395" type="curve" smooth="yes"/>
      <point x="363" y="395" type="line" smooth="yes"/>
      <point x="386" y="395"/>
      <point x="408" y="395"/>
      <point x="423" y="392" type="curve"/>
      <point x="420" y="336"/>
      <point x="424" y="296"/>
      <point x="419" y="247" type="curve"/>
      <point x="411" y="242"/>
      <point x="313" y="248"/>
      <point x="300" y="240" type="curve"/>
      <point x="300" y="228" type="line" smooth="yes"/>
      <point x="300" y="197"/>
      <point x="293" y="135"/>
      <point x="293" y="118" type="curve" smooth="yes"/>
      <point x="293" y="116" type="line" smooth="yes"/>
      <point x="293" y="113"/>
      <point x="277" y="112"/>
      <point x="256" y="112" type="curve" smooth="yes"/>
      <point x="221" y="112"/>
      <point x="172" y="114"/>
      <point x="151" y="114" type="curve" smooth="yes"/>
      <point x="142" y="114" type="line"/>
    </contour>
  </outline>
</glyph>
<glyph name="period" format="1">
  <advance width="189"/>
  <unicode hex="002E"/>
  <outline>
    <contour>
      <point x="179" y="-30" type="line" name="hr01"/>
      <point x="181" y="-15"/>
      <point x="187" y="58"/>
      <point x="187" y="86" type="curve" smooth="yes"/>
      <point x="187" y="109"/>
      <point x="178" y="106"/>
      <point x="167" y="109" type="curve"/>
      <point x="165" y="123" type="line"/>
      <point x="148" y="131"/>
      <point x="124" y="135"/>
      <point x="101" y="135" type="curve" smooth="yes" name="hr02"/>
      <point x="74" y="135"/>
      <point x="44" y="132"/>
      <point x="23" y="123" type="curve"/>
      <point x="23" y="107"/>
      <point x="21" y="80"/>
      <point x="21" y="52" type="curve" smooth="yes"/>
      <point x="21" y="31"/>
      <point x="22" y="10"/>
      <point x="25" y="-9" type="curve" name="hr03"/>
      <point x="42" y="-9" type="line"/>
      <point x="43" y="-16"/>
      <point x="44" y="-22"/>
      <point x="45" y="-29" type="curve" name="hr04"/>
    </contour>
    <contour>
      <point x="37" y="0" type="line" name="hr05"/>
      <point x="34" y="1" type="line"/>
      <point x="31" y="12"/>
      <point x="31" y="28"/>
      <point x="31" y="47" type="curve" smooth="yes"/>
      <point x="31" y="75"/>
      <point x="33" y="105"/>
      <point x="33" y="117" type="curve"/>
      <point x="48" y="124"/>
      <point x="74" y="125"/>
      <point x="101" y="125" type="curve" smooth="yes"/>
      <point x="126" y="125"/>
      <point x="149" y="123"/>
      <point x="158" y="119" type="curve"/>
      <point x="158" y="117"/>
      <point x="152" y="21"/>
      <point x="152" y="2" type="curve" smooth="yes"/>
      <point x="152" y="0" type="line"/>
      <point x="150" y="0" type="line"/>
    </contour>
  </outline>
</glyph>
<glyph name="slash" format="1">
  <advance width="412"/>
  <unicode hex="002F"/>
  <outline>
    <contour>
      <point x="237" y="127" type="line" smooth="yes" name="hr00"/>
      <point x="245" y="147"/>
      <point x="252" y="168"/>
      <point x="259" y="188" type="curve"/>
      <point x="259" y="187" type="line"/>
      <point x="295" y="283"/>
      <point x="321" y="373"/>
      <point x="357" y="473" type="curve" smooth="yes"/>
      <point x="372" y="515" type="line"/>
      <point x="403" y="610"/>
      <point x="418" y="655"/>
      <point x="418" y="666" type="curve" smooth="yes"/>
      <point x="418" y="668"/>
      <point x="419" y="672"/>
      <point x="422" y="677" type="curve" smooth="yes"/>
      <point x="426" y="685" type="line"/>
      <point x="417" y="689"/>
      <point x="408" y="692"/>
      <point x="401" y="694" type="curve"/>
      <point x="402" y="697"/>
      <point x="403" y="698"/>
      <point x="404" y="701" type="curve" smooth="yes"/>
      <point x="406" y="705" type="line"/>
      <point x="383" y="716"/>
      <point x="361" y="718"/>
      <point x="340" y="718" type="curve" smooth="yes"/>
      <point x="324" y="718"/>
      <point x="310" y="717"/>
      <point x="294" y="717" type="curve" smooth="yes"/>
      <point x="280" y="717"/>
      <point x="266" y="718"/>
      <point x="253" y="721" type="curve"/>
      <point x="197" y="511"/>
      <point x="201" y="563"/>
      <point x="189" y="515" type="curve"/>
      <point x="190" y="515" type="line"/>
      <point x="182" y="491"/>
      <point x="174" y="466"/>
      <point x="165" y="441" type="curve" smooth="yes"/>
      <point x="80" y="215"/>
      <point x="72" y="191"/>
      <point x="70" y="181" type="curve"/>
      <point x="71" y="182" type="line" smooth="yes"/>
      <point x="56" y="149"/>
      <point x="47" y="120"/>
      <point x="38" y="93" type="curve"/>
      <point x="39" y="93" type="line"/>
      <point x="38" y="90"/>
      <point x="35" y="82"/>
      <point x="31" y="71" type="curve"/>
      <point x="31" y="72" type="line"/>
      <point x="22" y="51"/>
      <point x="11" y="21"/>
      <point x="11" y="4" type="curve" smooth="yes"/>
      <point x="11" y="-6"/>
      <point x="15" y="-11"/>
      <point x="22" y="-11" type="curve" smooth="yes"/>
      <point x="25" y="-11"/>
      <point x="28" y="-10"/>
      <point x="31" y="-10" type="curve"/>
      <point x="31" y="-15" type="line" smooth="yes"/>
      <point x="31" y="-26"/>
      <point x="35" y="-31"/>
      <point x="42" y="-31" type="curve" smooth="yes"/>
      <point x="138" y="-28"/>
      <point x="172" y="-40"/>
      <point x="180" y="-16" type="curve"/>
      <point x="180" y="-17" type="line"/>
    </contour>
    <contour>
      <point x="151" y="7" type="line" smooth="yes"/>
      <point x="148" y="-1"/>
      <point x="136" y="0"/>
      <point x="113" y="0" type="curve" smooth="yes"/>
      <point x="78" y="0" type="line" smooth="yes"/>
      <point x="63" y="0"/>
      <point x="46" y="0"/>
      <point x="23" y="-1" type="curve"/>
      <point x="22" y="-1" type="line"/>
      <point x="20" y="-1"/>
      <point x="19" y="0"/>
      <point x="19" y="3" type="curve" smooth="yes"/>
      <point x="19" y="21"/>
      <point x="45" y="82"/>
      <point x="48" y="90" type="curve" smooth="yes"/>
      <point x="57" y="119"/>
      <point x="67" y="149"/>
      <point x="80" y="178" type="curve"/>
      <point x="84" y="200"/>
      <point x="104" y="227"/>
      <point x="212" y="554" type="curve"/>
      <point x="215" y="559"/>
      <point x="242" y="634"/>
      <point x="261" y="709" type="curve"/>
      <point x="269" y="707"/>
      <point x="279" y="706"/>
      <point x="290" y="706" type="curve" smooth="yes"/>
      <point x="309" y="706"/>
      <point x="329" y="708"/>
      <point x="348" y="708" type="curve" smooth="yes"/>
      <point x="365" y="708"/>
      <point x="381" y="708"/>
      <point x="393" y="701" type="curve"/>
      <point x="390" y="694"/>
      <point x="390" y="691"/>
      <point x="387" y="683" type="curve"/>
      <point x="379" y="650"/>
      <point x="277" y="329"/>
      <point x="208" y="151" type="curve" smooth="yes"/>
    </contour>
  </outline>
</glyph>
<glyph name="five" format="1">
  <advance width="503"/>
  <unicode hex="0035"/>
  <outline>
    <contour>
      <point x="34" y="226" type="line" name="hr01"/>
      <point x="29" y="201"/>
      <point x="27" y="177"/>
      <point x="27" y="156" type="curve" smooth="yes"/>
      <point x="27" y="35"/>
      <point x="136" y="-39"/>
      <point x="259" y="-39" type="curve" smooth="yes"/>
      <point x="367" y="-39"/>
      <point x="478" y="15"/>
      <point x="500" y="112" type="curve"/>
      <point x="504" y="141"/>
      <point x="506" y="171"/>
      <point x="506" y="202" type="curve" smooth="yes"/>
      <point x="506" y="352"/>
      <point x="443" y="493"/>
      <point x="302" y="517" type="curve" smooth="yes"/>
      <point x="300" y="517"/>
      <point x="299" y="517"/>
      <point x="298" y="518" type="curve" name="hr02"/>
      <point x="372" y="518"/>
      <point x="469" y="522"/>
      <point x="490" y="525" type="curve"/>
      <point x="490" y="544" type="line" smooth="yes"/>
      <point x="490" y="565"/>
      <point x="497" y="612"/>
      <point x="497" y="646" type="curve" smooth="yes"/>
      <point x="497" y="678"/>
      <point x="496" y="689"/>
      <point x="475" y="693" type="curve"/>
      <point x="469" y="718"/>
      <point x="459" y="713"/>
      <point x="428" y="713" type="curve" smooth="yes" name="hr03"/>
      <point x="319" y="713"/>
      <point x="40" y="706"/>
      <point x="27" y="706" type="curve"/>
      <point x="27" y="685"/>
      <point x="26" y="664"/>
      <point x="26" y="644" type="curve" smooth="yes"/>
      <point x="26" y="538"/>
      <point x="28" y="459"/>
      <point x="28" y="342" type="curve"/>
      <point x="35" y="339"/>
      <point x="41" y="340"/>
      <point x="48" y="339" type="curve"/>
      <point x="48" y="322" type="line"/>
      <point x="67" y="319"/>
      <point x="78" y="319"/>
      <point x="91" y="319" type="curve" smooth="yes"/>
      <point x="134" y="319"/>
      <point x="179" y="324"/>
      <point x="222" y="324" type="curve" smooth="yes"/>
      <point x="241" y="324"/>
      <point x="259" y="323"/>
      <point x="274" y="320" type="curve"/>
      <point x="273" y="320" type="line"/>
      <point x="300" y="309"/>
      <point x="307" y="279"/>
      <point x="307" y="251" type="curve" smooth="yes"/>
      <point x="307" y="210"/>
      <point x="283" y="166"/>
      <point x="235" y="166" type="curve" smooth="yes"/>
      <point x="219" y="166"/>
      <point x="217" y="179"/>
      <point x="216" y="196" type="curve" smooth="yes"/>
      <point x="215" y="209" type="line"/>
      <point x="195" y="209" type="line"/>
      <point x="195" y="230" type="line"/>
    </contour>
    <contour>
      <point x="185" y="221" type="line" name="hr04"/>
      <point x="185" y="220" type="line"/>
      <point x="185" y="175"/>
      <point x="212" y="156"/>
      <point x="235" y="156" type="curve" smooth="yes" name="hr05"/>
      <point x="291" y="156"/>
      <point x="317" y="206"/>
      <point x="317" y="251" type="curve" smooth="yes"/>
      <point x="317" y="294"/>
      <point x="295" y="338"/>
      <point x="256" y="350" type="curve"/>
      <point x="238" y="352"/>
      <point x="219" y="353"/>
      <point x="199" y="353" type="curve" smooth="yes" name="hr06"/>
      <point x="154" y="353"/>
      <point x="107" y="349"/>
      <point x="68" y="349" type="curve" smooth="yes"/>
      <point x="59" y="349"/>
      <point x="38" y="348"/>
      <point x="38" y="351" type="curve" smooth="yes"/>
      <point x="38" y="443" type="line" smooth="yes"/>
      <point x="38" y="530"/>
      <point x="36" y="602"/>
      <point x="36" y="696" type="curve"/>
      <point x="37" y="696" type="line"/>
      <point x="47" y="696"/>
      <point x="319" y="703"/>
      <point x="423" y="703" type="curve" smooth="yes"/>
      <point x="458" y="703"/>
      <point x="464" y="709"/>
      <point x="464" y="690" type="curve" smooth="yes"/>
      <point x="464" y="663" type="line" smooth="yes"/>
      <point x="464" y="631"/>
      <point x="463" y="588"/>
      <point x="460" y="565" type="curve"/>
      <point x="460" y="554" type="line"/>
      <point x="436" y="551"/>
      <point x="279" y="547"/>
      <point x="213" y="547" type="curve" smooth="yes"/>
      <point x="186" y="547" type="line"/>
      <point x="187" y="541" type="line" smooth="yes"/>
      <point x="190" y="530"/>
      <point x="188" y="515"/>
      <point x="193" y="507" type="curve"/>
      <point x="196" y="505" type="line"/>
      <point x="217" y="509"/>
      <point x="237" y="511"/>
      <point x="256" y="511" type="curve" smooth="yes"/>
      <point x="423" y="511"/>
      <point x="476" y="373"/>
      <point x="476" y="222" type="curve" smooth="yes" name="hr07"/>
      <point x="476" y="192"/>
      <point x="474" y="163"/>
      <point x="470" y="134" type="curve"/>
      <point x="449" y="42"/>
      <point x="343" y="-9"/>
      <point x="239" y="-9" type="curve" smooth="yes"/>
      <point x="135" y="-9"/>
      <point x="37" y="41"/>
      <point x="37" y="153" type="curve" smooth="yes"/>
      <point x="37" y="170"/>
      <point x="39" y="191"/>
      <point x="43" y="214" type="curve"/>
      <point x="43" y="221" type="line"/>
    </contour>
  </outline>
</glyph>
<glyph name="seven" format="1">
  <advance width="476"/>
  <unicode hex="0037"/>
  <outline>
    <contour>
      <point x="24" y="560" type="line" name="hr01"/>
      <point x="33" y="560" type="line"/>
      <point x="32" y="558"/>
      <point x="32" y="555"/>
      <point x="32" y="551" type="curve"/>
      <point x="44" y="540" type="line"/>
      <point x="55" y="540"/>
      <point x="68" y="541"/>
      <point x="81" y="541" type="curve" smooth="yes"/>
      <point x="134" y="541"/>
      <point x="199" y="537"/>
      <point x="256" y="534" type="curve"/>
      <point x="176" y="355"/>
      <point x="90" y="187"/>
      <point x="2" y="0" type="curve"/>
      <point x="11" y="-3"/>
      <point x="19" y="-4"/>
      <point x="28" y="-5" type="curve"/>
      <point x="22" y="-20" type="line"/>
      <point x="43" y="-27"/>
      <point x="64" y="-28"/>
      <point x="84" y="-28" type="curve" smooth="yes"/>
      <point x="125" y="-28"/>
      <point x="166" y="-23"/>
      <point x="194" y="-23" type="curve"/>
      <point x="293" y="169"/>
      <point x="408" y="346"/>
      <point x="493" y="543" type="curve"/>
      <point x="493" y="582"/>
      <point x="491" y="611"/>
      <point x="491" y="646" type="curve" smooth="yes"/>
      <point x="491" y="658"/>
      <point x="492" y="678"/>
      <point x="493" y="693" type="curve"/>
      <point x="486" y="694"/>
      <point x="478" y="695"/>
      <point x="471" y="695" type="curve"/>
      <point x="472" y="702"/>
      <point x="472" y="708"/>
      <point x="473" y="713" type="curve"/>
      <point x="412" y="720"/>
      <point x="350" y="722"/>
      <point x="287" y="722" type="curve" smooth="yes"/>
      <point x="195" y="722"/>
      <point x="105" y="720"/>
      <point x="17" y="717" type="curve"/>
      <point x="17" y="670"/>
      <point x="19" y="619"/>
      <point x="12" y="571" type="curve" name="hr02"/>
    </contour>
    <contour>
      <point x="22" y="570" type="line"/>
      <point x="27" y="614"/>
      <point x="26" y="666"/>
      <point x="27" y="706" type="curve"/>
      <point x="27" y="707" type="line"/>
      <point x="108" y="710"/>
      <point x="197" y="712"/>
      <point x="284" y="712" type="curve" smooth="yes"/>
      <point x="348" y="712"/>
      <point x="406" y="710"/>
      <point x="462" y="705" type="curve"/>
      <point x="462" y="704" type="line"/>
      <point x="461" y="689"/>
      <point x="461" y="677"/>
      <point x="461" y="664" type="curve" smooth="yes"/>
      <point x="461" y="631"/>
      <point x="463" y="604"/>
      <point x="463" y="565" type="curve"/>
      <point x="383" y="380"/>
      <point x="264" y="196"/>
      <point x="168" y="7" type="curve"/>
      <point x="141" y="7"/>
      <point x="100" y="2"/>
      <point x="64" y="2" type="curve" smooth="yes"/>
      <point x="45" y="2"/>
      <point x="29" y="3"/>
      <point x="16" y="7" type="curve"/>
      <point x="107" y="202"/>
      <point x="199" y="380"/>
      <point x="279" y="561" type="curve"/>
      <point x="215" y="564"/>
      <point x="129" y="571"/>
      <point x="61" y="571" type="curve" smooth="yes"/>
      <point x="48" y="571"/>
      <point x="35" y="570"/>
      <point x="24" y="570" type="curve" smooth="yes"/>
    </contour>
  </outline>
</glyph>
<glyph name="eight" format="1">
  <advance width="490"/>
  <unicode hex="0038"/>
  <outline>
    <contour>
      <point x="493" y="503" type="line" smooth="yes" name="hr01"/>
      <point x="493" y="510"/>
      <point x="493" y="515"/>
      <point x="492" y="518" type="curve"/>
      <point x="492" y="517" type="line"/>
      <point x="491" y="518"/>
      <point x="491" y="520"/>
      <point x="491" y="523" type="curve" smooth="yes"/>
      <point x="487" y="550"/>
      <point x="483" y="583"/>
      <point x="464" y="615" type="curve"/>
      <point x="429" y="669"/>
      <point x="412" y="677"/>
      <point x="397" y="687" type="curve" smooth="yes"/>
      <point x="388" y="693" type="line" smooth="yes"/>
      <point x="353" y="713"/>
      <point x="319" y="719"/>
      <point x="263" y="719" type="curve" smooth="yes"/>
      <point x="244" y="719"/>
      <point x="224" y="719"/>
      <point x="200" y="718" type="curve" smooth="yes" name="hr02"/>
      <point x="88" y="713"/>
      <point x="23" y="605"/>
      <point x="23" y="498" type="curve" smooth="yes"/>
      <point x="23" y="445"/>
      <point x="40" y="391"/>
      <point x="73" y="352" type="curve"/>
      <point x="32" y="309"/>
      <point x="14" y="253"/>
      <point x="14" y="196" type="curve" smooth="yes"/>
      <point x="14" y="66"/>
      <point x="108" y="-42"/>
      <point x="266" y="-42" type="curve" smooth="yes"/>
      <point x="413" y="-42"/>
      <point x="490" y="52"/>
      <point x="490" y="172" type="curve" smooth="yes"/>
      <point x="490" y="228"/>
      <point x="470" y="283"/>
      <point x="425" y="322" type="curve" smooth="yes"/>
      <point x="422" y="325" type="line"/>
      <point x="462" y="361"/>
      <point x="478" y="395"/>
      <point x="489" y="442" type="curve"/>
      <point x="488" y="441" type="line" smooth="yes"/>
      <point x="492" y="452"/>
      <point x="493" y="464"/>
      <point x="493" y="475" type="curve" smooth="yes"/>
    </contour>
    <contour>
      <point x="463" y="495" type="line" smooth="yes"/>
      <point x="463" y="435"/>
      <point x="434" y="385"/>
      <point x="386" y="346" type="curve"/>
      <point x="386" y="345" type="line"/>
      <point x="437" y="308"/>
      <point x="460" y="251"/>
      <point x="460" y="191" type="curve" smooth="yes"/>
      <point x="460" y="79"/>
      <point x="390" y="-12"/>
      <point x="246" y="-12" type="curve" smooth="yes"/>
      <point x="103" y="-12"/>
      <point x="24" y="72"/>
      <point x="24" y="196" type="curve" smooth="yes"/>
      <point x="24" y="253"/>
      <point x="44" y="309"/>
      <point x="87" y="352" type="curve"/>
      <point x="50" y="391"/>
      <point x="33" y="443"/>
      <point x="33" y="498" type="curve" smooth="yes"/>
      <point x="33" y="599"/>
      <point x="93" y="703"/>
      <point x="200" y="708" type="curve" smooth="yes"/>
      <point x="224" y="709"/>
      <point x="244" y="709"/>
      <point x="263" y="709" type="curve" smooth="yes"/>
      <point x="318" y="709"/>
      <point x="350" y="704"/>
      <point x="383" y="685" type="curve"/>
      <point x="404" y="669"/>
      <point x="463" y="620"/>
      <point x="463" y="523" type="curve" smooth="yes"/>
    </contour>
    <contour>
      <point x="301" y="213" type="curve"/>
      <point x="301" y="214"/>
      <point x="302" y="216"/>
      <point x="302" y="219" type="curve" smooth="yes"/>
      <point x="302" y="224" type="line" smooth="yes"/>
      <point x="302" y="256"/>
      <point x="266" y="277"/>
      <point x="237" y="277" type="curve" smooth="yes"/>
      <point x="206" y="277"/>
      <point x="186" y="247"/>
      <point x="186" y="218" type="curve" smooth="yes" name="hr03"/>
      <point x="186" y="191"/>
      <point x="204" y="173"/>
      <point x="243" y="173" type="curve" smooth="yes"/>
      <point x="291" y="173"/>
      <point x="296" y="194"/>
    </contour>
    <contour>
      <point x="195" y="506" type="line"/>
      <point x="195" y="504" type="line" smooth="yes"/>
      <point x="195" y="501"/>
      <point x="194" y="499"/>
      <point x="194" y="496" type="curve" smooth="yes"/>
      <point x="194" y="469"/>
      <point x="210" y="437"/>
      <point x="246" y="437" type="curve" smooth="yes"/>
      <point x="275" y="437"/>
      <point x="291" y="462"/>
      <point x="291" y="486" type="curve" smooth="yes"/>
      <point x="291" y="509"/>
      <point x="277" y="531"/>
      <point x="246" y="531" type="curve" smooth="yes"/>
      <point x="240" y="531"/>
      <point x="204" y="529"/>
      <point x="196" y="507" type="curve" smooth="yes"/>
    </contour>
    <contour>
      <point x="291" y="212" type="line" smooth="yes"/>
      <point x="290" y="209"/>
      <point x="291" y="208"/>
      <point x="288" y="205" type="curve"/>
      <point x="285" y="199" type="line"/>
      <point x="285" y="200" type="line"/>
      <point x="280" y="189"/>
      <point x="278" y="189"/>
      <point x="266" y="185" type="curve"/>
      <point x="267" y="185" type="line"/>
      <point x="259" y="183"/>
      <point x="250" y="182"/>
      <point x="241" y="182" type="curve" smooth="yes"/>
      <point x="229" y="182"/>
      <point x="216" y="179"/>
      <point x="216" y="198" type="curve" smooth="yes" name="hr04"/>
      <point x="216" y="218"/>
      <point x="227" y="240"/>
      <point x="246" y="247" type="curve" smooth="yes"/>
      <point x="245" y="246" type="line" smooth="yes"/>
      <point x="248" y="247"/>
      <point x="251" y="247"/>
      <point x="256" y="247" type="curve" smooth="yes"/>
      <point x="275" y="247"/>
      <point x="292" y="240"/>
      <point x="292" y="219" type="curve" smooth="yes"/>
      <point x="292" y="216"/>
      <point x="291" y="215"/>
      <point x="291" y="214" type="curve" name="hr05"/>
    </contour>
    <contour>
      <point x="230" y="488" type="line"/>
      <point x="231" y="489"/>
      <point x="233" y="490"/>
      <point x="234" y="491" type="curve" smooth="yes"/>
      <point x="231" y="488"/>
      <point x="234" y="500"/>
      <point x="265" y="500" type="curve" smooth="yes"/>
      <point x="277" y="500"/>
      <point x="281" y="498"/>
      <point x="281" y="486" type="curve" smooth="yes"/>
      <point x="281" y="466"/>
      <point x="268" y="447"/>
      <point x="245" y="447" type="curve" smooth="yes"/>
      <point x="234" y="447"/>
      <point x="227" y="454"/>
      <point x="224" y="468" type="curve"/>
    </contour>
  </outline>
</glyph>
<glyph name="C" format="1">
  <advance width="488"/>
  <unicode hex="0043"/>
  <outline>
    <contour>
      <point x="220" y="515" type="curve" smooth="yes" name="hr01"/>
      <point x="227" y="522"/>
      <point x="248" y="528"/>
      <point x="263" y="528" type="curve" smooth="yes"/>
      <point x="304" y="528"/>
      <point x="297" y="491"/>
      <point x="300" y="460" type="curve" smooth="yes"/>
      <point x="303" y="420"/>
      <point x="300" y="415"/>
      <point x="322" y="412" type="curve"/>
      <point x="324" y="396" type="line"/>
      <point x="359" y="389"/>
      <point x="392" y="385"/>
      <point x="423" y="385" type="curve" smooth="yes"/>
      <point x="444" y="385"/>
      <point x="465" y="387"/>
      <point x="486" y="392" type="curve"/>
      <point x="497" y="422"/>
      <point x="502" y="450"/>
      <point x="502" y="475" type="curve" smooth="yes"/>
      <point x="502" y="610"/>
      <point x="368" y="736"/>
      <point x="227" y="736" type="curve" smooth="yes"/>
      <point x="119" y="736"/>
      <point x="64" y="688"/>
      <point x="35" y="607" type="curve"/>
      <point x="35" y="608" type="line"/>
      <point x="26" y="589"/>
      <point x="22" y="568"/>
      <point x="22" y="547" type="curve" smooth="yes"/>
      <point x="22" y="543"/>
      <point x="23" y="539"/>
      <point x="23" y="536" type="curve" smooth="yes"/>
      <point x="22" y="455"/>
      <point x="21" y="392"/>
      <point x="21" y="336" type="curve" smooth="yes"/>
      <point x="21" y="244"/>
      <point x="23" y="181"/>
      <point x="26" y="121" type="curve"/>
      <point x="37" y="17"/>
      <point x="142" y="-44"/>
      <point x="244" y="-44" type="curve" smooth="yes"/>
      <point x="392" y="-44"/>
      <point x="499" y="46"/>
      <point x="499" y="189" type="curve" smooth="yes"/>
      <point x="499" y="213"/>
      <point x="496" y="238"/>
      <point x="485" y="269" type="curve"/>
      <point x="470" y="272" type="line"/>
      <point x="467" y="279"/>
      <point x="468" y="282"/>
      <point x="465" y="289" type="curve"/>
      <point x="446" y="294"/>
      <point x="425" y="295"/>
      <point x="404" y="295" type="curve" smooth="yes" name="hr02"/>
      <point x="388" y="295"/>
      <point x="373" y="294"/>
      <point x="357" y="294" type="curve" smooth="yes"/>
      <point x="344" y="294"/>
      <point x="330" y="295"/>
      <point x="316" y="297" type="curve"/>
      <point x="300" y="228"/>
      <point x="322" y="161"/>
      <point x="250" y="161" type="curve" smooth="yes" name="hr03"/>
      <point x="247" y="161"/>
      <point x="244" y="162"/>
      <point x="241" y="162" type="curve"/>
      <point x="242" y="162" type="line"/>
      <point x="204" y="170"/>
      <point x="210" y="261"/>
      <point x="210" y="328" type="curve" smooth="yes"/>
      <point x="210" y="466"/>
      <point x="219" y="514"/>
    </contour>
    <contour>
      <point x="193" y="542" type="curve" smooth="yes"/>
      <point x="190" y="539"/>
      <point x="179" y="494"/>
      <point x="179" y="348" type="curve" smooth="yes"/>
      <point x="179" y="276"/>
      <point x="172" y="151"/>
      <point x="249" y="151" type="curve" smooth="yes" name="hr04"/>
      <point x="333" y="151"/>
      <point x="310" y="232"/>
      <point x="324" y="286" type="curve"/>
      <point x="333" y="285"/>
      <point x="342" y="284"/>
      <point x="353" y="284" type="curve" smooth="yes" name="hr05"/>
      <point x="370" y="284"/>
      <point x="387" y="285"/>
      <point x="406" y="285" type="curve" smooth="yes"/>
      <point x="425" y="285"/>
      <point x="443" y="284"/>
      <point x="458" y="280" type="curve"/>
      <point x="466" y="256"/>
      <point x="469" y="232"/>
      <point x="469" y="209" type="curve" smooth="yes"/>
      <point x="469" y="72"/>
      <point x="365" y="-14"/>
      <point x="224" y="-14" type="curve" smooth="yes"/>
      <point x="138" y="-14"/>
      <point x="44" y="25"/>
      <point x="36" y="122" type="curve"/>
      <point x="33" y="182"/>
      <point x="31" y="244"/>
      <point x="31" y="336" type="curve" smooth="yes"/>
      <point x="31" y="392"/>
      <point x="32" y="456"/>
      <point x="33" y="537" type="curve"/>
      <point x="32" y="540"/>
      <point x="32" y="544"/>
      <point x="32" y="549" type="curve" smooth="yes"/>
      <point x="32" y="569"/>
      <point x="37" y="587"/>
      <point x="44" y="604" type="curve"/>
      <point x="76" y="695"/>
      <point x="142" y="726"/>
      <point x="227" y="726" type="curve" smooth="yes"/>
      <point x="357" y="726"/>
      <point x="472" y="623"/>
      <point x="472" y="495" type="curve" smooth="yes"/>
      <point x="472" y="470"/>
      <point x="468" y="445"/>
      <point x="459" y="421" type="curve"/>
      <point x="440" y="417"/>
      <point x="421" y="415"/>
      <point x="403" y="415" type="curve" smooth="yes"/>
      <point x="374" y="415"/>
      <point x="344" y="418"/>
      <point x="313" y="425" type="curve"/>
      <point x="305" y="477"/>
      <point x="320" y="558"/>
      <point x="247" y="558" type="curve" smooth="yes"/>
      <point x="231" y="558"/>
      <point x="204" y="553"/>
    </contour>
  </outline>
</glyph>
<glyph name="G" format="1">
  <advance width="481"/>
  <unicode hex="0047"/>
  <outline>
    <contour>
      <point x="230" y="357" type="line" name="hr01"/>
      <point x="233" y="304"/>
      <point x="227" y="299"/>
      <point x="235" y="233" type="curve"/>
      <point x="246" y="229"/>
      <point x="251" y="234"/>
      <point x="255" y="213" type="curve"/>
      <point x="266" y="209"/>
      <point x="279" y="208"/>
      <point x="294" y="208" type="curve" smooth="yes"/>
      <point x="306" y="208" type="line"/>
      <point x="313" y="208" type="line"/>
      <point x="306" y="169"/>
      <point x="301" y="159"/>
      <point x="282" y="151" type="curve"/>
      <point x="283" y="151" type="line"/>
      <point x="270" y="145"/>
      <point x="255" y="142"/>
      <point x="238" y="142" type="curve" smooth="yes"/>
      <point x="234" y="142"/>
      <point x="229" y="142"/>
      <point x="225" y="143" type="curve"/>
      <point x="226" y="143" type="line"/>
      <point x="214" y="146" type="line"/>
      <point x="190" y="188"/>
      <point x="194" y="257"/>
      <point x="194" y="312" type="curve" smooth="yes"/>
      <point x="194" y="384"/>
      <point x="200" y="453"/>
      <point x="213" y="496" type="curve" smooth="yes"/>
      <point x="224" y="531"/>
      <point x="231" y="528"/>
      <point x="251" y="528" type="curve" smooth="yes"/>
      <point x="298" y="528"/>
      <point x="304" y="500"/>
      <point x="315" y="465" type="curve"/>
      <point x="336" y="461"/>
      <point x="331" y="454"/>
      <point x="335" y="445" type="curve"/>
      <point x="376" y="439"/>
      <point x="388" y="441"/>
      <point x="412" y="441" type="curve" smooth="yes"/>
      <point x="450" y="441" type="line" smooth="yes"/>
      <point x="486" y="441"/>
      <point x="482" y="466"/>
      <point x="482" y="493" type="curve" smooth="yes"/>
      <point x="482" y="626"/>
      <point x="371" y="712"/>
      <point x="239" y="712" type="curve" smooth="yes"/>
      <point x="0" y="712"/>
      <point x="17" y="501"/>
      <point x="17" y="365" type="curve" smooth="yes"/>
      <point x="17" y="305"/>
      <point x="20" y="259"/>
      <point x="27" y="200" type="curve"/>
      <point x="27" y="66"/>
      <point x="109" y="-46"/>
      <point x="245" y="-46" type="curve" smooth="yes"/>
      <point x="352" y="-46"/>
      <point x="468" y="-18"/>
      <point x="481" y="104" type="curve"/>
      <point x="481" y="103" type="line"/>
      <point x="488" y="135"/>
      <point x="489" y="170"/>
      <point x="489" y="205" type="curve" smooth="yes"/>
      <point x="489" y="248"/>
      <point x="484" y="296"/>
      <point x="480" y="341" type="curve"/>
      <point x="462" y="342" type="line"/>
      <point x="461" y="349"/>
      <point x="460" y="354"/>
      <point x="460" y="361" type="curve"/>
      <point x="448" y="362" type="line"/>
      <point x="427" y="362"/>
      <point x="370" y="368"/>
      <point x="319" y="368" type="curve" smooth="yes"/>
      <point x="284" y="368"/>
      <point x="253" y="366"/>
      <point x="238" y="357" type="curve" smooth="yes"/>
      <point x="236" y="355" type="line"/>
      <point x="236" y="356"/>
      <point x="235" y="357"/>
      <point x="233" y="357" type="curve" smooth="yes"/>
    </contour>
    <contour>
      <point x="243" y="348" type="line" smooth="yes"/>
      <point x="256" y="356"/>
      <point x="285" y="358"/>
      <point x="317" y="358" type="curve" smooth="yes" name="hr02"/>
      <point x="370" y="358"/>
      <point x="431" y="352"/>
      <point x="448" y="352" type="curve"/>
      <point x="451" y="351" type="line"/>
      <point x="455" y="311"/>
      <point x="459" y="268"/>
      <point x="459" y="225" type="curve" smooth="yes"/>
      <point x="459" y="190"/>
      <point x="458" y="157"/>
      <point x="451" y="125" type="curve"/>
      <point x="438" y="9"/>
      <point x="323" y="-16"/>
      <point x="225" y="-16" type="curve" smooth="yes"/>
      <point x="26" y="-16"/>
      <point x="27" y="202"/>
      <point x="27" y="362" type="curve" smooth="yes"/>
      <point x="27" y="426"/>
      <point x="14" y="603"/>
      <point x="97" y="662" type="curve"/>
      <point x="134" y="693"/>
      <point x="191" y="702"/>
      <point x="239" y="702" type="curve" smooth="yes"/>
      <point x="358" y="702"/>
      <point x="452" y="638"/>
      <point x="452" y="513" type="curve" smooth="yes"/>
      <point x="452" y="502"/>
      <point x="451" y="492"/>
      <point x="450" y="481" type="curve" smooth="yes"/>
      <point x="449" y="475" type="line"/>
      <point x="447" y="471"/>
      <point x="399" y="470"/>
      <point x="375" y="470" type="curve" smooth="yes"/>
      <point x="360" y="470"/>
      <point x="346" y="471"/>
      <point x="323" y="474" type="curve"/>
      <point x="315" y="502"/>
      <point x="294" y="557"/>
      <point x="255" y="557" type="curve" smooth="yes"/>
      <point x="246" y="557"/>
      <point x="238" y="558"/>
      <point x="230" y="558" type="curve" smooth="yes"/>
      <point x="215" y="558"/>
      <point x="205" y="557"/>
      <point x="194" y="546" type="curve" smooth="yes"/>
      <point x="175" y="527"/>
      <point x="164" y="423"/>
      <point x="164" y="332" type="curve" smooth="yes"/>
      <point x="164" y="277"/>
      <point x="152" y="132"/>
      <point x="236" y="132" type="curve" smooth="yes"/>
      <point x="279" y="132"/>
      <point x="322" y="140"/>
      <point x="322" y="221" type="curve" smooth="yes" name="hr03"/>
      <point x="322" y="242"/>
      <point x="316" y="239"/>
      <point x="304" y="239" type="curve" smooth="yes"/>
      <point x="292" y="239"/>
      <point x="277" y="238"/>
      <point x="264" y="238" type="curve" smooth="yes"/>
      <point x="256" y="238"/>
      <point x="248" y="237"/>
      <point x="244" y="240" type="curve"/>
      <point x="241" y="255"/>
      <point x="242" y="266"/>
      <point x="242" y="277" type="curve" smooth="yes"/>
      <point x="242" y="305" type="line" smooth="yes"/>
      <point x="242" y="316"/>
      <point x="243" y="329"/>
      <point x="240" y="345" type="curve"/>
      <point x="240" y="346" type="line"/>
    </contour>
  </outline>
</glyph>
<glyph name="H" format="1">
  <advance width="499"/>
  <unicode hex="0048"/>
  <outline>
    <contour>
      <point x="472" y="695" type="line" name="hr01"/>
      <point x="464" y="696"/>
      <point x="459" y="696"/>
      <point x="452" y="696" type="curve"/>
      <point x="452" y="715" type="line"/>
      <point x="432" y="718"/>
      <point x="422" y="717"/>
      <point x="410" y="717" type="curve" smooth="yes"/>
      <point x="371" y="717"/>
      <point x="326" y="712"/>
      <point x="295" y="703" type="curve" name="hr02"/>
      <point x="298" y="663"/>
      <point x="298" y="620"/>
      <point x="298" y="585" type="curve" smooth="yes"/>
      <point x="298" y="541"/>
      <point x="296" y="491"/>
      <point x="292" y="443" type="curve"/>
      <point x="285" y="443" type="line"/>
      <point x="266" y="440"/>
      <point x="248" y="439"/>
      <point x="229" y="439" type="curve" smooth="yes"/>
      <point x="218" y="439" type="line"/>
      <point x="203" y="520"/>
      <point x="208" y="597"/>
      <point x="199" y="684" type="curve"/>
      <point x="194" y="685"/>
      <point x="188" y="687"/>
      <point x="181" y="688" type="curve"/>
      <point x="176" y="714"/>
      <point x="154" y="710"/>
      <point x="138" y="710" type="curve" smooth="yes"/>
      <point x="114" y="710"/>
      <point x="91" y="706"/>
      <point x="72" y="706" type="curve" smooth="yes"/>
      <point x="63" y="706"/>
      <point x="54" y="707"/>
      <point x="45" y="709" type="curve"/>
      <point x="30" y="708" type="line"/>
      <point x="29" y="676"/>
      <point x="29" y="630"/>
      <point x="29" y="591" type="curve" smooth="yes"/>
      <point x="29" y="382"/>
      <point x="37" y="79"/>
      <point x="45" y="-16" type="curve"/>
      <point x="52" y="-11"/>
      <point x="58" y="-9"/>
      <point x="63" y="-8" type="curve"/>
      <point x="64" y="-19"/>
      <point x="64" y="-28"/>
      <point x="65" y="-36" type="curve"/>
      <point x="80" y="-28"/>
      <point x="91" y="-26"/>
      <point x="102" y="-26" type="curve" smooth="yes" name="hr03"/>
      <point x="122" y="-26"/>
      <point x="147" y="-30"/>
      <point x="170" y="-30" type="curve" smooth="yes"/>
      <point x="189" y="-30"/>
      <point x="204" y="-28"/>
      <point x="219" y="-19" type="curve"/>
      <point x="226" y="16"/>
      <point x="226" y="48"/>
      <point x="226" y="79" type="curve" smooth="yes"/>
      <point x="226" y="119"/>
      <point x="224" y="157"/>
      <point x="224" y="198" type="curve" smooth="yes"/>
      <point x="224" y="211"/>
      <point x="224" y="232"/>
      <point x="225" y="247" type="curve"/>
      <point x="244" y="251"/>
      <point x="259" y="252"/>
      <point x="278" y="252" type="curve" smooth="yes"/>
      <point x="286" y="252"/>
      <point x="294" y="251"/>
      <point x="305" y="250" type="curve"/>
      <point x="313" y="171"/>
      <point x="306" y="82"/>
      <point x="319" y="-11" type="curve"/>
      <point x="324" y="-10"/>
      <point x="329" y="-10"/>
      <point x="336" y="-10" type="curve"/>
      <point x="339" y="-31" type="line"/>
      <point x="384" y="-28"/>
      <point x="442" y="-34"/>
      <point x="499" y="-23" type="curve"/>
    </contour>
    <contour>
      <point x="469" y="6" type="line"/>
      <point x="446" y="2"/>
      <point x="419" y="1"/>
      <point x="394" y="1" type="curve" smooth="yes"/>
      <point x="358" y="1" type="line" smooth="yes"/>
      <point x="347" y="1"/>
      <point x="337" y="1"/>
      <point x="329" y="0" type="curve" name="hr04"/>
      <point x="328" y="0" type="line"/>
      <point x="315" y="89"/>
      <point x="324" y="190"/>
      <point x="313" y="276" type="curve"/>
      <point x="312" y="277" type="line"/>
      <point x="293" y="280"/>
      <point x="276" y="282"/>
      <point x="257" y="282" type="curve" smooth="yes"/>
      <point x="236" y="282"/>
      <point x="215" y="280"/>
      <point x="196" y="275" type="curve"/>
      <point x="194" y="253"/>
      <point x="193" y="231"/>
      <point x="193" y="210" type="curve" smooth="yes"/>
      <point x="193" y="171"/>
      <point x="195" y="132"/>
      <point x="195" y="93" type="curve" smooth="yes"/>
      <point x="195" y="64"/>
      <point x="194" y="35"/>
      <point x="190" y="7" type="curve"/>
      <point x="179" y="0"/>
      <point x="167" y="0"/>
      <point x="152" y="0" type="curve" smooth="yes"/>
      <point x="127" y="0"/>
      <point x="99" y="5"/>
      <point x="76" y="5" type="curve" smooth="yes"/>
      <point x="66" y="5"/>
      <point x="59" y="4"/>
      <point x="54" y="1" type="curve" name="hr05"/>
      <point x="46" y="97"/>
      <point x="39" y="381"/>
      <point x="39" y="591" type="curve" smooth="yes"/>
      <point x="39" y="630"/>
      <point x="39" y="666"/>
      <point x="40" y="698" type="curve"/>
      <point x="43" y="699" type="line"/>
      <point x="50" y="697"/>
      <point x="57" y="696"/>
      <point x="65" y="696" type="curve" smooth="yes"/>
      <point x="68" y="696"/>
      <point x="71" y="697"/>
      <point x="74" y="697" type="curve" smooth="yes"/>
      <point x="107" y="699" type="line" smooth="yes"/>
      <point x="116" y="699"/>
      <point x="125" y="700"/>
      <point x="134" y="700" type="curve" smooth="yes"/>
      <point x="148" y="700"/>
      <point x="160" y="699"/>
      <point x="170" y="696" type="curve"/>
      <point x="182" y="604"/>
      <point x="175" y="518"/>
      <point x="191" y="433" type="curve"/>
      <point x="192" y="433" type="line"/>
      <point x="203" y="430"/>
      <point x="216" y="429"/>
      <point x="231" y="429" type="curve" smooth="yes"/>
      <point x="255" y="429"/>
      <point x="279" y="431"/>
      <point x="300" y="434" type="curve"/>
      <point x="301" y="434" type="line"/>
      <point x="306" y="489"/>
      <point x="308" y="535"/>
      <point x="308" y="584" type="curve" smooth="yes"/>
      <point x="308" y="618"/>
      <point x="307" y="655"/>
      <point x="305" y="695" type="curve"/>
      <point x="332" y="703"/>
      <point x="373" y="707"/>
      <point x="410" y="707" type="curve" smooth="yes"/>
      <point x="421" y="707"/>
      <point x="431" y="707"/>
      <point x="442" y="706" type="curve"/>
    </contour>
  </outline>
</glyph>
<glyph name="L" format="1">
  <advance width="461"/>
  <unicode hex="004C"/>
  <outline>
    <contour>
      <point x="487" y="72" type="line" name="hr01"/>
      <point x="487" y="75"/>
      <point x="486" y="78"/>
      <point x="486" y="82" type="curve" smooth="yes"/>
      <point x="486" y="99"/>
      <point x="489" y="111"/>
      <point x="489" y="144" type="curve"/>
      <point x="482" y="143"/>
      <point x="476" y="143"/>
      <point x="469" y="142" type="curve"/>
      <point x="469" y="164" type="line"/>
      <point x="458" y="163"/>
      <point x="445" y="162"/>
      <point x="428" y="162" type="curve" smooth="yes"/>
      <point x="371" y="162"/>
      <point x="281" y="167"/>
      <point x="230" y="170" type="curve"/>
      <point x="230" y="210" type="line" smooth="yes"/>
      <point x="230" y="327"/>
      <point x="227" y="448"/>
      <point x="227" y="567" type="curve" smooth="yes"/>
      <point x="227" y="606"/>
      <point x="228" y="650"/>
      <point x="229" y="686" type="curve"/>
      <point x="222" y="689"/>
      <point x="216" y="690"/>
      <point x="208" y="693" type="curve"/>
      <point x="208" y="697"/>
      <point x="209" y="702"/>
      <point x="209" y="706" type="curve"/>
      <point x="184" y="717"/>
      <point x="146" y="722"/>
      <point x="113" y="722" type="curve" smooth="yes"/>
      <point x="81" y="722"/>
      <point x="46" y="717"/>
      <point x="29" y="710" type="curve"/>
      <point x="33" y="563"/>
      <point x="33" y="454"/>
      <point x="33" y="349" type="curve" smooth="yes"/>
      <point x="33" y="256"/>
      <point x="33" y="158"/>
      <point x="26" y="17" type="curve"/>
      <point x="26" y="-11" type="line"/>
      <point x="46" y="-11" type="line"/>
      <point x="46" y="-31" type="line"/>
      <point x="114" y="-32"/>
      <point x="177" y="-32"/>
      <point x="224" y="-32" type="curve" smooth="yes"/>
      <point x="358" y="-32"/>
      <point x="408" y="-29"/>
      <point x="433" y="-29" type="curve" smooth="yes"/>
      <point x="440" y="-29"/>
      <point x="445" y="-30"/>
      <point x="450" y="-30" type="curve" smooth="yes"/>
      <point x="479" y="-30"/>
      <point x="489" y="-35"/>
      <point x="489" y="17" type="curve" smooth="yes"/>
      <point x="489" y="30"/>
      <point x="488" y="47"/>
      <point x="487" y="71" type="curve"/>
    </contour>
    <contour>
      <point x="457" y="91" type="curve" smooth="yes"/>
      <point x="458" y="67"/>
      <point x="459" y="50"/>
      <point x="459" y="37" type="curve" smooth="yes"/>
      <point x="459" y="2"/>
      <point x="454" y="0"/>
      <point x="438" y="0" type="curve" smooth="yes" name="hr02"/>
      <point x="431" y="0"/>
      <point x="425" y="1"/>
      <point x="416" y="1" type="curve" smooth="yes"/>
      <point x="393" y="1"/>
      <point x="345" y="-3"/>
      <point x="215" y="-3" type="curve" smooth="yes" name="hr03"/>
      <point x="167" y="-3"/>
      <point x="109" y="-2"/>
      <point x="36" y="-1" type="curve"/>
      <point x="36" y="17" type="line"/>
      <point x="43" y="158"/>
      <point x="43" y="256"/>
      <point x="43" y="349" type="curve" smooth="yes"/>
      <point x="43" y="454"/>
      <point x="42" y="554"/>
      <point x="39" y="703" type="curve"/>
      <point x="52" y="708"/>
      <point x="82" y="712"/>
      <point x="113" y="712" type="curve" smooth="yes"/>
      <point x="145" y="712"/>
      <point x="180" y="708"/>
      <point x="199" y="700" type="curve"/>
      <point x="198" y="661"/>
      <point x="197" y="621"/>
      <point x="197" y="580" type="curve" smooth="yes"/>
      <point x="197" y="467"/>
      <point x="201" y="349"/>
      <point x="201" y="237" type="curve" smooth="yes"/>
      <point x="201" y="210"/>
      <point x="200" y="186"/>
      <point x="200" y="159" type="curve"/>
      <point x="200" y="158" type="line"/>
      <point x="207" y="159"/>
      <point x="217" y="160"/>
      <point x="230" y="160" type="curve" smooth="yes"/>
      <point x="287" y="160"/>
      <point x="399" y="151"/>
      <point x="444" y="151" type="curve" smooth="yes"/>
      <point x="452" y="151"/>
      <point x="457" y="151"/>
      <point x="459" y="152" type="curve"/>
      <point x="459" y="135"/>
      <point x="456" y="118"/>
      <point x="456" y="101" type="curve" smooth="yes"/>
      <point x="456" y="98"/>
      <point x="457" y="94"/>
    </contour>
  </outline>
</glyph>
<glyph name="P" format="1">
  <advance width="497"/>
  <unicode hex="0050"/>
  <outline>
    <contour>
      <point x="514" y="471" type="line" name="hr01"/>
      <point x="503" y="647"/>
      <point x="341" y="724"/>
      <point x="183" y="724" type="curve" smooth="yes"/>
      <point x="130" y="724"/>
      <point x="74" y="716"/>
      <point x="27" y="703" type="curve"/>
      <point x="30" y="628"/>
      <point x="30" y="541"/>
      <point x="30" y="460" type="curve" smooth="yes" name="hr02"/>
      <point x="30" y="339" type="line" smooth="yes"/>
      <point x="30" y="218"/>
      <point x="30" y="94"/>
      <point x="34" y="-3" type="curve"/>
      <point x="47" y="-3"/>
      <point x="54" y="-2"/>
      <point x="54" y="-23" type="curve"/>
      <point x="79" y="-26"/>
      <point x="113" y="-28"/>
      <point x="141" y="-28" type="curve" smooth="yes"/>
      <point x="185" y="-28"/>
      <point x="228" y="-19"/>
      <point x="244" y="-19" type="curve" name="hr03"/>
      <point x="241" y="93"/>
      <point x="241" y="156"/>
      <point x="241" y="189" type="curve" smooth="yes"/>
      <point x="241" y="231" type="line"/>
      <point x="249" y="230"/>
      <point x="257" y="230"/>
      <point x="266" y="230" type="curve" smooth="yes"/>
      <point x="393" y="230"/>
      <point x="514" y="338"/>
      <point x="514" y="470" type="curve"/>
    </contour>
    <contour>
      <point x="484" y="476" type="line" smooth="yes"/>
      <point x="484" y="355"/>
      <point x="358" y="260"/>
      <point x="246" y="260" type="curve" smooth="yes"/>
      <point x="234" y="260"/>
      <point x="222" y="261"/>
      <point x="210" y="263" type="curve"/>
      <point x="211" y="254"/>
      <point x="211" y="244"/>
      <point x="211" y="235" type="curve" smooth="yes"/>
      <point x="211" y="196" type="line" smooth="yes"/>
      <point x="211" y="163"/>
      <point x="211" y="109"/>
      <point x="214" y="12" type="curve"/>
      <point x="211" y="10" type="line"/>
      <point x="190" y="3"/>
      <point x="156" y="2"/>
      <point x="121" y="2" type="curve" smooth="yes"/>
      <point x="92" y="2"/>
      <point x="64" y="3"/>
      <point x="44" y="6" type="curve"/>
      <point x="42" y="55"/>
      <point x="41" y="107"/>
      <point x="41" y="164" type="curve" smooth="yes"/>
      <point x="41" y="340" type="line" smooth="yes"/>
      <point x="41" y="461"/>
      <point x="41" y="583"/>
      <point x="37" y="695" type="curve"/>
      <point x="80" y="706"/>
      <point x="131" y="714"/>
      <point x="182" y="714" type="curve" smooth="yes"/>
      <point x="325" y="714"/>
      <point x="476" y="658"/>
      <point x="484" y="491" type="curve"/>
    </contour>
    <contour>
      <point x="309" y="533" type="curve"/>
      <point x="286" y="552"/>
      <point x="256" y="561"/>
      <point x="225" y="561" type="curve" smooth="yes"/>
      <point x="214" y="561"/>
      <point x="188" y="560"/>
      <point x="183" y="555" type="curve" name="hr04"/>
      <point x="186" y="508"/>
      <point x="179" y="444"/>
      <point x="192" y="405" type="curve"/>
      <point x="195" y="405" type="line" smooth="yes"/>
      <point x="246" y="408"/>
      <point x="340" y="399"/>
      <point x="340" y="475" type="curve" smooth="yes"/>
      <point x="340" y="498"/>
      <point x="330" y="520"/>
    </contour>
    <contour>
      <point x="330" y="476" type="curve" smooth="yes" name="hr05"/>
      <point x="330" y="420"/>
      <point x="268" y="416"/>
      <point x="221" y="416" type="curve" smooth="yes"/>
      <point x="216" y="416" type="line"/>
      <point x="213" y="428"/>
      <point x="214" y="440"/>
      <point x="214" y="455" type="curve" smooth="yes"/>
      <point x="214" y="484" type="line" smooth="yes"/>
      <point x="214" y="499"/>
      <point x="214" y="512"/>
      <point x="213" y="527" type="curve"/>
      <point x="223" y="530"/>
      <point x="234" y="531"/>
      <point x="245" y="531" type="curve" smooth="yes"/>
      <point x="281" y="531"/>
      <point x="330" y="519"/>
    </contour>
  </outline>
</glyph>
<glyph name="W" format="1">
  <advance width="465"/>
  <unicode hex="0057"/>
  <outline>
    <contour>
      <point x="469" y="687" type="line" name="hr01"/>
      <point x="464" y="687"/>
      <point x="460" y="688"/>
      <point x="455" y="688" type="curve"/>
      <point x="455" y="691"/>
      <point x="456" y="692"/>
      <point x="456" y="695" type="curve"/>
      <point x="449" y="707" type="line"/>
      <point x="427" y="709"/>
      <point x="403" y="710"/>
      <point x="378" y="710" type="curve" smooth="yes"/>
      <point x="354" y="710"/>
      <point x="329" y="709"/>
      <point x="298" y="702" type="curve"/>
      <point x="290" y="613"/>
      <point x="288" y="474"/>
      <point x="285" y="375" type="curve"/>
      <point x="276" y="414"/>
      <point x="268" y="445"/>
      <point x="253" y="456" type="curve"/>
      <point x="249" y="452" type="line"/>
      <point x="244" y="463"/>
      <point x="238" y="471"/>
      <point x="233" y="476" type="curve"/>
      <point x="213" y="456"/>
      <point x="205" y="400"/>
      <point x="202" y="375" type="curve"/>
      <point x="199" y="403"/>
      <point x="200" y="431"/>
      <point x="200" y="462" type="curve" smooth="yes"/>
      <point x="200" y="521" type="line" smooth="yes"/>
      <point x="200" y="577"/>
      <point x="200" y="632"/>
      <point x="195" y="688" type="curve"/>
      <point x="187" y="688"/>
      <point x="175" y="682"/>
      <point x="175" y="708" type="curve"/>
      <point x="150" y="708"/>
      <point x="119" y="711"/>
      <point x="88" y="711" type="curve" smooth="yes" name="hr02"/>
      <point x="62" y="711"/>
      <point x="37" y="709"/>
      <point x="13" y="705" type="curve"/>
      <point x="16" y="501"/>
      <point x="47" y="277"/>
      <point x="74" y="87" type="curve" smooth="yes"/>
      <point x="87" y="-4" type="line"/>
      <point x="94" y="-5"/>
      <point x="99" y="-6"/>
      <point x="104" y="-6" type="curve"/>
      <point x="107" y="-24" type="line"/>
      <point x="128" y="-27"/>
      <point x="143" y="-28"/>
      <point x="155" y="-28" type="curve" smooth="yes" name="hr03"/>
      <point x="174" y="-28"/>
      <point x="188" y="-26"/>
      <point x="209" y="-22" type="curve"/>
      <point x="233" y="17"/>
      <point x="237" y="71"/>
      <point x="250" y="116" type="curve"/>
      <point x="262" y="73"/>
      <point x="270" y="24"/>
      <point x="293" y="-7" type="curve"/>
      <point x="301" y="-7" type="line"/>
      <point x="305" y="-14"/>
      <point x="308" y="-20"/>
      <point x="313" y="-27" type="curve" name="hr04"/>
      <point x="374" y="-27" type="line" smooth="yes"/>
      <point x="385" y="-27"/>
      <point x="394" y="-27"/>
      <point x="409" y="-23" type="curve"/>
      <point x="428" y="217"/>
      <point x="457" y="447"/>
      <point x="476" y="675" type="curve"/>
    </contour>
    <contour>
      <point x="446" y="696" type="line"/>
      <point x="426" y="464"/>
      <point x="399" y="238"/>
      <point x="380" y="5" type="curve"/>
      <point x="375" y="4"/>
      <point x="371" y="3"/>
      <point x="364" y="3" type="curve" smooth="yes" name="hr05"/>
      <point x="298" y="3" type="line"/>
      <point x="275" y="34"/>
      <point x="263" y="136"/>
      <point x="239" y="173" type="curve"/>
      <point x="238" y="173" type="line"/>
      <point x="214" y="149"/>
      <point x="205" y="41"/>
      <point x="184" y="7" type="curve"/>
      <point x="167" y="4"/>
      <point x="154" y="2"/>
      <point x="135" y="2" type="curve" smooth="yes"/>
      <point x="124" y="2"/>
      <point x="112" y="3"/>
      <point x="97" y="5" type="curve"/>
      <point x="96" y="5" type="line"/>
      <point x="64" y="234"/>
      <point x="27" y="463"/>
      <point x="23" y="695" type="curve"/>
      <point x="23" y="696" type="line"/>
      <point x="43" y="699"/>
      <point x="65" y="701"/>
      <point x="88" y="701" type="curve" smooth="yes"/>
      <point x="115" y="701"/>
      <point x="142" y="699"/>
      <point x="166" y="698" type="curve"/>
      <point x="169" y="669"/>
      <point x="170" y="636"/>
      <point x="170" y="599" type="curve" smooth="yes"/>
      <point x="170" y="488" type="line" smooth="yes"/>
      <point x="170" y="412"/>
      <point x="172" y="338"/>
      <point x="187" y="281" type="curve"/>
      <point x="204" y="341"/>
      <point x="217" y="398"/>
      <point x="232" y="458" type="curve" smooth="yes"/>
      <point x="233" y="461"/>
      <point x="233" y="462"/>
      <point x="234" y="463" type="curve"/>
      <point x="245" y="454"/>
      <point x="273" y="307"/>
      <point x="289" y="268" type="curve"/>
      <point x="300" y="383"/>
      <point x="296" y="576"/>
      <point x="307" y="693" type="curve"/>
      <point x="307" y="694" type="line"/>
      <point x="330" y="699"/>
      <point x="354" y="700"/>
      <point x="378" y="700" type="curve" smooth="yes"/>
      <point x="401" y="700"/>
      <point x="423" y="699"/>
      <point x="445" y="697" type="curve"/>
    </contour>
  </outline>
</glyph>
<glyph name="b" format="1">
  <advance width="464"/>
  <unicode hex="0062"/>
  <outline>
    <contour>
      <point x="197" y="683" type="line" smooth="yes" name="hr01"/>
      <point x="197" y="686"/>
      <point x="190" y="689"/>
      <point x="177" y="692" type="curve"/>
      <point x="177" y="703" type="line" smooth="yes"/>
      <point x="177" y="710"/>
      <point x="139" y="718"/>
      <point x="99" y="718" type="curve" smooth="yes"/>
      <point x="76" y="718"/>
      <point x="52" y="717"/>
      <point x="31" y="713" type="curve"/>
      <point x="31" y="638" type="line" smooth="yes"/>
      <point x="31" y="459"/>
      <point x="24" y="282"/>
      <point x="24" y="122" type="curve" smooth="yes"/>
      <point x="24" y="81"/>
      <point x="24" y="30"/>
      <point x="25" y="-9" type="curve"/>
      <point x="44" y="-9" type="line"/>
      <point x="44" y="-16"/>
      <point x="45" y="-22"/>
      <point x="45" y="-29" type="curve"/>
      <point x="76" y="-29"/>
      <point x="108" y="-31"/>
      <point x="139" y="-31" type="curve" smooth="yes"/>
      <point x="168" y="-31"/>
      <point x="201" y="-36"/>
      <point x="201" y="-11" type="curve" smooth="yes"/>
      <point x="201" y="8" type="line"/>
      <point x="220" y="-19"/>
      <point x="247" y="-28"/>
      <point x="278" y="-28" type="curve" smooth="yes"/>
      <point x="451" y="-28"/>
      <point x="468" y="128"/>
      <point x="473" y="265" type="curve"/>
      <point x="473" y="429"/>
      <point x="404" y="512"/>
      <point x="272" y="512" type="curve" smooth="yes" name="hr02"/>
      <point x="245" y="512"/>
      <point x="221" y="509"/>
      <point x="200" y="502" type="curve" name="hr03"/>
      <point x="201" y="542"/>
      <point x="202" y="558"/>
      <point x="202" y="577" type="curve" smooth="yes"/>
      <point x="202" y="623"/>
      <point x="200" y="620"/>
      <point x="197" y="672" type="curve"/>
    </contour>
    <contour>
      <point x="167" y="692" type="line" smooth="yes"/>
      <point x="170" y="639"/>
      <point x="171" y="645"/>
      <point x="171" y="597" type="curve" smooth="yes"/>
      <point x="171" y="551" type="line" smooth="yes"/>
      <point x="171" y="532"/>
      <point x="171" y="506"/>
      <point x="170" y="475" type="curve"/>
      <point x="172" y="490"/>
      <point x="221" y="502"/>
      <point x="272" y="502" type="curve" smooth="yes"/>
      <point x="303" y="502"/>
      <point x="335" y="499"/>
      <point x="362" y="488" type="curve"/>
      <point x="421" y="467"/>
      <point x="443" y="378"/>
      <point x="443" y="285" type="curve"/>
      <point x="438" y="147"/>
      <point x="427" y="2"/>
      <point x="256" y="2" type="curve" smooth="yes"/>
      <point x="225" y="2"/>
      <point x="198" y="13"/>
      <point x="182" y="46" type="curve" smooth="yes"/>
      <point x="180" y="49"/>
      <point x="179" y="50"/>
      <point x="178" y="50" type="curve" smooth="yes"/>
      <point x="170" y="50"/>
      <point x="171" y="19"/>
      <point x="171" y="9" type="curve" smooth="yes"/>
      <point x="171" y="-4"/>
      <point x="135" y="-1"/>
      <point x="119" y="-1" type="curve" smooth="yes"/>
      <point x="90" y="-1"/>
      <point x="60" y="1"/>
      <point x="35" y="1" type="curve"/>
      <point x="34" y="36"/>
      <point x="34" y="72"/>
      <point x="34" y="111" type="curve" smooth="yes"/>
      <point x="34" y="278"/>
      <point x="41" y="455"/>
      <point x="41" y="638" type="curve" smooth="yes"/>
      <point x="41" y="704" type="line"/>
      <point x="57" y="707"/>
      <point x="78" y="708"/>
      <point x="99" y="708" type="curve" smooth="yes"/>
      <point x="134" y="708"/>
      <point x="167" y="706"/>
      <point x="167" y="703" type="curve" smooth="yes"/>
    </contour>
    <contour>
      <point x="322" y="315" type="curve"/>
      <point x="315" y="362"/>
      <point x="283" y="386"/>
      <point x="227" y="386" type="curve" smooth="yes"/>
      <point x="170" y="386"/>
      <point x="166" y="374"/>
      <point x="166" y="271" type="curve" smooth="yes"/>
      <point x="166" y="187"/>
      <point x="170" y="126"/>
      <point x="238" y="126" type="curve" smooth="yes"/>
      <point x="295" y="126"/>
      <point x="329" y="190"/>
      <point x="329" y="257" type="curve" smooth="yes" name="hr04"/>
      <point x="329" y="276"/>
      <point x="329" y="296"/>
    </contour>
    <contour>
      <point x="313" y="312" type="line" smooth="yes"/>
      <point x="320" y="296"/>
      <point x="319" y="276"/>
      <point x="319" y="257" type="curve" smooth="yes" name="hr05"/>
      <point x="319" y="195"/>
      <point x="289" y="136"/>
      <point x="238" y="136" type="curve" smooth="yes"/>
      <point x="191" y="136"/>
      <point x="196" y="191"/>
      <point x="196" y="251" type="curve" smooth="yes"/>
      <point x="196" y="345"/>
      <point x="199" y="356"/>
      <point x="247" y="356" type="curve" smooth="yes"/>
      <point x="284" y="356"/>
      <point x="305" y="350"/>
      <point x="312" y="314" type="curve" smooth="yes"/>
    </contour>
  </outline>
</glyph>
<glyph name="e" format="1">
  <advance width="444"/>
  <unicode hex="0065"/>
  <outline>
    <contour>
      <point x="186" y="219" type="line" name="hr01"/>
      <point x="193" y="218"/>
      <point x="199" y="218"/>
      <point x="208" y="218" type="curve" smooth="yes"/>
      <point x="280" y="218"/>
      <point x="425" y="223"/>
      <point x="453" y="231" type="curve"/>
      <point x="454" y="246"/>
      <point x="456" y="267"/>
      <point x="456" y="282" type="curve" smooth="yes"/>
      <point x="456" y="410"/>
      <point x="383" y="525"/>
      <point x="223" y="525" type="curve" smooth="yes"/>
      <point x="143" y="525"/>
      <point x="63" y="493"/>
      <point x="34" y="426" type="curve"/>
      <point x="15" y="375"/>
      <point x="11" y="319"/>
      <point x="11" y="267" type="curve" smooth="yes"/>
      <point x="11" y="166"/>
      <point x="36" y="58"/>
      <point x="101" y="4" type="curve"/>
      <point x="143" y="-46"/>
      <point x="205" y="-43"/>
      <point x="281" y="-43" type="curve" smooth="yes"/>
      <point x="381" y="-43"/>
      <point x="452" y="-34"/>
      <point x="452" y="178" type="curve"/>
      <point x="431" y="181" type="line"/>
      <point x="431" y="188"/>
      <point x="432" y="195"/>
      <point x="432" y="198" type="curve"/>
      <point x="415" y="201"/>
      <point x="400" y="203"/>
      <point x="387" y="203" type="curve" smooth="yes" name="hr02"/>
      <point x="364" y="203"/>
      <point x="341" y="201"/>
      <point x="318" y="201" type="curve" smooth="yes"/>
      <point x="307" y="201"/>
      <point x="296" y="202"/>
      <point x="285" y="203" type="curve"/>
      <point x="285" y="193" type="line" smooth="yes" name="hr03"/>
      <point x="285" y="137"/>
      <point x="261" y="115"/>
      <point x="236" y="115" type="curve" smooth="yes"/>
      <point x="223" y="115"/>
      <point x="213" y="117"/>
      <point x="204" y="122" type="curve"/>
      <point x="204" y="124" type="line"/>
      <point x="188" y="151"/>
      <point x="186" y="170"/>
      <point x="186" y="202" type="curve" smooth="yes"/>
    </contour>
    <contour>
      <point x="156" y="233" type="line" smooth="yes" name="hr04"/>
      <point x="158" y="148"/>
      <point x="185" y="105"/>
      <point x="236" y="105" type="curve" smooth="yes"/>
      <point x="267" y="105"/>
      <point x="296" y="128"/>
      <point x="296" y="184" type="curve" smooth="yes"/>
      <point x="296" y="192" type="line"/>
      <point x="299" y="191"/>
      <point x="304" y="191"/>
      <point x="311" y="191" type="curve" smooth="yes"/>
      <point x="331" y="191"/>
      <point x="359" y="193"/>
      <point x="383" y="193" type="curve" smooth="yes" name="hr05"/>
      <point x="399" y="193"/>
      <point x="412" y="192"/>
      <point x="422" y="190" type="curve"/>
      <point x="417" y="122"/>
      <point x="413" y="50"/>
      <point x="394" y="34" type="curve"/>
      <point x="366" y="-6"/>
      <point x="314" y="-13"/>
      <point x="261" y="-13" type="curve" smooth="yes"/>
      <point x="226" y="-13"/>
      <point x="193" y="-10"/>
      <point x="164" y="-10" type="curve"/>
      <point x="57" y="6"/>
      <point x="20" y="135"/>
      <point x="20" y="257" type="curve" smooth="yes"/>
      <point x="20" y="313"/>
      <point x="24" y="372"/>
      <point x="43" y="423" type="curve"/>
      <point x="69" y="483"/>
      <point x="146" y="515"/>
      <point x="223" y="515" type="curve" smooth="yes"/>
      <point x="386" y="515"/>
      <point x="426" y="420"/>
      <point x="426" y="302" type="curve" smooth="yes"/>
      <point x="426" y="287"/>
      <point x="425" y="274"/>
      <point x="424" y="259" type="curve"/>
      <point x="403" y="254"/>
      <point x="299" y="248"/>
      <point x="225" y="248" type="curve" smooth="yes"/>
      <point x="194" y="248"/>
      <point x="168" y="248"/>
      <point x="156" y="251" type="curve"/>
    </contour>
    <contour>
      <point x="277" y="406" type="curve"/>
      <point x="266" y="413"/>
      <point x="257" y="416"/>
      <point x="242" y="416" type="curve" smooth="yes"/>
      <point x="175" y="416"/>
      <point x="157" y="380"/>
      <point x="157" y="339" type="curve" smooth="yes" name="hr06"/>
      <point x="157" y="330"/>
      <point x="163" y="328"/>
      <point x="188" y="328" type="curve" smooth="yes" name="hr07"/>
      <point x="203" y="328"/>
      <point x="222" y="329"/>
      <point x="253" y="329" type="curve" smooth="yes"/>
      <point x="284" y="329"/>
      <point x="301" y="327"/>
      <point x="309" y="327" type="curve" smooth="yes"/>
      <point x="314" y="327"/>
      <point x="316" y="328"/>
      <point x="316" y="330" type="curve" smooth="yes"/>
      <point x="316" y="341" type="line" smooth="yes"/>
      <point x="316" y="368"/>
      <point x="301" y="394"/>
    </contour>
    <contour>
      <point x="293" y="377" type="line" smooth="yes"/>
      <point x="302" y="368"/>
      <point x="306" y="354"/>
      <point x="306" y="341" type="curve" smooth="yes"/>
      <point x="306" y="337" type="line"/>
      <point x="296" y="338" type="line" smooth="yes"/>
      <point x="287" y="338"/>
      <point x="273" y="339"/>
      <point x="253" y="339" type="curve" smooth="yes" name="hr08"/>
      <point x="209" y="339" type="line" smooth="yes"/>
      <point x="201" y="339"/>
      <point x="197" y="338"/>
      <point x="190" y="338" type="curve"/>
      <point x="197" y="366"/>
      <point x="211" y="386"/>
      <point x="262" y="386" type="curve" smooth="yes"/>
      <point x="274" y="386"/>
      <point x="284" y="383"/>
      <point x="292" y="378" type="curve" smooth="yes"/>
    </contour>
  </outline>
</glyph>
<glyph name="g" format="1">
  <advance width="467"/>
  <unicode hex="0067"/>
  <outline>
    <contour>
      <point x="439" y="509" type="curve" name="hr01"/>
      <point x="408" y="509"/>
      <point x="380" y="511"/>
      <point x="353" y="511" type="curve" smooth="yes"/>
      <point x="336" y="511"/>
      <point x="315" y="510"/>
      <point x="288" y="507" type="curve"/>
      <point x="283" y="498"/>
      <point x="281" y="487"/>
      <point x="281" y="476" type="curve"/>
      <point x="258" y="499"/>
      <point x="220" y="507"/>
      <point x="188" y="507" type="curve"/>
      <point x="15" y="491"/>
      <point x="12" y="305"/>
      <point x="12" y="177" type="curve"/>
      <point x="15" y="134"/>
      <point x="22" y="93"/>
      <point x="41" y="56" type="curve"/>
      <point x="41" y="57" type="line"/>
      <point x="57" y="17"/>
      <point x="105" y="-16"/>
      <point x="150" y="-27" type="curve" smooth="yes"/>
      <point x="135" y="-24"/>
      <point x="115" y="-25"/>
      <point x="99" y="-25" type="curve" smooth="yes"/>
      <point x="76" y="-25"/>
      <point x="53" y="-28"/>
      <point x="36" y="-35" type="curve"/>
      <point x="35" y="-40"/>
      <point x="35" y="-45"/>
      <point x="35" y="-52" type="curve" smooth="yes"/>
      <point x="35" y="-77"/>
      <point x="40" y="-113"/>
      <point x="51" y="-129" type="curve" smooth="yes"/>
      <point x="115" y="-225"/>
      <point x="199" y="-232"/>
      <point x="305" y="-232" type="curve" smooth="yes"/>
      <point x="315" y="-232"/>
      <point x="323" y="-231"/>
      <point x="330" y="-230" type="curve" smooth="yes"/>
      <point x="362" y="-227"/>
      <point x="458" y="-208"/>
      <point x="458" y="-87" type="curve" smooth="yes"/>
      <point x="458" y="-63" type="line"/>
      <point x="462" y="29"/>
      <point x="463" y="119"/>
      <point x="463" y="207" type="curve" smooth="yes"/>
      <point x="463" y="302"/>
      <point x="462" y="401"/>
      <point x="459" y="489" type="curve"/>
      <point x="440" y="489" type="line"/>
      <point x="440" y="496"/>
      <point x="439" y="502"/>
    </contour>
    <contour>
      <point x="308" y="-200" type="curve"/>
      <point x="305" y="-201"/>
      <point x="299" y="-201"/>
      <point x="288" y="-201" type="curve" smooth="yes"/>
      <point x="269" y="-201"/>
      <point x="242" y="-200"/>
      <point x="205" y="-200" type="curve" smooth="yes"/>
      <point x="117" y="-200"/>
      <point x="44" y="-144"/>
      <point x="44" y="-52" type="curve" smooth="yes"/>
      <point x="44" y="-35"/>
      <point x="72" y="-36"/>
      <point x="99" y="-36" type="curve" smooth="yes"/>
      <point x="126" y="-36"/>
      <point x="156" y="-38"/>
      <point x="173" y="-41" type="curve"/>
      <point x="173" y="-80"/>
      <point x="202" y="-100"/>
      <point x="233" y="-100" type="curve" smooth="yes" name="hr02"/>
      <point x="269" y="-100"/>
      <point x="294" y="-75"/>
      <point x="294" y="-18" type="curve" smooth="yes"/>
      <point x="294" y="-10"/>
      <point x="293" y="-3"/>
      <point x="293" y="6" type="curve" smooth="yes"/>
      <point x="293" y="13"/>
      <point x="293" y="17"/>
      <point x="294" y="24" type="curve"/>
      <point x="268" y="-5"/>
      <point x="218" y="1"/>
      <point x="180" y="-2" type="curve"/>
      <point x="128" y="-2"/>
      <point x="75" y="10"/>
      <point x="50" y="61" type="curve" smooth="yes"/>
      <point x="31" y="98"/>
      <point x="25" y="135"/>
      <point x="22" y="178" type="curve"/>
      <point x="22" y="302"/>
      <point x="17" y="497"/>
      <point x="201" y="497" type="curve" smooth="yes"/>
      <point x="240" y="497"/>
      <point x="273" y="483"/>
      <point x="288" y="450" type="curve" smooth="yes" name="hr03"/>
      <point x="289" y="449"/>
      <point x="289" y="449"/>
      <point x="290" y="449" type="curve" smooth="yes"/>
      <point x="291" y="449"/>
      <point x="292" y="452"/>
      <point x="292" y="458" type="curve" smooth="yes"/>
      <point x="292" y="467" type="line"/>
      <point x="291" y="484" type="line"/>
      <point x="291" y="505"/>
      <point x="328" y="500"/>
      <point x="345" y="500" type="curve" smooth="yes"/>
      <point x="373" y="500"/>
      <point x="401" y="499"/>
      <point x="429" y="499" type="curve"/>
      <point x="432" y="411"/>
      <point x="433" y="322"/>
      <point x="433" y="227" type="curve" smooth="yes" name="hr04"/>
      <point x="433" y="135"/>
      <point x="428" y="43"/>
      <point x="428" y="-53" type="curve" smooth="yes"/>
      <point x="428" y="-81" type="line" smooth="yes"/>
      <point x="428" y="-182"/>
      <point x="333" y="-197"/>
    </contour>
    <contour>
      <point x="135" y="228" type="line" smooth="yes"/>
      <point x="135" y="167"/>
      <point x="169" y="112"/>
      <point x="233" y="112" type="curve" smooth="yes"/>
      <point x="289" y="112"/>
      <point x="293" y="141"/>
      <point x="298" y="179" type="curve"/>
      <point x="298" y="247"/>
      <point x="310" y="374"/>
      <point x="228" y="374" type="curve" smooth="yes"/>
      <point x="170" y="374"/>
      <point x="135" y="309"/>
      <point x="135" y="256" type="curve" smooth="yes"/>
    </contour>
    <contour>
      <point x="165" y="225" type="line" smooth="yes"/>
      <point x="165" y="269"/>
      <point x="178" y="299"/>
      <point x="205" y="330" type="curve"/>
      <point x="203" y="329" type="line" smooth="yes"/>
      <point x="215" y="340"/>
      <point x="232" y="344"/>
      <point x="248" y="344" type="curve" smooth="yes"/>
      <point x="258" y="344"/>
      <point x="267" y="342"/>
      <point x="275" y="338" type="curve"/>
      <point x="285" y="296"/>
      <point x="288" y="224"/>
      <point x="288" y="180" type="curve" name="hr05"/>
      <point x="283" y="143"/>
      <point x="281" y="123"/>
      <point x="234" y="123" type="curve" smooth="yes"/>
      <point x="175" y="123"/>
      <point x="165" y="166"/>
      <point x="165" y="208" type="curve" smooth="yes"/>
    </contour>
    <contour>
      <point x="283" y="-40" type="curve" smooth="yes"/>
      <point x="283" y="-72"/>
      <point x="253" y="-90"/>
      <point x="233" y="-90" type="curve" smooth="yes"/>
      <point x="208" y="-90"/>
      <point x="203" y="-76"/>
      <point x="203" y="-52" type="curve"/>
      <point x="198" y="-51"/>
      <point x="192" y="-50"/>
      <point x="185" y="-49" type="curve"/>
      <point x="182" y="-44"/>
      <point x="184" y="-31"/>
      <point x="180" y="-31" type="curve" smooth="yes"/>
      <point x="187" y="-32"/>
      <point x="194" y="-32"/>
      <point x="201" y="-32" type="curve"/>
      <point x="228" y="-29"/>
      <point x="257" y="-33"/>
      <point x="284" y="-24" type="curve"/>
      <point x="284" y="-29"/>
      <point x="283" y="-35"/>
    </contour>
  </outline>
</glyph>
<glyph name="j" format="1">
  <advance width="204"/>
  <unicode hex="006A"/>
  <outline>
    <contour>
      <point x="28" y="364" type="line" name="hr01"/>
      <point x="23" y="259"/>
      <point x="27" y="103"/>
      <point x="24" y="-8" type="curve"/>
      <point x="3" y="-34"/>
      <point x="-56" y="-42"/>
      <point x="-102" y="-42" type="curve" smooth="yes"/>
      <point x="-113" y="-42"/>
      <point x="-122" y="-42"/>
      <point x="-130" y="-41" type="curve"/>
      <point x="-130" y="-62"/>
      <point x="-137" y="-98"/>
      <point x="-137" y="-133" type="curve" smooth="yes"/>
      <point x="-137" y="-149"/>
      <point x="-140" y="-198"/>
      <point x="-113" y="-198" type="curve"/>
      <point x="-108" y="-226"/>
      <point x="-84" y="-218"/>
      <point x="-60" y="-218" type="curve" smooth="yes"/>
      <point x="39" y="-218"/>
      <point x="152" y="-198"/>
      <point x="184" y="-120" type="curve"/>
      <point x="197" y="-40"/>
      <point x="199" y="29"/>
      <point x="199" y="104" type="curve" smooth="yes"/>
      <point x="199" y="244" type="line"/>
      <point x="198" y="253"/>
      <point x="198" y="265"/>
      <point x="198" y="278" type="curve" smooth="yes"/>
      <point x="198" y="315"/>
      <point x="200" y="363"/>
      <point x="200" y="408" type="curve" smooth="yes"/>
      <point x="200" y="435"/>
      <point x="199" y="462"/>
      <point x="196" y="489" type="curve"/>
      <point x="189" y="489"/>
      <point x="185" y="490"/>
      <point x="178" y="490" type="curve"/>
      <point x="173" y="517"/>
      <point x="162" y="511"/>
      <point x="143" y="511" type="curve" smooth="yes"/>
      <point x="114" y="511"/>
      <point x="90" y="505"/>
      <point x="59" y="505" type="curve" smooth="yes"/>
      <point x="49" y="505"/>
      <point x="39" y="506"/>
      <point x="28" y="508" type="curve"/>
    </contour>
    <contour>
      <point x="38" y="497" type="line"/>
      <point x="45" y="496"/>
      <point x="52" y="496"/>
      <point x="60" y="496" type="curve" smooth="yes"/>
      <point x="91" y="496"/>
      <point x="121" y="501"/>
      <point x="148" y="501" type="curve" smooth="yes"/>
      <point x="155" y="501"/>
      <point x="160" y="501"/>
      <point x="167" y="500" type="curve"/>
      <point x="169" y="481"/>
      <point x="170" y="458"/>
      <point x="170" y="433" type="curve" smooth="yes"/>
      <point x="170" y="388"/>
      <point x="168" y="339"/>
      <point x="168" y="300" type="curve" smooth="yes"/>
      <point x="168" y="236"/>
      <point x="170" y="185"/>
      <point x="170" y="129" type="curve" smooth="yes"/>
      <point x="170" y="53"/>
      <point x="167" y="-16"/>
      <point x="154" y="-99" type="curve"/>
      <point x="125" y="-170"/>
      <point x="16" y="-188"/>
      <point x="-80" y="-188" type="curve" smooth="yes" name="hr02"/>
      <point x="-95" y="-188"/>
      <point x="-107" y="-188"/>
      <point x="-120" y="-187" type="curve"/>
      <point x="-127" y="-171"/>
      <point x="-128" y="-152"/>
      <point x="-128" y="-133" type="curve" smooth="yes"/>
      <point x="-128" y="-104"/>
      <point x="-123" y="-75"/>
      <point x="-120" y="-52" type="curve"/>
      <point x="-113" y="-53"/>
      <point x="-107" y="-53"/>
      <point x="-99" y="-53" type="curve" smooth="yes"/>
      <point x="-54" y="-53"/>
      <point x="13" y="-44"/>
      <point x="34" y="-12" type="curve"/>
      <point x="35" y="16"/>
      <point x="35" y="46"/>
      <point x="35" y="79" type="curve" smooth="yes"/>
      <point x="35" y="178" type="line" smooth="yes"/>
      <point x="35" y="246"/>
      <point x="35" y="311"/>
      <point x="38" y="363" type="curve"/>
    </contour>
    <contour>
      <point x="22" y="731" type="line"/>
      <point x="22" y="710" type="line" smooth="yes"/>
      <point x="22" y="650"/>
      <point x="26" y="615"/>
      <point x="26" y="572" type="curve"/>
      <point x="33" y="572"/>
      <point x="39" y="573"/>
      <point x="46" y="573" type="curve"/>
      <point x="46" y="552" type="line"/>
      <point x="58" y="553"/>
      <point x="68" y="553"/>
      <point x="79" y="553" type="curve" smooth="yes"/>
      <point x="111" y="553"/>
      <point x="129" y="550"/>
      <point x="152" y="550" type="curve" smooth="yes"/>
      <point x="173" y="550"/>
      <point x="190" y="555"/>
      <point x="198" y="567" type="curve"/>
      <point x="198" y="610"/>
      <point x="195" y="682"/>
      <point x="195" y="708" type="curve"/>
      <point x="175" y="708" type="line"/>
      <point x="175" y="728" type="line"/>
    </contour>
    <contour>
      <point x="165" y="718" type="line"/>
      <point x="165" y="701"/>
      <point x="168" y="630"/>
      <point x="168" y="590" type="curve"/>
      <point x="163" y="582"/>
      <point x="149" y="580"/>
      <point x="130" y="580" type="curve" smooth="yes"/>
      <point x="107" y="580"/>
      <point x="80" y="583"/>
      <point x="53" y="583" type="curve" smooth="yes"/>
      <point x="36" y="583" type="line"/>
      <point x="36" y="618"/>
      <point x="32" y="653"/>
      <point x="32" y="705" type="curve" smooth="yes"/>
      <point x="32" y="721" type="line"/>
    </contour>
  </outline>
</glyph>
<glyph name="k" format="1">
  <advance width="435"/>
  <unicode hex="006B"/>
  <outline>
    <contour>
      <point x="204" y="715" type="line" name="hr01"/>
      <point x="197" y="715"/>
      <point x="191" y="716"/>
      <point x="184" y="716" type="curve"/>
      <point x="184" y="735" type="line"/>
      <point x="165" y="736"/>
      <point x="146" y="738"/>
      <point x="131" y="738" type="curve" smooth="yes"/>
      <point x="96" y="738"/>
      <point x="59" y="736"/>
      <point x="28" y="736" type="curve"/>
      <point x="28" y="564"/>
      <point x="24" y="397"/>
      <point x="24" y="232" type="curve" smooth="yes"/>
      <point x="24" y="155"/>
      <point x="25" y="70"/>
      <point x="28" y="-9" type="curve"/>
      <point x="35" y="-10"/>
      <point x="40" y="-11"/>
      <point x="47" y="-11" type="curve"/>
      <point x="47" y="-38"/>
      <point x="71" y="-32"/>
      <point x="87" y="-32" type="curve" smooth="yes"/>
      <point x="103" y="-32"/>
      <point x="121" y="-31"/>
      <point x="137" y="-30" type="curve"/>
      <point x="136" y="-30" type="line"/>
      <point x="153" y="-30" type="line" smooth="yes"/>
      <point x="168" y="-30"/>
      <point x="183" y="-30"/>
      <point x="198" y="-31" type="curve"/>
      <point x="205" y="4"/>
      <point x="206" y="38"/>
      <point x="206" y="69" type="curve" smooth="yes"/>
      <point x="206" y="89"/>
      <point x="205" y="109"/>
      <point x="205" y="128" type="curve"/>
      <point x="224" y="91"/>
      <point x="237" y="52"/>
      <point x="277" y="-9" type="curve"/>
      <point x="279" y="-9"/>
      <point x="282" y="-10"/>
      <point x="286" y="-11" type="curve"/>
      <point x="299" y="-38"/>
      <point x="325" y="-34"/>
      <point x="356" y="-34" type="curve" smooth="yes"/>
      <point x="399" y="-34"/>
      <point x="443" y="-30"/>
      <point x="479" y="-30" type="curve"/>
      <point x="423" y="83"/>
      <point x="361" y="176"/>
      <point x="301" y="273" type="curve"/>
      <point x="352" y="340"/>
      <point x="404" y="402"/>
      <point x="471" y="506" type="curve"/>
      <point x="458" y="507"/>
      <point x="449" y="507"/>
      <point x="438" y="507" type="curve"/>
      <point x="442" y="514"/>
      <point x="447" y="519"/>
      <point x="451" y="526" type="curve"/>
      <point x="438" y="527"/>
      <point x="427" y="527"/>
      <point x="416" y="527" type="curve" smooth="yes"/>
      <point x="385" y="527"/>
      <point x="356" y="524"/>
      <point x="327" y="524" type="curve" smooth="yes"/>
      <point x="306" y="524"/>
      <point x="287" y="526"/>
      <point x="272" y="531" type="curve"/>
      <point x="239" y="491"/>
      <point x="223" y="458"/>
      <point x="202" y="426" type="curve"/>
      <point x="202" y="445"/>
      <point x="204" y="468"/>
      <point x="204" y="487" type="curve" smooth="yes"/>
    </contour>
    <contour>
      <point x="174" y="507" type="line" smooth="yes"/>
      <point x="174" y="478"/>
      <point x="172" y="443"/>
      <point x="172" y="415" type="curve" smooth="yes" name="hr02"/>
      <point x="172" y="400"/>
      <point x="173" y="388"/>
      <point x="174" y="377" type="curve"/>
      <point x="219" y="417"/>
      <point x="236" y="474"/>
      <point x="276" y="520" type="curve"/>
      <point x="288" y="515"/>
      <point x="306" y="514"/>
      <point x="326" y="514" type="curve" smooth="yes"/>
      <point x="358" y="514"/>
      <point x="393" y="517"/>
      <point x="420" y="517" type="curve" smooth="yes" name="hr03"/>
      <point x="434" y="517" type="line"/>
      <point x="385" y="441"/>
      <point x="325" y="369"/>
      <point x="269" y="293" type="curve"/>
      <point x="329" y="196"/>
      <point x="392" y="104"/>
      <point x="443" y="0" type="curve"/>
      <point x="416" y="0"/>
      <point x="372" y="-4"/>
      <point x="333" y="-4" type="curve" smooth="yes" name="hr04"/>
      <point x="313" y="-4"/>
      <point x="295" y="-3"/>
      <point x="282" y="0" type="curve" name="hr05"/>
      <point x="242" y="64"/>
      <point x="220" y="134"/>
      <point x="174" y="193" type="curve"/>
      <point x="174" y="166"/>
      <point x="176" y="127"/>
      <point x="176" y="88" type="curve" smooth="yes"/>
      <point x="176" y="57"/>
      <point x="175" y="27"/>
      <point x="170" y="0" type="curve"/>
      <point x="165" y="0"/>
      <point x="159" y="1"/>
      <point x="152" y="1" type="curve" smooth="yes"/>
      <point x="129" y="1"/>
      <point x="99" y="-2"/>
      <point x="71" y="-2" type="curve" smooth="yes"/>
      <point x="59" y="-2"/>
      <point x="49" y="-1"/>
      <point x="38" y="0" type="curve"/>
      <point x="35" y="79"/>
      <point x="34" y="155"/>
      <point x="34" y="231" type="curve" smooth="yes"/>
      <point x="34" y="398"/>
      <point x="38" y="559"/>
      <point x="38" y="726" type="curve"/>
      <point x="108" y="727" type="line" smooth="yes"/>
      <point x="120" y="727"/>
      <point x="133" y="728"/>
      <point x="144" y="728" type="curve" smooth="yes"/>
      <point x="155" y="728"/>
      <point x="165" y="727"/>
      <point x="174" y="726" type="curve"/>
    </contour>
  </outline>
</glyph>
<glyph name="o" format="1">
  <advance width="448"/>
  <unicode hex="006F"/>
  <outline>
    <contour>
      <point x="35" y="458" type="line" name="hr01"/>
      <point x="35" y="459"/>
      <point x="36" y="460"/>
      <point x="36" y="461" type="curve"/>
      <point x="36" y="462" type="line"/>
      <point x="35" y="462"/>
      <point x="31" y="449"/>
      <point x="30" y="442" type="curve"/>
      <point x="31" y="442" type="line"/>
      <point x="12" y="395"/>
      <point x="14" y="364"/>
      <point x="14" y="324" type="curve" smooth="yes"/>
      <point x="14" y="311"/>
      <point x="16" y="297"/>
      <point x="16" y="281" type="curve" smooth="yes"/>
      <point x="16" y="270"/>
      <point x="15" y="259"/>
      <point x="15" y="247" type="curve" smooth="yes"/>
      <point x="15" y="211" type="line" smooth="yes"/>
      <point x="15" y="142"/>
      <point x="23" y="73"/>
      <point x="68" y="30" type="curve" smooth="yes"/>
      <point x="77" y="21" type="line" smooth="yes"/>
      <point x="136" y="-40"/>
      <point x="198" y="-41"/>
      <point x="280" y="-41" type="curve" smooth="yes"/>
      <point x="336" y="-41"/>
      <point x="390" y="-32"/>
      <point x="421" y="11" type="curve"/>
      <point x="445" y="38"/>
      <point x="455" y="175"/>
      <point x="455" y="252" type="curve" smooth="yes"/>
      <point x="455" y="339"/>
      <point x="449" y="431"/>
      <point x="409" y="458" type="curve" smooth="yes"/>
      <point x="410" y="457" type="line" smooth="yes"/>
      <point x="402" y="462"/>
      <point x="397" y="470"/>
      <point x="390" y="477" type="curve"/>
      <point x="391" y="477" type="line"/>
      <point x="358" y="509"/>
      <point x="305" y="524"/>
      <point x="257" y="524" type="curve" smooth="yes"/>
      <point x="248" y="524"/>
      <point x="240" y="523"/>
      <point x="233" y="523" type="curve" smooth="yes" name="hr02"/>
      <point x="225" y="523"/>
      <point x="204" y="523"/>
      <point x="196" y="524" type="curve" name="hr03"/>
      <point x="128" y="524"/>
      <point x="57" y="505"/>
      <point x="36" y="460" type="curve" smooth="yes"/>
    </contour>
    <contour>
      <point x="45" y="456" type="curve"/>
      <point x="64" y="496"/>
      <point x="132" y="514"/>
      <point x="195" y="514" type="curve" name="hr04"/>
      <point x="202" y="513"/>
      <point x="208" y="513"/>
      <point x="215" y="513" type="curve" smooth="yes" name="hr05"/>
      <point x="227" y="513"/>
      <point x="240" y="514"/>
      <point x="253" y="514" type="curve" smooth="yes" name="hr06"/>
      <point x="304" y="514"/>
      <point x="352" y="501"/>
      <point x="384" y="470" type="curve"/>
      <point x="422" y="446"/>
      <point x="422" y="359"/>
      <point x="425" y="272" type="curve"/>
      <point x="422" y="194"/>
      <point x="419" y="63"/>
      <point x="393" y="37" type="curve"/>
      <point x="365" y="-3"/>
      <point x="314" y="-10"/>
      <point x="261" y="-10" type="curve" smooth="yes"/>
      <point x="226" y="-10"/>
      <point x="192" y="-7"/>
      <point x="161" y="-7" type="curve"/>
      <point x="49" y="12"/>
      <point x="25" y="108"/>
      <point x="25" y="209" type="curve" smooth="yes"/>
      <point x="25" y="283" type="line" smooth="yes"/>
      <point x="25" y="298"/>
      <point x="24" y="312"/>
      <point x="24" y="325" type="curve" smooth="yes"/>
      <point x="24" y="368"/>
      <point x="30" y="404"/>
    </contour>
    <contour>
      <point x="170" y="338" type="curve"/>
      <point x="151" y="324"/>
      <point x="158" y="233"/>
      <point x="155" y="188" type="curve"/>
      <point x="155" y="147"/>
      <point x="187" y="133"/>
      <point x="223" y="133" type="curve" smooth="yes"/>
      <point x="298" y="133"/>
      <point x="300" y="190"/>
      <point x="300" y="259" type="curve" smooth="yes"/>
      <point x="300" y="323"/>
      <point x="281" y="363"/>
      <point x="230" y="363" type="curve" smooth="yes"/>
      <point x="207" y="363"/>
      <point x="185" y="357"/>
    </contour>
    <contour>
      <point x="198" y="312" type="line" smooth="yes"/>
      <point x="205" y="321"/>
      <point x="215" y="327"/>
      <point x="227" y="330" type="curve"/>
      <point x="226" y="330" type="line"/>
      <point x="234" y="331"/>
      <point x="241" y="332"/>
      <point x="248" y="332" type="curve" smooth="yes" name="hr07"/>
      <point x="291" y="332"/>
      <point x="290" y="292"/>
      <point x="290" y="258" type="curve" smooth="yes"/>
      <point x="290" y="235"/>
      <point x="287" y="210"/>
      <point x="284" y="185" type="curve"/>
      <point x="284" y="149"/>
      <point x="249" y="143"/>
      <point x="223" y="143" type="curve" smooth="yes"/>
      <point x="206" y="143"/>
      <point x="185" y="143"/>
      <point x="185" y="167" type="curve" smooth="yes"/>
      <point x="185" y="185"/>
      <point x="183" y="302"/>
      <point x="196" y="310" type="curve" smooth="yes"/>
    </contour>
  </outline>
</glyph>
<glyph name="u" format="1">
  <advance width="450"/>
  <unicode hex="0075"/>
  <outline>
    <contour>
      <point x="273" y="0" type="curve" name="hr01"/>
      <point x="274" y="-7"/>
      <point x="280" y="-11"/>
      <point x="292" y="-12" type="curve"/>
      <point x="292" y="-28"/>
      <point x="301" y="-32"/>
      <point x="321" y="-32" type="curve" smooth="yes"/>
      <point x="368" y="-32"/>
      <point x="382" y="-26"/>
      <point x="398" y="-26" type="curve" smooth="yes"/>
      <point x="407" y="-26"/>
      <point x="427" y="-28"/>
      <point x="443" y="-29" type="curve"/>
      <point x="444" y="16"/>
      <point x="445" y="71"/>
      <point x="445" y="114" type="curve" smooth="yes"/>
      <point x="445" y="243"/>
      <point x="442" y="366"/>
      <point x="442" y="494" type="curve"/>
      <point x="433" y="493"/>
      <point x="427" y="493"/>
      <point x="422" y="492" type="curve"/>
      <point x="422" y="514" type="line"/>
      <point x="399" y="511"/>
      <point x="391" y="512"/>
      <point x="382" y="512" type="curve" smooth="yes"/>
      <point x="363" y="512"/>
      <point x="350" y="513"/>
      <point x="335" y="513" type="curve" smooth="yes" name="hr02"/>
      <point x="319" y="513"/>
      <point x="303" y="512"/>
      <point x="278" y="505" type="curve"/>
      <point x="278" y="495" type="line"/>
      <point x="274" y="470"/>
      <point x="273" y="440"/>
      <point x="273" y="413" type="curve" smooth="yes"/>
      <point x="273" y="360"/>
      <point x="278" y="310"/>
      <point x="278" y="259" type="curve" smooth="yes"/>
      <point x="278" y="191"/>
      <point x="260" y="174"/>
      <point x="225" y="174" type="curve" smooth="yes"/>
      <point x="218" y="174"/>
      <point x="212" y="175"/>
      <point x="205" y="176" type="curve"/>
      <point x="190" y="212"/>
      <point x="191" y="268"/>
      <point x="191" y="321" type="curve" smooth="yes"/>
      <point x="191" y="371" type="line" smooth="yes"/>
      <point x="191" y="412"/>
      <point x="191" y="461"/>
      <point x="188" y="492" type="curve"/>
      <point x="169" y="492" type="line"/>
      <point x="168" y="499"/>
      <point x="168" y="505"/>
      <point x="168" y="512" type="curve"/>
      <point x="127" y="512" type="line"/>
      <point x="106" y="512" type="line" smooth="yes"/>
      <point x="81" y="512"/>
      <point x="52" y="511"/>
      <point x="24" y="507" type="curve"/>
      <point x="25" y="486"/>
      <point x="26" y="452"/>
      <point x="26" y="425" type="curve" smooth="yes"/>
      <point x="26" y="354"/>
      <point x="22" y="272"/>
      <point x="22" y="197" type="curve" smooth="yes"/>
      <point x="22" y="92"/>
      <point x="31" y="41"/>
      <point x="60" y="18" type="curve"/>
      <point x="76" y="-14"/>
      <point x="131" y="-25"/>
      <point x="167" y="-25" type="curve" smooth="yes"/>
      <point x="203" y="-25"/>
      <point x="241" y="-13"/>
      <point x="272" y="4" type="curve"/>
      <point x="272" y="3"/>
      <point x="273" y="1"/>
    </contour>
    <contour>
      <point x="281" y="54" type="curve"/>
      <point x="236" y="27"/>
      <point x="202" y="5"/>
      <point x="147" y="5" type="curve" smooth="yes" name="hr03"/>
      <point x="114" y="5"/>
      <point x="80" y="13"/>
      <point x="55" y="36" type="curve" smooth="yes"/>
      <point x="36" y="52"/>
      <point x="31" y="120"/>
      <point x="31" y="201" type="curve" smooth="yes"/>
      <point x="31" y="277"/>
      <point x="35" y="363"/>
      <point x="35" y="435" type="curve" smooth="yes"/>
      <point x="35" y="458"/>
      <point x="35" y="479"/>
      <point x="34" y="498" type="curve"/>
      <point x="59" y="502"/>
      <point x="80" y="503"/>
      <point x="101" y="503" type="curve" smooth="yes"/>
      <point x="120" y="503"/>
      <point x="136" y="502"/>
      <point x="159" y="502" type="curve"/>
      <point x="162" y="481"/>
      <point x="161" y="455"/>
      <point x="161" y="427" type="curve" smooth="yes"/>
      <point x="161" y="352" type="line" smooth="yes"/>
      <point x="161" y="323"/>
      <point x="160" y="295"/>
      <point x="163" y="270" type="curve"/>
      <point x="166" y="219"/>
      <point x="165" y="164"/>
      <point x="225" y="164" type="curve" smooth="yes"/>
      <point x="265" y="164"/>
      <point x="288" y="183"/>
      <point x="288" y="262" type="curve" smooth="yes" name="hr04"/>
      <point x="288" y="314"/>
      <point x="283" y="366"/>
      <point x="283" y="417" type="curve" smooth="yes"/>
      <point x="283" y="442"/>
      <point x="284" y="468"/>
      <point x="288" y="493" type="curve" smooth="yes"/>
      <point x="288" y="497" type="line"/>
      <point x="307" y="502"/>
      <point x="319" y="503"/>
      <point x="331" y="503" type="curve" smooth="yes"/>
      <point x="346" y="503"/>
      <point x="360" y="502"/>
      <point x="380" y="502" type="curve" smooth="yes"/>
      <point x="389" y="502"/>
      <point x="400" y="502"/>
      <point x="412" y="503" type="curve"/>
      <point x="412" y="386"/>
      <point x="415" y="274"/>
      <point x="415" y="154" type="curve" smooth="yes"/>
      <point x="415" y="103"/>
      <point x="414" y="54"/>
      <point x="413" y="2" type="curve"/>
      <point x="397" y="3"/>
      <point x="387" y="4"/>
      <point x="378" y="4" type="curve" smooth="yes"/>
      <point x="362" y="4"/>
      <point x="342" y="-3"/>
      <point x="294" y="-3" type="curve" smooth="yes"/>
      <point x="275" y="-3"/>
      <point x="281" y="42"/>
    </contour>
  </outline>
</glyph>
<glyph name="v" format="1">
  <advance width="429"/>
  <unicode hex="0076"/>
  <outline>
    <contour>
      <point x="171" y="487" type="line" name="hr00"/>
      <point x="162" y="487"/>
      <point x="160" y="488"/>
      <point x="160" y="499" type="curve"/>
      <point x="151" y="507" type="line"/>
      <point x="130" y="510"/>
      <point x="106" y="509"/>
      <point x="82" y="509" type="curve"/>
      <point x="70" y="508"/>
      <point x="58" y="508"/>
      <point x="47" y="508" type="curve" smooth="yes"/>
      <point x="36" y="508"/>
      <point x="28" y="508"/>
      <point x="-3" y="513" type="curve"/>
      <point x="42" y="346"/>
      <point x="78" y="162"/>
      <point x="106" y="-13" type="curve"/>
      <point x="123" y="-13" type="line"/>
      <point x="124" y="-20"/>
      <point x="125" y="-26"/>
      <point x="126" y="-33" type="curve"/>
      <point x="163" y="-33"/>
      <point x="208" y="-35"/>
      <point x="251" y="-35" type="curve" smooth="yes"/>
      <point x="278" y="-35"/>
      <point x="307" y="-34"/>
      <point x="331" y="-30" type="curve"/>
      <point x="379" y="141"/>
      <point x="398" y="317"/>
      <point x="462" y="488" type="curve"/>
      <point x="451" y="489"/>
      <point x="442" y="490"/>
      <point x="435" y="490" type="curve"/>
      <point x="438" y="497"/>
      <point x="439" y="501"/>
      <point x="442" y="508" type="curve"/>
      <point x="422" y="511"/>
      <point x="410" y="510"/>
      <point x="399" y="510" type="curve" smooth="yes"/>
      <point x="358" y="510"/>
      <point x="328" y="506"/>
      <point x="287" y="506" type="curve"/>
      <point x="258" y="430"/>
      <point x="242" y="302"/>
      <point x="223" y="219" type="curve"/>
      <point x="207" y="299"/>
      <point x="194" y="409"/>
      <point x="180" y="479" type="curve"/>
    </contour>
    <contour>
      <point x="150" y="497" type="curve"/>
      <point x="169" y="402"/>
      <point x="187" y="234"/>
      <point x="216" y="155" type="curve"/>
      <point x="245" y="234"/>
      <point x="262" y="416"/>
      <point x="294" y="496" type="curve"/>
      <point x="330" y="496"/>
      <point x="358" y="500"/>
      <point x="397" y="500" type="curve" smooth="yes"/>
      <point x="408" y="500"/>
      <point x="417" y="499"/>
      <point x="428" y="499" type="curve"/>
      <point x="372" y="347"/>
      <point x="349" y="168"/>
      <point x="303" y="-1" type="curve"/>
      <point x="282" y="-4"/>
      <point x="256" y="-5"/>
      <point x="229" y="-5" type="curve" smooth="yes"/>
      <point x="188" y="-5"/>
      <point x="146" y="-3"/>
      <point x="115" y="-3" type="curve"/>
      <point x="88" y="165"/>
      <point x="54" y="343"/>
      <point x="11" y="500" type="curve"/>
      <point x="26" y="497"/>
      <point x="38" y="498"/>
      <point x="53" y="498" type="curve" smooth="yes"/>
      <point x="73" y="498"/>
      <point x="92" y="499"/>
      <point x="111" y="499" type="curve" smooth="yes"/>
      <point x="124" y="499"/>
      <point x="137" y="498"/>
    </contour>
  </outline>
</glyph>
<glyph name="x" format="1">
  <advance width="413"/>
  <unicode hex="0078"/>
  <outline>
    <contour>
      <point x="423" y="511" type="curve" name="hr01"/>
      <point x="364" y="511"/>
      <point x="277" y="510"/>
      <point x="245" y="507" type="curve"/>
      <point x="237" y="477"/>
      <point x="222" y="421"/>
      <point x="212" y="382" type="curve"/>
      <point x="204" y="406"/>
      <point x="192" y="458"/>
      <point x="187" y="482" type="curve"/>
      <point x="182" y="487"/>
      <point x="172" y="478"/>
      <point x="167" y="502" type="curve"/>
      <point x="159" y="510"/>
      <point x="99" y="510"/>
      <point x="72" y="510" type="curve" smooth="yes" name="hr02"/>
      <point x="55" y="510"/>
      <point x="20" y="509"/>
      <point x="-11" y="506" type="curve"/>
      <point x="18" y="426"/>
      <point x="57" y="335"/>
      <point x="76" y="247" type="curve"/>
      <point x="55" y="167"/>
      <point x="13" y="68"/>
      <point x="-3" y="-2" type="curve"/>
      <point x="4" y="-5"/>
      <point x="11" y="-7"/>
      <point x="20" y="-8" type="curve"/>
      <point x="19" y="-13"/>
      <point x="18" y="-17"/>
      <point x="17" y="-22" type="curve"/>
      <point x="42" y="-33"/>
      <point x="71" y="-32"/>
      <point x="94" y="-32" type="curve" smooth="yes"/>
      <point x="101" y="-32" type="line" smooth="yes"/>
      <point x="108" y="-32"/>
      <point x="123" y="-31"/>
      <point x="139" y="-31" type="curve" smooth="yes"/>
      <point x="180" y="-31" type="line"/>
      <point x="203" y="13"/>
      <point x="207" y="50"/>
      <point x="218" y="90" type="curve"/>
      <point x="229" y="58"/>
      <point x="233" y="27"/>
      <point x="248" y="-6" type="curve"/>
      <point x="251" y="-7"/>
      <point x="255" y="-7"/>
      <point x="260" y="-8" type="curve"/>
      <point x="263" y="-15"/>
      <point x="265" y="-19"/>
      <point x="268" y="-26" type="curve"/>
      <point x="281" y="-31"/>
      <point x="342" y="-30"/>
      <point x="354" y="-30" type="curve" smooth="yes"/>
      <point x="362" y="-30"/>
      <point x="370" y="-29"/>
      <point x="379" y="-29" type="curve" smooth="yes"/>
      <point x="403" y="-29" type="line" smooth="yes"/>
      <point x="410" y="-29"/>
      <point x="413" y="-29"/>
      <point x="434" y="-32" type="curve"/>
      <point x="411" y="60"/>
      <point x="379" y="134"/>
      <point x="360" y="226" type="curve"/>
      <point x="371" y="286"/>
      <point x="393" y="342"/>
      <point x="412" y="395" type="curve" smooth="yes"/>
      <point x="439" y="470" type="line"/>
      <point x="442" y="471"/>
      <point x="443" y="478"/>
      <point x="443" y="491" type="curve" name="hr03"/>
      <point x="420" y="491" type="line"/>
      <point x="422" y="492"/>
      <point x="423" y="499"/>
    </contour>
    <contour>
      <point x="412" y="500" type="line"/>
      <point x="385" y="416"/>
      <point x="345" y="334"/>
      <point x="330" y="246" type="curve"/>
      <point x="346" y="166"/>
      <point x="382" y="77"/>
      <point x="401" y="0" type="curve"/>
      <point x="399" y="1"/>
      <point x="396" y="1"/>
      <point x="392" y="1" type="curve" smooth="yes" name="hr04"/>
      <point x="383" y="1" type="line" smooth="yes"/>
      <point x="368" y="1"/>
      <point x="350" y="0"/>
      <point x="334" y="0" type="curve" smooth="yes" name="hr05"/>
      <point x="318" y="0" type="line" smooth="yes"/>
      <point x="298" y="0"/>
      <point x="262" y="0"/>
      <point x="256" y="3" type="curve"/>
      <point x="255" y="3" type="line"/>
      <point x="234" y="49"/>
      <point x="228" y="115"/>
      <point x="207" y="161" type="curve"/>
      <point x="207" y="162" type="line"/>
      <point x="183" y="109"/>
      <point x="177" y="47"/>
      <point x="154" y="-1" type="curve"/>
      <point x="140" y="-1" type="line" smooth="yes"/>
      <point x="127" y="-1"/>
      <point x="110" y="-2"/>
      <point x="95" y="-2" type="curve" smooth="yes"/>
      <point x="81" y="-2" type="line" smooth="yes"/>
      <point x="58" y="-2"/>
      <point x="26" y="-3"/>
      <point x="9" y="4" type="curve"/>
      <point x="28" y="74"/>
      <point x="67" y="169"/>
      <point x="86" y="247" type="curve"/>
      <point x="70" y="331"/>
      <point x="33" y="417"/>
      <point x="2" y="497" type="curve"/>
      <point x="32" y="499"/>
      <point x="55" y="500"/>
      <point x="72" y="500" type="curve" smooth="yes"/>
      <point x="123" y="500" type="line" smooth="yes"/>
      <point x="142" y="500"/>
      <point x="157" y="498"/>
      <point x="158" y="497" type="curve"/>
      <point x="169" y="457"/>
      <point x="192" y="362"/>
      <point x="205" y="327" type="curve"/>
      <point x="221" y="365"/>
      <point x="239" y="457"/>
      <point x="253" y="498" type="curve"/>
      <point x="272" y="501"/>
      <point x="321" y="501"/>
      <point x="368" y="501" type="curve" smooth="yes"/>
      <point x="413" y="501" type="line"/>
    </contour>
  </outline>
</glyph>
<glyph name="copyright" format="1">
  <advance width="553"/>
  <unicode hex="00A9"/>
  <outline>
    <contour>
      <point x="536" y="228" type="line" name="hr01"/>
      <point x="539" y="279"/>
      <point x="550" y="328"/>
      <point x="550" y="379" type="curve" smooth="yes" name="hr02"/>
      <point x="550" y="440"/>
      <point x="538" y="494"/>
      <point x="491" y="533" type="curve"/>
      <point x="483" y="544"/>
      <point x="457" y="567"/>
      <point x="452" y="567" type="curve"/>
      <point x="391" y="604"/>
      <point x="343" y="610"/>
      <point x="286" y="610" type="curve" smooth="yes"/>
      <point x="209" y="610"/>
      <point x="122" y="604"/>
      <point x="69" y="538" type="curve"/>
      <point x="24" y="485"/>
      <point x="26" y="419"/>
      <point x="26" y="358" type="curve" smooth="yes"/>
      <point x="26" y="319"/>
      <point x="29" y="282"/>
      <point x="35" y="245" type="curve"/>
      <point x="35" y="246" type="line"/>
      <point x="39" y="207"/>
      <point x="57" y="178"/>
      <point x="86" y="153" type="curve"/>
      <point x="125" y="106"/>
      <point x="188" y="83"/>
      <point x="276" y="83" type="curve"/>
      <point x="378" y="96"/>
      <point x="496" y="88"/>
      <point x="536" y="227" type="curve" name="hr03"/>
    </contour>
    <contour>
      <point x="506" y="249" type="curve"/>
      <point x="471" y="119"/>
      <point x="350" y="121"/>
      <point x="255" y="113" type="curve"/>
      <point x="51" y="113"/>
      <point x="36" y="230"/>
      <point x="36" y="358" type="curve" smooth="yes"/>
      <point x="36" y="387"/>
      <point x="37" y="415"/>
      <point x="40" y="446" type="curve" smooth="yes"/>
      <point x="51" y="580"/>
      <point x="184" y="600"/>
      <point x="286" y="600" type="curve" smooth="yes"/>
      <point x="338" y="600"/>
      <point x="395" y="593"/>
      <point x="444" y="561" type="curve" smooth="yes"/>
      <point x="456" y="553" type="line" smooth="yes"/>
      <point x="507" y="518"/>
      <point x="519" y="461"/>
      <point x="520" y="400" type="curve" smooth="yes" name="hr04"/>
      <point x="520" y="351"/>
      <point x="511" y="298"/>
    </contour>
    <contour>
      <point x="428" y="482" type="curve"/>
      <point x="399" y="516"/>
      <point x="336" y="527"/>
      <point x="272" y="527" type="curve" smooth="yes"/>
      <point x="245" y="527"/>
      <point x="220" y="522"/>
      <point x="193" y="522" type="curve" name="hr05"/>
      <point x="115" y="508"/>
      <point x="109" y="440"/>
      <point x="109" y="376" type="curve" smooth="yes"/>
      <point x="109" y="290"/>
      <point x="100" y="192"/>
      <point x="215" y="184" type="curve"/>
      <point x="259" y="188"/>
      <point x="314" y="186"/>
      <point x="361" y="195" type="curve"/>
      <point x="449" y="208"/>
      <point x="446" y="321"/>
      <point x="446" y="387" type="curve" smooth="yes"/>
      <point x="446" y="416"/>
      <point x="449" y="455"/>
    </contour>
    <contour>
      <point x="248" y="426" type="curve" smooth="yes"/>
      <point x="245" y="423"/>
      <point x="243" y="425"/>
      <point x="243" y="377" type="curve" smooth="yes"/>
      <point x="243" y="342" type="line" smooth="yes"/>
      <point x="243" y="321"/>
      <point x="240" y="275"/>
      <point x="269" y="275" type="curve" smooth="yes" name="hr06"/>
      <point x="301" y="275"/>
      <point x="295" y="302"/>
      <point x="298" y="326" type="curve" name="hr07"/>
      <point x="304" y="326" type="line"/>
      <point x="329" y="326" type="line" smooth="yes"/>
      <point x="357" y="326"/>
      <point x="355" y="314"/>
      <point x="355" y="298" type="curve" smooth="yes"/>
      <point x="355" y="242"/>
      <point x="316" y="211"/>
      <point x="260" y="211" type="curve" smooth="yes"/>
      <point x="191" y="211"/>
      <point x="185" y="246"/>
      <point x="185" y="347" type="curve" smooth="yes"/>
      <point x="185" y="370"/>
      <point x="186" y="393"/>
      <point x="186" y="424" type="curve" smooth="yes"/>
      <point x="186" y="427" type="line" smooth="yes"/>
      <point x="186" y="479"/>
      <point x="228" y="497"/>
      <point x="259" y="497" type="curve" smooth="yes"/>
      <point x="310" y="497"/>
      <point x="356" y="457"/>
      <point x="356" y="406" type="curve" smooth="yes"/>
      <point x="356" y="389"/>
      <point x="358" y="376"/>
      <point x="331" y="376" type="curve" smooth="yes"/>
      <point x="319" y="376"/>
      <point x="308" y="377"/>
      <point x="296" y="380" type="curve"/>
      <point x="293" y="402"/>
      <point x="296" y="433"/>
      <point x="267" y="433" type="curve"/>
      <point x="262" y="430"/>
      <point x="252" y="430"/>
    </contour>
    <contour>
      <point x="285" y="390" type="curve" smooth="yes" name="hr08"/>
      <point x="285" y="354"/>
      <point x="306" y="383"/>
      <point x="306" y="351" type="curve"/>
      <point x="321" y="348"/>
      <point x="335" y="346"/>
      <point x="350" y="346" type="curve" smooth="yes"/>
      <point x="359" y="346"/>
      <point x="369" y="347"/>
      <point x="380" y="349" type="curve"/>
      <point x="384" y="364"/>
      <point x="387" y="375"/>
      <point x="387" y="386" type="curve" smooth="yes"/>
      <point x="387" y="434"/>
      <point x="342" y="478"/>
      <point x="305" y="497" type="curve"/>
      <point x="325" y="496"/>
      <point x="344" y="496"/>
      <point x="365" y="493" type="curve"/>
      <point x="364" y="493" type="line"/>
      <point x="387" y="488"/>
      <point x="409" y="481"/>
      <point x="424" y="470" type="curve"/>
      <point x="435" y="453"/>
      <point x="435" y="435"/>
      <point x="436" y="416" type="curve" smooth="yes"/>
      <point x="436" y="406" type="line"/>
      <point x="436" y="387" type="line" smooth="yes"/>
      <point x="436" y="328"/>
      <point x="439" y="203"/>
      <point x="347" y="203" type="curve"/>
      <point x="370" y="222"/>
      <point x="384" y="251"/>
      <point x="384" y="282" type="curve" smooth="yes"/>
      <point x="384" y="296"/>
      <point x="385" y="315"/>
      <point x="363" y="315" type="curve"/>
      <point x="359" y="339"/>
      <point x="343" y="336"/>
      <point x="324" y="336" type="curve" smooth="yes"/>
      <point x="315" y="336" type="line"/>
      <point x="288" y="336" type="line"/>
      <point x="288" y="321"/>
      <point x="293" y="289"/>
      <point x="274" y="286" type="curve"/>
      <point x="274" y="292" type="line" smooth="yes"/>
      <point x="273" y="301"/>
      <point x="273" y="312"/>
      <point x="273" y="324" type="curve" smooth="yes"/>
      <point x="273" y="351"/>
      <point x="274" y="379"/>
      <point x="275" y="392" type="curve" smooth="yes"/>
      <point x="275" y="398" type="line"/>
      <point x="281" y="400" type="line"/>
      <point x="282" y="400"/>
      <point x="283" y="400"/>
      <point x="284" y="401" type="curve"/>
      <point x="284" y="397"/>
      <point x="285" y="393"/>
    </contour>
    <contour>
      <point x="182" y="453" type="line"/>
      <point x="178" y="445"/>
      <point x="176" y="436"/>
      <point x="176" y="427" type="curve" smooth="yes"/>
      <point x="176" y="423" type="line" smooth="yes"/>
      <point x="176" y="392"/>
      <point x="175" y="369"/>
      <point x="175" y="348" type="curve" smooth="yes"/>
      <point x="175" y="256"/>
      <point x="181" y="219"/>
      <point x="229" y="195" type="curve"/>
      <point x="222" y="194"/>
      <point x="218" y="194"/>
      <point x="214" y="194" type="curve" smooth="yes"/>
      <point x="191" y="197"/>
      <point x="170" y="203"/>
      <point x="154" y="214" type="curve"/>
      <point x="140" y="233"/>
      <point x="139" y="312"/>
      <point x="139" y="358" type="curve" smooth="yes"/>
      <point x="139" y="412"/>
      <point x="141" y="471"/>
      <point x="204" y="489" type="curve"/>
      <point x="193" y="480"/>
      <point x="186" y="467"/>
      <point x="182" y="452" type="curve"/>
    </contour>
  </outline>
</glyph>
<glyph name="plusminus" format="1">
  <advance width="501"/>
  <unicode hex="00B1"/>
  <outline>
    <contour>
      <point x="178" y="220" type="line" name="hr01"/>
      <point x="185" y="223"/>
      <point x="217" y="226"/>
      <point x="237" y="226" type="curve" smooth="yes"/>
      <point x="260" y="226"/>
      <point x="287" y="224"/>
      <point x="308" y="224" type="curve" smooth="yes"/>
      <point x="332" y="224"/>
      <point x="349" y="227"/>
      <point x="349" y="238" type="curve" smooth="yes"/>
      <point x="349" y="256"/>
      <point x="357" y="320"/>
      <point x="357" y="355" type="curve"/>
      <point x="376" y="358"/>
      <point x="455" y="353"/>
      <point x="474" y="363" type="curve"/>
      <point x="482" y="433"/>
      <point x="476" y="463"/>
      <point x="479" y="523" type="curve"/>
      <point x="472" y="524"/>
      <point x="465" y="525"/>
      <point x="458" y="525" type="curve"/>
      <point x="458" y="532"/>
      <point x="459" y="536"/>
      <point x="459" y="543" type="curve"/>
      <point x="436" y="547"/>
      <point x="407" y="547"/>
      <point x="380" y="547" type="curve" smooth="yes"/>
      <point x="371" y="547"/>
      <point x="363" y="546"/>
      <point x="355" y="546" type="curve"/>
      <point x="355" y="553"/>
      <point x="356" y="560"/>
      <point x="356" y="569" type="curve" smooth="yes"/>
      <point x="356" y="651" type="line"/>
      <point x="351" y="652"/>
      <point x="344" y="652"/>
      <point x="336" y="652" type="curve"/>
      <point x="336" y="671" type="line"/>
      <point x="329" y="672"/>
      <point x="317" y="673"/>
      <point x="304" y="673" type="curve" smooth="yes" name="hr02"/>
      <point x="277" y="673"/>
      <point x="251" y="671"/>
      <point x="226" y="671" type="curve" smooth="yes"/>
      <point x="207" y="671"/>
      <point x="190" y="673"/>
      <point x="171" y="685" type="curve" name="hr03"/>
      <point x="171" y="683"/>
      <point x="162" y="615"/>
      <point x="162" y="545" type="curve"/>
      <point x="144" y="542"/>
      <point x="87" y="539"/>
      <point x="55" y="539" type="curve" smooth="yes"/>
      <point x="44" y="539"/>
      <point x="37" y="539"/>
      <point x="35" y="540" type="curve"/>
      <point x="35" y="517"/>
      <point x="39" y="469"/>
      <point x="39" y="418" type="curve" smooth="yes"/>
      <point x="39" y="406"/>
      <point x="38" y="395"/>
      <point x="38" y="388" type="curve"/>
      <point x="41" y="385"/>
      <point x="48" y="383"/>
      <point x="59" y="381" type="curve"/>
      <point x="59" y="376"/>
      <point x="58" y="371"/>
      <point x="58" y="368" type="curve"/>
      <point x="70" y="359"/>
      <point x="123" y="354"/>
      <point x="155" y="351" type="curve"/>
      <point x="155" y="312" type="line" smooth="yes"/>
      <point x="155" y="307"/>
      <point x="154" y="301"/>
      <point x="154" y="294" type="curve" smooth="yes"/>
      <point x="154" y="283"/>
      <point x="155" y="271"/>
      <point x="157" y="258" type="curve"/>
      <point x="157" y="259" type="line"/>
      <point x="158" y="240" type="line"/>
      <point x="160" y="241"/>
      <point x="166" y="242"/>
      <point x="176" y="243" type="curve"/>
      <point x="176" y="241"/>
      <point x="176" y="239"/>
      <point x="177" y="238" type="curve"/>
      <point x="177" y="239" type="line"/>
    </contour>
    <contour>
      <point x="167" y="257" type="line"/>
      <point x="167" y="259" type="line" smooth="yes"/>
      <point x="164" y="272"/>
      <point x="165" y="281"/>
      <point x="165" y="292" type="curve" smooth="yes"/>
      <point x="165" y="307"/>
      <point x="166" y="318"/>
      <point x="166" y="334" type="curve" smooth="yes"/>
      <point x="166" y="347"/>
      <point x="166" y="378"/>
      <point x="163" y="381" type="curve"/>
      <point x="161" y="381" type="line" smooth="yes"/>
      <point x="144" y="381"/>
      <point x="49" y="384"/>
      <point x="49" y="393" type="curve" smooth="yes"/>
      <point x="49" y="398"/>
      <point x="50" y="405"/>
      <point x="50" y="414" type="curve" smooth="yes"/>
      <point x="50" y="453"/>
      <point x="45" y="519"/>
      <point x="45" y="526" type="curve"/>
      <point x="49" y="526" type="line" smooth="yes"/>
      <point x="70" y="526"/>
      <point x="167" y="534"/>
      <point x="172" y="536" type="curve"/>
      <point x="172" y="562"/>
      <point x="176" y="639"/>
      <point x="181" y="666" type="curve"/>
      <point x="188" y="662"/>
      <point x="205" y="661"/>
      <point x="228" y="661" type="curve" smooth="yes"/>
      <point x="257" y="661"/>
      <point x="291" y="662"/>
      <point x="312" y="662" type="curve" smooth="yes"/>
      <point x="326" y="662" type="line" name="hr04"/>
      <point x="326" y="558" type="line" smooth="yes"/>
      <point x="326" y="529"/>
      <point x="337" y="537"/>
      <point x="356" y="537" type="curve" smooth="yes"/>
      <point x="389" y="537" type="line" smooth="yes"/>
      <point x="412" y="537"/>
      <point x="434" y="537"/>
      <point x="449" y="534" type="curve"/>
      <point x="446" y="478"/>
      <point x="450" y="438"/>
      <point x="445" y="389" type="curve"/>
      <point x="437" y="384"/>
      <point x="339" y="390"/>
      <point x="326" y="382" type="curve"/>
      <point x="326" y="370" type="line" smooth="yes"/>
      <point x="326" y="339"/>
      <point x="319" y="277"/>
      <point x="319" y="260" type="curve" smooth="yes"/>
      <point x="319" y="258" type="line" smooth="yes"/>
      <point x="319" y="255"/>
      <point x="303" y="254"/>
      <point x="282" y="254" type="curve" smooth="yes"/>
      <point x="247" y="254"/>
      <point x="198" y="256"/>
      <point x="177" y="256" type="curve" smooth="yes"/>
      <point x="168" y="256" type="line"/>
    </contour>
    <contour>
      <point x="28" y="1" type="line"/>
      <point x="38" y="1" type="line"/>
      <point x="38" y="-9" type="line"/>
      <point x="48" y="-19" type="line"/>
      <point x="69" y="-19"/>
      <point x="479" y="-26"/>
      <point x="507" y="-26" type="curve"/>
      <point x="503" y="2"/>
      <point x="502" y="28"/>
      <point x="502" y="53" type="curve" smooth="yes" name="hr05"/>
      <point x="502" y="86"/>
      <point x="504" y="124"/>
      <point x="504" y="161" type="curve"/>
      <point x="484" y="161" type="line"/>
      <point x="484" y="181" type="line"/>
      <point x="21" y="181" type="line"/>
      <point x="21" y="154"/>
      <point x="18" y="44"/>
      <point x="18" y="11" type="curve"/>
    </contour>
    <contour>
      <point x="28" y="11" type="curve"/>
      <point x="28" y="42"/>
      <point x="31" y="163"/>
      <point x="31" y="171" type="curve" name="hr06"/>
      <point x="474" y="171" type="line"/>
      <point x="474" y="138"/>
      <point x="472" y="104"/>
      <point x="472" y="71" type="curve" smooth="yes"/>
      <point x="472" y="48"/>
      <point x="473" y="27"/>
      <point x="477" y="4" type="curve"/>
      <point x="437" y="4" type="line" smooth="yes"/>
      <point x="329" y="4"/>
      <point x="47" y="11"/>
    </contour>
  </outline>
</glyph>
<glyph name="threesuperior" format="1">
  <advance width="254"/>
  <unicode hex="00B3"/>
  <outline>
    <contour>
      <point x="66" y="321" type="line" name="hr01"/>
      <point x="66" y="320" type="line"/>
      <point x="83" y="305"/>
      <point x="114" y="301"/>
      <point x="143" y="301" type="curve" smooth="yes"/>
      <point x="255" y="301"/>
      <point x="253" y="370"/>
      <point x="253" y="485" type="curve" smooth="yes"/>
      <point x="253" y="509"/>
      <point x="252" y="534"/>
      <point x="252" y="561" type="curve" smooth="yes"/>
      <point x="252" y="571" type="line" smooth="yes"/>
      <point x="252" y="582"/>
      <point x="251" y="591"/>
      <point x="244" y="600" type="curve" smooth="yes"/>
      <point x="245" y="599" type="line" smooth="yes"/>
      <point x="225" y="631"/>
      <point x="183" y="663"/>
      <point x="128" y="663" type="curve" smooth="yes"/>
      <point x="81" y="663"/>
      <point x="32" y="643"/>
      <point x="20" y="599" type="curve"/>
      <point x="21" y="600" type="line" smooth="yes"/>
      <point x="18" y="593"/>
      <point x="17" y="583"/>
      <point x="17" y="574" type="curve" smooth="yes"/>
      <point x="17" y="570"/>
      <point x="18" y="566"/>
      <point x="18" y="562" type="curve" smooth="yes"/>
      <point x="18" y="542" type="line"/>
      <point x="38" y="542" type="line"/>
      <point x="38" y="522" type="line" name="hr02"/>
      <point x="80" y="522" type="line"/>
      <point x="80" y="502" type="line" smooth="yes"/>
      <point x="80" y="497"/>
      <point x="79" y="493"/>
      <point x="79" y="488" type="curve" smooth="yes"/>
      <point x="79" y="476"/>
      <point x="81" y="465"/>
      <point x="88" y="450" type="curve"/>
      <point x="93" y="451"/>
      <point x="97" y="452"/>
      <point x="100" y="452" type="curve"/>
      <point x="101" y="447"/>
      <point x="103" y="439"/>
      <point x="108" y="430" type="curve"/>
      <point x="117" y="432"/>
      <point x="127" y="433"/>
      <point x="138" y="433" type="curve" smooth="yes"/>
      <point x="144" y="433" type="line"/>
      <point x="144" y="428"/>
      <point x="143" y="425"/>
      <point x="141" y="422" type="curve" smooth="yes"/>
      <point x="142" y="423" type="line" smooth="yes"/>
      <point x="139" y="418"/>
      <point x="135" y="416"/>
      <point x="129" y="416" type="curve" smooth="yes"/>
      <point x="125" y="416"/>
      <point x="116" y="417"/>
      <point x="116" y="424" type="curve"/>
      <point x="111" y="424" type="line"/>
      <point x="99" y="435"/>
      <point x="101" y="445"/>
      <point x="82" y="445" type="curve" smooth="yes" name="hr03"/>
      <point x="57" y="445"/>
      <point x="46" y="441"/>
      <point x="19" y="441" type="curve"/>
      <point x="19" y="413"/>
      <point x="13" y="367"/>
      <point x="40" y="343" type="curve"/>
      <point x="47" y="341" type="line"/>
      <point x="46" y="340" type="line"/>
      <point x="47" y="340" type="line"/>
      <point x="45" y="341" type="line"/>
      <point x="50" y="334"/>
      <point x="53" y="328"/>
      <point x="60" y="323" type="curve"/>
    </contour>
    <contour>
      <point x="47" y="351" type="curve"/>
      <point x="27" y="368"/>
      <point x="33" y="395"/>
      <point x="28" y="431" type="curve"/>
      <point x="29" y="431" type="line"/>
      <point x="34" y="431" type="line" smooth="yes"/>
      <point x="49" y="431"/>
      <point x="63" y="434"/>
      <point x="82" y="434" type="curve" smooth="yes"/>
      <point x="88" y="434" type="line"/>
      <point x="89" y="434" type="line"/>
      <point x="94" y="419"/>
      <point x="112" y="405"/>
      <point x="128" y="405" type="curve" smooth="yes"/>
      <point x="139" y="405"/>
      <point x="154" y="414"/>
      <point x="154" y="433" type="curve" smooth="yes" name="hr04"/>
      <point x="154" y="456"/>
      <point x="134" y="465"/>
      <point x="114" y="465" type="curve" smooth="yes"/>
      <point x="106" y="465"/>
      <point x="99" y="464"/>
      <point x="93" y="462" type="curve"/>
      <point x="90" y="467"/>
      <point x="89" y="475"/>
      <point x="89" y="484" type="curve" smooth="yes"/>
      <point x="89" y="495"/>
      <point x="91" y="505"/>
      <point x="91" y="516" type="curve" smooth="yes"/>
      <point x="91" y="520"/>
      <point x="90" y="523"/>
      <point x="90" y="526" type="curve"/>
      <point x="113" y="534"/>
      <point x="154" y="518"/>
      <point x="154" y="556" type="curve" smooth="yes"/>
      <point x="154" y="575"/>
      <point x="143" y="580"/>
      <point x="130" y="580" type="curve" smooth="yes" name="hr05"/>
      <point x="113" y="580"/>
      <point x="92" y="568"/>
      <point x="88" y="553" type="curve"/>
      <point x="83" y="553"/>
      <point x="68" y="551"/>
      <point x="55" y="552" type="curve" smooth="yes"/>
      <point x="28" y="553" type="line"/>
      <point x="28" y="560"/>
      <point x="27" y="568"/>
      <point x="27" y="576" type="curve" smooth="yes"/>
      <point x="27" y="628"/>
      <point x="77" y="653"/>
      <point x="128" y="653" type="curve" smooth="yes"/>
      <point x="174" y="653"/>
      <point x="222" y="631"/>
      <point x="222" y="591" type="curve" smooth="yes"/>
      <point x="222" y="582" type="line" smooth="yes"/>
      <point x="222" y="555"/>
      <point x="223" y="530"/>
      <point x="223" y="505" type="curve" smooth="yes"/>
      <point x="223" y="463"/>
      <point x="226" y="408"/>
      <point x="213" y="378" type="curve" smooth="yes"/>
      <point x="198" y="343"/>
      <point x="167" y="331"/>
      <point x="123" y="331" type="curve" smooth="yes"/>
      <point x="79" y="331"/>
      <point x="55" y="348"/>
    </contour>
    <contour>
      <point x="125" y="539" type="curve"/>
      <point x="130" y="544"/>
      <point x="136" y="547"/>
      <point x="143" y="550" type="curve"/>
      <point x="140" y="542"/>
      <point x="133" y="539"/>
    </contour>
  </outline>
</glyph>
<glyph name="periodcentered" format="1">
  <advance width="164"/>
  <unicode hex="00B7"/>
  <outline>
    <contour>
      <point x="26" y="403" type="line"/>
      <point x="26" y="382" type="line" smooth="yes"/>
      <point x="26" y="322"/>
      <point x="30" y="287"/>
      <point x="30" y="244" type="curve"/>
      <point x="37" y="244"/>
      <point x="43" y="245"/>
      <point x="50" y="245" type="curve"/>
      <point x="50" y="224" type="line"/>
      <point x="70" y="225"/>
      <point x="84" y="225"/>
      <point x="95" y="225" type="curve" smooth="yes" name="hr01"/>
      <point x="106" y="225"/>
      <point x="113" y="224"/>
      <point x="121" y="224" type="curve" smooth="yes" name="hr02"/>
      <point x="138" y="224"/>
      <point x="150" y="227"/>
      <point x="159" y="242" type="curve"/>
      <point x="159" y="286"/>
      <point x="156" y="355"/>
      <point x="156" y="382" type="curve"/>
      <point x="136" y="382" type="line" name="hr03"/>
      <point x="136" y="402" type="line"/>
    </contour>
    <contour>
      <point x="126" y="392" type="line"/>
      <point x="126" y="375"/>
      <point x="129" y="304"/>
      <point x="129" y="264" type="curve" name="hr04"/>
      <point x="125" y="257"/>
      <point x="116" y="254"/>
      <point x="102" y="254" type="curve" smooth="yes"/>
      <point x="91" y="254"/>
      <point x="78" y="255"/>
      <point x="59" y="255" type="curve" smooth="yes"/>
      <point x="40" y="255" type="line"/>
      <point x="40" y="290"/>
      <point x="36" y="325"/>
      <point x="36" y="377" type="curve" smooth="yes"/>
      <point x="36" y="393" type="line"/>
    </contour>
  </outline>
</glyph>
<glyph name="onesuperior" format="1">
  <advance width="187"/>
  <unicode hex="00B9"/>
  <outline>
    <contour>
      <point x="175" y="352" type="line" smooth="yes" name="hr01"/>
      <point x="175" y="421"/>
      <point x="180" y="483"/>
      <point x="180" y="547" type="curve" smooth="yes"/>
      <point x="180" y="562" type="line" smooth="yes"/>
      <point x="180" y="581"/>
      <point x="180" y="600"/>
      <point x="177" y="629" type="curve"/>
      <point x="161" y="629"/>
      <point x="157" y="629"/>
      <point x="157" y="649" type="curve"/>
      <point x="142" y="650"/>
      <point x="118" y="652"/>
      <point x="103" y="652" type="curve" smooth="yes"/>
      <point x="84" y="652" type="line" smooth="yes"/>
      <point x="77" y="652"/>
      <point x="61" y="651"/>
      <point x="53" y="651" type="curve" name="hr02"/>
      <point x="53" y="637"/>
      <point x="2" y="570"/>
      <point x="2" y="545" type="curve" smooth="yes"/>
      <point x="2" y="542"/>
      <point x="11" y="537"/>
      <point x="23" y="532" type="curve"/>
      <point x="22" y="530"/>
      <point x="22" y="528"/>
      <point x="22" y="525" type="curve" smooth="yes"/>
      <point x="22" y="520"/>
      <point x="54" y="506"/>
      <point x="72" y="501" type="curve" name="hr03"/>
      <point x="69" y="460"/>
      <point x="67" y="421"/>
      <point x="67" y="380" type="curve" smooth="yes"/>
      <point x="67" y="332" type="line"/>
      <point x="74" y="328"/>
      <point x="86" y="326"/>
      <point x="87" y="326" type="curve"/>
      <point x="87" y="312" type="line"/>
      <point x="103" y="304"/>
      <point x="121" y="305"/>
      <point x="140" y="305" type="curve" smooth="yes"/>
      <point x="155" y="305"/>
      <point x="175" y="305"/>
      <point x="175" y="322" type="curve" smooth="yes"/>
    </contour>
    <contour>
      <point x="145" y="342" type="line" smooth="yes"/>
      <point x="145" y="335"/>
      <point x="131" y="335"/>
      <point x="120" y="335" type="curve" smooth="yes"/>
      <point x="105" y="335"/>
      <point x="89" y="337"/>
      <point x="77" y="338" type="curve" name="hr04"/>
      <point x="77" y="380" type="line" smooth="yes"/>
      <point x="77" y="436"/>
      <point x="83" y="489"/>
      <point x="83" y="545" type="curve" smooth="yes"/>
      <point x="83" y="553" type="line"/>
      <point x="77" y="553"/>
      <point x="74" y="529"/>
      <point x="63" y="529" type="curve" smooth="yes"/>
      <point x="59" y="529"/>
      <point x="12" y="541"/>
      <point x="12" y="545" type="curve" smooth="yes"/>
      <point x="12" y="565"/>
      <point x="60" y="636"/>
      <point x="63" y="641" type="curve"/>
      <point x="78" y="641"/>
      <point x="90" y="642"/>
      <point x="103" y="642" type="curve" smooth="yes"/>
      <point x="118" y="642"/>
      <point x="133" y="641"/>
      <point x="148" y="640" type="curve"/>
      <point x="149" y="628"/>
      <point x="150" y="616"/>
      <point x="150" y="604" type="curve" smooth="yes"/>
      <point x="150" y="567" type="line" smooth="yes"/>
      <point x="150" y="503"/>
      <point x="145" y="440"/>
      <point x="145" y="372" type="curve" smooth="yes"/>
    </contour>
  </outline>
</glyph>
<glyph name="threequarters" format="1">
  <advance width="626"/>
  <unicode hex="00BE"/>
  <outline>
    <contour>
      <point x="278" y="-16" type="line" smooth="yes" name="hr01"/>
      <point x="341" y="149"/>
      <point x="399" y="324"/>
      <point x="459" y="501" type="curve"/>
      <point x="521" y="688" type="line"/>
      <point x="516" y="693"/>
      <point x="508" y="696"/>
      <point x="497" y="698" type="curve"/>
      <point x="501" y="708" type="line"/>
      <point x="490" y="717"/>
      <point x="472" y="719"/>
      <point x="453" y="719" type="curve" smooth="yes"/>
      <point x="438" y="719"/>
      <point x="425" y="718"/>
      <point x="413" y="718" type="curve" smooth="yes"/>
      <point x="405" y="718"/>
      <point x="398" y="719"/>
      <point x="391" y="721" type="curve"/>
      <point x="319" y="454"/>
      <point x="225" y="237"/>
      <point x="142" y="-14" type="curve"/>
      <point x="153" y="-10"/>
      <point x="161" y="-9"/>
      <point x="170" y="-8" type="curve"/>
      <point x="167" y="-17"/>
      <point x="165" y="-25"/>
      <point x="162" y="-34" type="curve"/>
      <point x="175" y="-30"/>
      <point x="188" y="-28"/>
      <point x="201" y="-28" type="curve" smooth="yes" name="hr02"/>
      <point x="213" y="-28"/>
      <point x="225" y="-30"/>
      <point x="237" y="-30" type="curve" smooth="yes"/>
      <point x="260" y="-30"/>
      <point x="272" y="-33"/>
      <point x="277" y="-18" type="curve" smooth="yes"/>
    </contour>
    <contour>
      <point x="36" y="318" type="curve"/>
      <point x="57" y="299"/>
      <point x="69" y="289"/>
      <point x="72" y="286" type="curve" smooth="yes"/>
      <point x="75" y="284"/>
      <point x="80" y="282"/>
      <point x="85" y="281" type="curve"/>
      <point x="85" y="282" type="line"/>
      <point x="109" y="271"/>
      <point x="125" y="272"/>
      <point x="148" y="272" type="curve" smooth="yes"/>
      <point x="240" y="272"/>
      <point x="260" y="324"/>
      <point x="265" y="380" type="curve"/>
      <point x="265" y="392" type="line" smooth="yes"/>
      <point x="266" y="419"/>
      <point x="267" y="447"/>
      <point x="267" y="475" type="curve" smooth="yes"/>
      <point x="267" y="502"/>
      <point x="266" y="529"/>
      <point x="266" y="557" type="curve" smooth="yes"/>
      <point x="266" y="565" type="line" smooth="yes"/>
      <point x="266" y="577"/>
      <point x="264" y="588"/>
      <point x="257" y="599" type="curve"/>
      <point x="258" y="599" type="line"/>
      <point x="234" y="634"/>
      <point x="192" y="666"/>
      <point x="132" y="666" type="curve" smooth="yes"/>
      <point x="81" y="666"/>
      <point x="28" y="644"/>
      <point x="15" y="596" type="curve"/>
      <point x="16" y="596" type="line"/>
      <point x="13" y="589"/>
      <point x="12" y="580"/>
      <point x="12" y="569" type="curve" smooth="yes"/>
      <point x="12" y="564"/>
      <point x="13" y="560"/>
      <point x="13" y="557" type="curve" smooth="yes"/>
      <point x="13" y="536" type="line"/>
      <point x="33" y="536" type="line"/>
      <point x="33" y="517" type="line"/>
      <point x="82" y="516" type="line"/>
      <point x="82" y="500"/>
      <point x="80" y="489"/>
      <point x="80" y="476" type="curve" smooth="yes"/>
      <point x="80" y="462"/>
      <point x="83" y="449"/>
      <point x="88" y="436" type="curve"/>
      <point x="91" y="436"/>
      <point x="96" y="437"/>
      <point x="101" y="438" type="curve"/>
      <point x="102" y="429"/>
      <point x="105" y="422"/>
      <point x="108" y="416" type="curve"/>
      <point x="116" y="417"/>
      <point x="126" y="418"/>
      <point x="135" y="418" type="curve" smooth="yes"/>
      <point x="142" y="418"/>
      <point x="151" y="419"/>
      <point x="151" y="414" type="curve" smooth="yes"/>
      <point x="151" y="409"/>
      <point x="150" y="405"/>
      <point x="148" y="402" type="curve" smooth="yes"/>
      <point x="149" y="403" type="line" smooth="yes"/>
      <point x="146" y="398"/>
      <point x="140" y="395"/>
      <point x="133" y="395" type="curve" smooth="yes"/>
      <point x="126" y="395"/>
      <point x="120" y="396"/>
      <point x="111" y="405" type="curve" smooth="yes"/>
      <point x="104" y="412"/>
      <point x="100" y="418"/>
      <point x="98" y="425" type="curve"/>
      <point x="89" y="425"/>
      <point x="82" y="426"/>
      <point x="77" y="426" type="curve" smooth="yes"/>
      <point x="51" y="426"/>
      <point x="46" y="422"/>
      <point x="14" y="422" type="curve" name="hr03"/>
      <point x="14" y="360"/>
      <point x="16" y="341"/>
    </contour>
    <contour>
      <point x="249" y="8" type="curve" smooth="yes"/>
      <point x="248" y="7"/>
      <point x="248" y="6"/>
      <point x="247" y="5" type="curve" smooth="yes"/>
      <point x="245" y="1" type="line" smooth="yes"/>
      <point x="244" y="0"/>
      <point x="239" y="0"/>
      <point x="232" y="0" type="curve" smooth="yes"/>
      <point x="215" y="0"/>
      <point x="188" y="2"/>
      <point x="171" y="2" type="curve" smooth="yes"/>
      <point x="164" y="2"/>
      <point x="159" y="2"/>
      <point x="158" y="1" type="curve"/>
      <point x="238" y="243"/>
      <point x="334" y="472"/>
      <point x="398" y="709" type="curve"/>
      <point x="400" y="708"/>
      <point x="404" y="708"/>
      <point x="411" y="708" type="curve" smooth="yes"/>
      <point x="426" y="708"/>
      <point x="446" y="710"/>
      <point x="463" y="710" type="curve" smooth="yes"/>
      <point x="475" y="710"/>
      <point x="485" y="709"/>
      <point x="490" y="705" type="curve"/>
      <point x="490" y="704" type="line"/>
      <point x="410" y="467"/>
      <point x="334" y="229"/>
    </contour>
    <contour>
      <point x="44" y="324" type="curve"/>
      <point x="23" y="350"/>
      <point x="28" y="374"/>
      <point x="23" y="411" type="curve"/>
      <point x="24" y="412" type="line"/>
      <point x="44" y="412"/>
      <point x="65" y="416"/>
      <point x="89" y="416" type="curve"/>
      <point x="90" y="416" type="line"/>
      <point x="95" y="399"/>
      <point x="114" y="384"/>
      <point x="133" y="384" type="curve" smooth="yes" name="hr04"/>
      <point x="145" y="384"/>
      <point x="162" y="394"/>
      <point x="162" y="414" type="curve" smooth="yes"/>
      <point x="162" y="437"/>
      <point x="140" y="449"/>
      <point x="115" y="449" type="curve" smooth="yes" name="hr05"/>
      <point x="108" y="449"/>
      <point x="101" y="448"/>
      <point x="94" y="447" type="curve"/>
      <point x="91" y="452"/>
      <point x="90" y="460"/>
      <point x="90" y="471" type="curve" smooth="yes"/>
      <point x="90" y="486"/>
      <point x="92" y="500"/>
      <point x="92" y="512" type="curve" smooth="yes"/>
      <point x="92" y="528"/>
      <point x="161" y="506"/>
      <point x="161" y="546" type="curve" smooth="yes"/>
      <point x="161" y="567"/>
      <point x="153" y="577"/>
      <point x="137" y="577" type="curve" smooth="yes" name="hr06"/>
      <point x="118" y="577"/>
      <point x="96" y="563"/>
      <point x="89" y="547" type="curve"/>
      <point x="84" y="547"/>
      <point x="68" y="545"/>
      <point x="53" y="546" type="curve" smooth="yes"/>
      <point x="23" y="547" type="line"/>
      <point x="23" y="554"/>
      <point x="22" y="563"/>
      <point x="22" y="571" type="curve" smooth="yes"/>
      <point x="22" y="630"/>
      <point x="79" y="656"/>
      <point x="132" y="656" type="curve" smooth="yes"/>
      <point x="184" y="656"/>
      <point x="236" y="631"/>
      <point x="236" y="585" type="curve" smooth="yes"/>
      <point x="236" y="578" type="line" smooth="yes"/>
      <point x="236" y="550"/>
      <point x="237" y="522"/>
      <point x="237" y="494" type="curve" smooth="yes"/>
      <point x="237" y="352"/>
      <point x="227" y="302"/>
      <point x="128" y="302" type="curve" smooth="yes"/>
      <point x="77" y="302"/>
      <point x="52" y="321"/>
    </contour>
    <contour>
      <point x="123" y="529" type="curve"/>
      <point x="131" y="538"/>
      <point x="140" y="544"/>
      <point x="151" y="546" type="curve"/>
      <point x="150" y="531"/>
      <point x="138" y="530"/>
    </contour>
    <contour>
      <point x="595" y="24" type="curve" smooth="yes"/>
      <point x="596" y="33"/>
      <point x="596" y="40"/>
      <point x="597" y="47" type="curve"/>
      <point x="600" y="53"/>
      <point x="601" y="63"/>
      <point x="600" y="77" type="curve"/>
      <point x="617" y="74"/>
      <point x="614" y="74"/>
      <point x="617" y="74" type="curve" smooth="yes"/>
      <point x="633" y="74" type="line"/>
      <point x="638" y="172" type="line"/>
      <point x="627" y="172" type="line" smooth="yes"/>
      <point x="624" y="172"/>
      <point x="620" y="172"/>
      <point x="617" y="173" type="curve"/>
      <point x="618" y="192" type="line"/>
      <point x="607" y="192" type="line"/>
      <point x="607" y="201"/>
      <point x="608" y="214"/>
      <point x="608" y="231" type="curve" smooth="yes" name="hr07"/>
      <point x="608" y="348" type="line"/>
      <point x="605" y="348"/>
      <point x="597" y="347"/>
      <point x="588" y="347" type="curve"/>
      <point x="588" y="368" type="line"/>
      <point x="581" y="368"/>
      <point x="549" y="367"/>
      <point x="529" y="367" type="curve" smooth="yes"/>
      <point x="492" y="367" type="line"/>
      <point x="420" y="258"/>
      <point x="392" y="214"/>
      <point x="384" y="201" type="curve" smooth="yes"/>
      <point x="377" y="190"/>
      <point x="377" y="191"/>
      <point x="377" y="180" type="curve" smooth="yes" name="hr08"/>
      <point x="377" y="95"/>
      <point x="384" y="107"/>
      <point x="400" y="104" type="curve"/>
      <point x="404" y="81"/>
      <point x="418" y="83"/>
      <point x="454" y="83" type="curve" smooth="yes"/>
      <point x="484" y="83" type="line" name="hr09"/>
      <point x="484" y="-5" type="line"/>
      <point x="504" y="-5" type="line"/>
      <point x="504" y="-25" type="line"/>
      <point x="537" y="-25" type="line" smooth="yes"/>
      <point x="572" y="-25"/>
      <point x="590" y="-25"/>
      <point x="599" y="-16" type="curve"/>
      <point x="599" y="-11"/>
      <point x="594" y="3"/>
    </contour>
    <contour>
      <point x="605" y="106" type="line"/>
      <point x="604" y="106" type="line"/>
      <point x="602" y="105"/>
      <point x="599" y="105"/>
      <point x="596" y="105" type="curve" smooth="yes"/>
      <point x="586" y="105" type="line" smooth="yes"/>
      <point x="583" y="105"/>
      <point x="580" y="105"/>
      <point x="578" y="104" type="curve" name="hr10"/>
      <point x="576" y="90" type="line" smooth="yes"/>
      <point x="575" y="87"/>
      <point x="575" y="83"/>
      <point x="575" y="79" type="curve" smooth="yes"/>
      <point x="575" y="76"/>
      <point x="574" y="70"/>
      <point x="573" y="60" type="curve"/>
      <point x="573" y="59" type="line"/>
      <point x="570" y="14"/>
      <point x="579" y="5"/>
      <point x="547" y="5" type="curve" smooth="yes"/>
      <point x="494" y="5" type="line"/>
      <point x="494" y="57" type="line" smooth="yes"/>
      <point x="494" y="84"/>
      <point x="495" y="109"/>
      <point x="495" y="112" type="curve"/>
      <point x="494" y="113"/>
      <point x="487" y="113"/>
      <point x="476" y="113" type="curve" smooth="yes"/>
      <point x="408" y="113" type="line" smooth="yes"/>
      <point x="398" y="113"/>
      <point x="393" y="113"/>
      <point x="392" y="114" type="curve"/>
      <point x="392" y="115" type="line"/>
      <point x="391" y="119"/>
      <point x="387" y="142"/>
      <point x="387" y="177" type="curve" smooth="yes"/>
      <point x="387" y="188" type="line"/>
      <point x="390" y="191"/>
      <point x="412" y="229"/>
      <point x="497" y="357" type="curve"/>
      <point x="500" y="357"/>
      <point x="518" y="358"/>
      <point x="535" y="358" type="curve" smooth="yes"/>
      <point x="578" y="358" type="line"/>
      <point x="578" y="235" type="line" smooth="yes"/>
      <point x="578" y="210"/>
      <point x="579" y="188"/>
      <point x="580" y="184" type="curve"/>
      <point x="581" y="185"/>
      <point x="583" y="185"/>
      <point x="586" y="185" type="curve" smooth="yes"/>
      <point x="594" y="185"/>
      <point x="601" y="182"/>
      <point x="608" y="182" type="curve"/>
    </contour>
    <contour>
      <point x="515" y="254" type="line"/>
      <point x="514" y="255" type="line" name="hr11"/>
      <point x="509" y="255"/>
      <point x="465" y="186"/>
      <point x="462" y="183" type="curve"/>
      <point x="468" y="182" type="line"/>
      <point x="480" y="182"/>
      <point x="505" y="183"/>
      <point x="512" y="183" type="curve"/>
      <point x="513" y="184" type="line"/>
    </contour>
  </outline>
</glyph>
<glyph name="Agrave" format="1">
  <advance width="434"/>
  <unicode hex="00C0"/>
  <outline>
    <contour>
      <point x="392" y="333" type="line" name="hr01"/>
      <point x="376" y="401"/>
      <point x="324" y="643"/>
      <point x="308" y="696" type="curve"/>
      <point x="303" y="695"/>
      <point x="298" y="695"/>
      <point x="294" y="694" type="curve"/>
      <point x="291" y="703"/>
      <point x="289" y="711"/>
      <point x="288" y="716" type="curve"/>
      <point x="172" y="705"/>
      <point x="184" y="714"/>
      <point x="149" y="709" type="curve"/>
      <point x="53" y="384"/>
      <point x="-4" y="19"/>
      <point x="-8" y="-8" type="curve"/>
      <point x="14" y="-8" type="line"/>
      <point x="13" y="-19"/>
      <point x="12" y="-25"/>
      <point x="12" y="-28" type="curve"/>
      <point x="64" y="-29" type="line" smooth="yes"/>
      <point x="111" y="-30"/>
      <point x="136" y="-30"/>
      <point x="153" y="-31" type="curve" smooth="yes"/>
      <point x="166" y="-31"/>
      <point x="170" y="-29"/>
      <point x="175" y="-29" type="curve"/>
      <point x="204" y="24"/>
      <point x="204" y="96"/>
      <point x="220" y="138" type="curve"/>
      <point x="235" y="138"/>
      <point x="235" y="139"/>
      <point x="248" y="139" type="curve" smooth="yes"/>
      <point x="263" y="139"/>
      <point x="271" y="67"/>
      <point x="295" y="-5" type="curve"/>
      <point x="306" y="-8"/>
      <point x="308" y="-6"/>
      <point x="315" y="-25" type="curve"/>
      <point x="346" y="-32"/>
      <point x="376" y="-35"/>
      <point x="405" y="-35" type="curve" smooth="yes" name="hr02"/>
      <point x="424" y="-35"/>
      <point x="446" y="-32"/>
      <point x="469" y="-28" type="curve"/>
    </contour>
    <contour>
      <point x="437" y="1" type="line"/>
      <point x="437" y="0" type="line"/>
      <point x="421" y="-3"/>
      <point x="404" y="-5"/>
      <point x="385" y="-5" type="curve" smooth="yes" name="hr03"/>
      <point x="356" y="-5"/>
      <point x="329" y="-2"/>
      <point x="303" y="4" type="curve"/>
      <point x="302" y="4" type="line"/>
      <point x="286" y="47"/>
      <point x="273" y="128"/>
      <point x="255" y="167" type="curve"/>
      <point x="246" y="168"/>
      <point x="240" y="169"/>
      <point x="235" y="169" type="curve" smooth="yes"/>
      <point x="222" y="169" type="line" smooth="yes"/>
      <point x="215" y="169"/>
      <point x="208" y="168"/>
      <point x="193" y="168" type="curve"/>
      <point x="174" y="126"/>
      <point x="173" y="44"/>
      <point x="149" y="1" type="curve"/>
      <point x="146" y="0" type="line" smooth="yes"/>
      <point x="144" y="-1"/>
      <point x="140" y="-1"/>
      <point x="133" y="-1" type="curve" smooth="yes"/>
      <point x="116" y="-1"/>
      <point x="86" y="1"/>
      <point x="30" y="1" type="curve" smooth="yes"/>
      <point x="6" y="1" type="line"/>
      <point x="5" y="1"/>
      <point x="5" y="1"/>
      <point x="4" y="2" type="curve"/>
      <point x="8" y="29"/>
      <point x="61" y="381"/>
      <point x="157" y="700" type="curve"/>
      <point x="160" y="701"/>
      <point x="165" y="701"/>
      <point x="172" y="701" type="curve" smooth="yes"/>
      <point x="193" y="701" type="line" smooth="yes"/>
      <point x="210" y="701"/>
      <point x="236" y="701"/>
      <point x="280" y="705" type="curve"/>
      <point x="296" y="656"/>
      <point x="346" y="418"/>
      <point x="362" y="351" type="curve"/>
    </contour>
    <contour>
      <point x="40" y="847" type="line"/>
      <point x="49" y="838"/>
      <point x="65" y="818"/>
      <point x="100" y="789" type="curve"/>
      <point x="100" y="790" type="line"/>
      <point x="125" y="769"/>
      <point x="151" y="744"/>
      <point x="170" y="721" type="curve"/>
      <point x="191" y="718"/>
      <point x="207" y="718"/>
      <point x="224" y="718" type="curve" smooth="yes"/>
      <point x="263" y="718"/>
      <point x="308" y="723"/>
      <point x="331" y="728" type="curve"/>
      <point x="324" y="733"/>
      <point x="318" y="739"/>
      <point x="310" y="747" type="curve"/>
      <point x="311" y="748" type="line"/>
      <point x="250" y="796"/>
      <point x="189" y="876"/>
      <point x="122" y="930" type="curve"/>
    </contour>
    <contour>
      <point x="123" y="917" type="line"/>
      <point x="170" y="880"/>
      <point x="244" y="798"/>
      <point x="290" y="754" type="curve"/>
      <point x="277" y="750"/>
      <point x="240" y="748"/>
      <point x="204" y="748" type="curve" smooth="yes"/>
      <point x="185" y="748"/>
      <point x="171" y="747"/>
      <point x="156" y="750" type="curve"/>
      <point x="142" y="769"/>
      <point x="74" y="827"/>
      <point x="55" y="846" type="curve" smooth="yes"/>
      <point x="54" y="847" type="line"/>
    </contour>
    <contour>
      <point x="260" y="286" type="curve"/>
      <point x="241" y="437"/>
      <point x="231" y="495"/>
      <point x="222" y="495" type="curve" smooth="yes"/>
      <point x="210" y="495"/>
      <point x="202" y="401"/>
      <point x="186" y="286" type="curve"/>
      <point x="194" y="286"/>
      <point x="201" y="285"/>
      <point x="210" y="285" type="curve" smooth="yes"/>
      <point x="226" y="285"/>
      <point x="243" y="286"/>
    </contour>
    <contour>
      <point x="219" y="296" type="line"/>
      <point x="224" y="333"/>
      <point x="231" y="381"/>
      <point x="235" y="410" type="curve"/>
      <point x="238" y="382"/>
      <point x="243" y="344"/>
      <point x="248" y="296" type="curve"/>
    </contour>
  </outline>
</glyph>
<glyph name="Aring" format="1">
  <advance width="434"/>
  <unicode hex="00C5"/>
  <outline>
    <contour>
      <point x="392" y="333" type="line" name="hr01"/>
      <point x="376" y="402"/>
      <point x="316" y="649"/>
      <point x="308" y="696" type="curve"/>
      <point x="303" y="695"/>
      <point x="298" y="695"/>
      <point x="293" y="694" type="curve"/>
      <point x="290" y="703"/>
      <point x="289" y="711"/>
      <point x="288" y="716" type="curve"/>
      <point x="172" y="705"/>
      <point x="184" y="714"/>
      <point x="149" y="709" type="curve"/>
      <point x="72" y="453"/>
      <point x="26" y="186"/>
      <point x="5" y="66" type="curve"/>
      <point x="-9" y="-8" type="line"/>
      <point x="14" y="-8" type="line"/>
      <point x="11" y="-28" type="line"/>
      <point x="64" y="-29" type="line" smooth="yes"/>
      <point x="111" y="-30"/>
      <point x="136" y="-30"/>
      <point x="153" y="-31" type="curve" smooth="yes"/>
      <point x="166" y="-31"/>
      <point x="170" y="-29"/>
      <point x="175" y="-29" type="curve"/>
      <point x="204" y="24"/>
      <point x="204" y="96"/>
      <point x="220" y="138" type="curve"/>
      <point x="235" y="138"/>
      <point x="235" y="139"/>
      <point x="248" y="139" type="curve" smooth="yes"/>
      <point x="263" y="139"/>
      <point x="271" y="67"/>
      <point x="295" y="-5" type="curve"/>
      <point x="306" y="-8"/>
      <point x="308" y="-6"/>
      <point x="315" y="-25" type="curve"/>
      <point x="346" y="-32"/>
      <point x="376" y="-35"/>
      <point x="405" y="-35" type="curve" smooth="yes" name="hr02"/>
      <point x="424" y="-35"/>
      <point x="446" y="-32"/>
      <point x="469" y="-28" type="curve"/>
    </contour>
    <contour>
      <point x="437" y="1" type="line"/>
      <point x="437" y="0" type="line"/>
      <point x="421" y="-3"/>
      <point x="404" y="-5"/>
      <point x="385" y="-5" type="curve" smooth="yes" name="hr03"/>
      <point x="356" y="-5"/>
      <point x="329" y="-2"/>
      <point x="303" y="4" type="curve"/>
      <point x="302" y="4" type="line"/>
      <point x="286" y="47"/>
      <point x="273" y="128"/>
      <point x="255" y="167" type="curve"/>
      <point x="246" y="168"/>
      <point x="240" y="169"/>
      <point x="235" y="169" type="curve" smooth="yes"/>
      <point x="222" y="169" type="line" smooth="yes"/>
      <point x="215" y="169"/>
      <point x="208" y="168"/>
      <point x="193" y="168" type="curve"/>
      <point x="174" y="126"/>
      <point x="173" y="44"/>
      <point x="149" y="1" type="curve"/>
      <point x="146" y="0" type="line" smooth="yes"/>
      <point x="144" y="-1"/>
      <point x="140" y="-1"/>
      <point x="133" y="-1" type="curve" smooth="yes"/>
      <point x="116" y="-1"/>
      <point x="86" y="1"/>
      <point x="30" y="1" type="curve" smooth="yes"/>
      <point x="6" y="1" type="line"/>
      <point x="5" y="1"/>
      <point x="5" y="1"/>
      <point x="4" y="2" type="curve"/>
      <point x="12" y="30"/>
      <point x="61" y="380"/>
      <point x="157" y="700" type="curve"/>
      <point x="160" y="701"/>
      <point x="165" y="701"/>
      <point x="172" y="701" type="curve" smooth="yes"/>
      <point x="193" y="701" type="line" smooth="yes"/>
      <point x="210" y="701"/>
      <point x="236" y="701"/>
      <point x="280" y="705" type="curve"/>
      <point x="292" y="653"/>
      <point x="346" y="418"/>
      <point x="362" y="351" type="curve"/>
    </contour>
    <contour>
      <point x="321" y="753" type="line" smooth="yes"/>
      <point x="332" y="777"/>
      <point x="336" y="804"/>
      <point x="336" y="831" type="curve" smooth="yes"/>
      <point x="336" y="862"/>
      <point x="335" y="890"/>
      <point x="308" y="907" type="curve"/>
      <point x="308" y="909" type="line"/>
      <point x="287" y="938"/>
      <point x="243" y="945"/>
      <point x="210" y="945" type="curve" smooth="yes"/>
      <point x="182" y="945"/>
      <point x="153" y="937"/>
      <point x="133" y="921" type="curve"/>
      <point x="117" y="898"/>
      <point x="114" y="873"/>
      <point x="114" y="845" type="curve" smooth="yes"/>
      <point x="114" y="809"/>
      <point x="117" y="768"/>
      <point x="145" y="751" type="curve"/>
      <point x="164" y="720"/>
      <point x="194" y="721"/>
      <point x="225" y="721" type="curve" smooth="yes"/>
      <point x="255" y="721"/>
      <point x="299" y="721"/>
      <point x="320" y="752" type="curve" smooth="yes"/>
    </contour>
    <contour>
      <point x="292" y="777" type="curve"/>
      <point x="277" y="751"/>
      <point x="229" y="751"/>
      <point x="204" y="751" type="curve" smooth="yes"/>
      <point x="126" y="751"/>
      <point x="124" y="790"/>
      <point x="124" y="845" type="curve" smooth="yes"/>
      <point x="124" y="910"/>
      <point x="147" y="936"/>
      <point x="204" y="936" type="curve" smooth="yes"/>
      <point x="234" y="936"/>
      <point x="279" y="931"/>
      <point x="298" y="906" type="curve"/>
      <point x="303" y="887"/>
      <point x="306" y="868"/>
      <point x="306" y="850" type="curve" smooth="yes"/>
      <point x="306" y="825"/>
      <point x="301" y="801"/>
    </contour>
    <contour>
      <point x="260" y="286" type="curve"/>
      <point x="241" y="437"/>
      <point x="231" y="495"/>
      <point x="222" y="495" type="curve" smooth="yes"/>
      <point x="210" y="495"/>
      <point x="202" y="401"/>
      <point x="186" y="286" type="curve"/>
      <point x="194" y="286"/>
      <point x="201" y="285"/>
      <point x="210" y="285" type="curve" smooth="yes"/>
      <point x="226" y="285"/>
      <point x="243" y="286"/>
    </contour>
    <contour>
      <point x="186" y="885" type="curve"/>
      <point x="171" y="876"/>
      <point x="169" y="861"/>
      <point x="169" y="848" type="curve" smooth="yes" name="hr04"/>
      <point x="169" y="824"/>
      <point x="172" y="795"/>
      <point x="204" y="795" type="curve" smooth="yes"/>
      <point x="214" y="795" type="line"/>
      <point x="243" y="798"/>
      <point x="262" y="796"/>
      <point x="262" y="849" type="curve" smooth="yes"/>
      <point x="262" y="885"/>
      <point x="236" y="891"/>
      <point x="216" y="891" type="curve" smooth="yes"/>
      <point x="205" y="891"/>
      <point x="195" y="889"/>
    </contour>
    <contour>
      <point x="210" y="856" type="line" smooth="yes"/>
      <point x="219" y="859"/>
      <point x="227" y="861"/>
      <point x="236" y="861" type="curve" smooth="yes"/>
      <point x="249" y="861"/>
      <point x="252" y="860"/>
      <point x="252" y="849" type="curve" smooth="yes"/>
      <point x="252" y="828"/>
      <point x="253" y="808"/>
      <point x="220" y="805" type="curve"/>
      <point x="200" y="805" type="line"/>
      <point x="199" y="812"/>
      <point x="199" y="818"/>
      <point x="199" y="825" type="curve" smooth="yes"/>
      <point x="199" y="836"/>
      <point x="200" y="848"/>
      <point x="211" y="857" type="curve" smooth="yes"/>
    </contour>
    <contour>
      <point x="219" y="296" type="line"/>
      <point x="224" y="333"/>
      <point x="231" y="381"/>
      <point x="235" y="410" type="curve"/>
      <point x="238" y="382"/>
      <point x="243" y="344"/>
      <point x="248" y="296" type="curve"/>
    </contour>
  </outline>
</glyph>
<glyph name="Ccedilla" format="1">
  <advance width="476"/>
  <unicode hex="00C7"/>
  <outline>
    <contour>
      <point x="28" y="525" type="curve" smooth="yes" name="hr01"/>
      <point x="24" y="465"/>
      <point x="23" y="402"/>
      <point x="23" y="339" type="curve" smooth="yes"/>
      <point x="23" y="292"/>
      <point x="24" y="237"/>
      <point x="25" y="194" type="curve" smooth="yes"/>
      <point x="25" y="184" type="line" smooth="yes"/>
      <point x="28" y="79"/>
      <point x="71" y="-26"/>
      <point x="162" y="-37" type="curve"/>
      <point x="157" y="-65"/>
      <point x="141" y="-109"/>
      <point x="141" y="-125" type="curve" smooth="yes"/>
      <point x="141" y="-137"/>
      <point x="140" y="-139"/>
      <point x="161" y="-139" type="curve"/>
      <point x="161" y="-145" type="line" smooth="yes"/>
      <point x="161" y="-160"/>
      <point x="168" y="-159"/>
      <point x="188" y="-159" type="curve" smooth="yes"/>
      <point x="205" y="-159"/>
      <point x="219" y="-157"/>
      <point x="242" y="-157" type="curve" smooth="yes"/>
      <point x="249" y="-157"/>
      <point x="258" y="-157"/>
      <point x="269" y="-158" type="curve"/>
      <point x="277" y="-126"/>
      <point x="290" y="-74"/>
      <point x="298" y="-44" type="curve" smooth="yes"/>
      <point x="298" y="-42"/>
      <point x="298" y="-40"/>
      <point x="299" y="-39" type="curve"/>
      <point x="415" y="-31"/>
      <point x="487" y="72"/>
      <point x="487" y="180" type="curve" smooth="yes"/>
      <point x="487" y="204"/>
      <point x="482" y="231"/>
      <point x="474" y="258" type="curve"/>
      <point x="459" y="261"/>
      <point x="457" y="261"/>
      <point x="454" y="278" type="curve"/>
      <point x="431" y="285"/>
      <point x="410" y="286"/>
      <point x="387" y="286" type="curve" smooth="yes" name="hr02"/>
      <point x="359" y="286"/>
      <point x="330" y="284"/>
      <point x="307" y="284" type="curve"/>
      <point x="296" y="209"/>
      <point x="307" y="155"/>
      <point x="245" y="155" type="curve" smooth="yes" name="hr03"/>
      <point x="241" y="155"/>
      <point x="238" y="155"/>
      <point x="236" y="156" type="curve" smooth="yes"/>
      <point x="238" y="156" type="line" smooth="yes"/>
      <point x="202" y="164"/>
      <point x="206" y="275"/>
      <point x="206" y="329" type="curve" smooth="yes"/>
      <point x="206" y="395"/>
      <point x="192" y="510"/>
      <point x="261" y="510" type="curve" smooth="yes"/>
      <point x="304" y="510"/>
      <point x="284" y="451"/>
      <point x="303" y="400" type="curve"/>
      <point x="320" y="397"/>
      <point x="318" y="393"/>
      <point x="323" y="380" type="curve"/>
      <point x="358" y="375"/>
      <point x="387" y="371"/>
      <point x="412" y="371" type="curve" smooth="yes"/>
      <point x="430" y="371"/>
      <point x="448" y="373"/>
      <point x="466" y="377" type="curve"/>
      <point x="484" y="377"/>
      <point x="487" y="439"/>
      <point x="487" y="452" type="curve" smooth="yes"/>
      <point x="487" y="520"/>
      <point x="457" y="591"/>
      <point x="406" y="635" type="curve"/>
      <point x="357" y="691"/>
      <point x="295" y="703"/>
      <point x="226" y="703" type="curve" smooth="yes"/>
      <point x="197" y="703" type="line"/>
      <point x="182" y="703" type="line" smooth="yes"/>
      <point x="154" y="703"/>
      <point x="122" y="701"/>
      <point x="94" y="682" type="curve"/>
      <point x="51" y="646"/>
      <point x="34" y="593"/>
      <point x="29" y="536" type="curve"/>
      <point x="30" y="538" type="line" smooth="yes"/>
      <point x="27" y="531"/>
      <point x="28" y="529"/>
    </contour>
    <contour>
      <point x="38" y="524" type="curve"/>
      <point x="38" y="581"/>
      <point x="60" y="641"/>
      <point x="103" y="676" type="curve"/>
      <point x="126" y="691"/>
      <point x="155" y="693"/>
      <point x="182" y="693" type="curve" smooth="yes"/>
      <point x="197" y="693" type="line"/>
      <point x="226" y="693" type="line" smooth="yes"/>
      <point x="262" y="693"/>
      <point x="299" y="692"/>
      <point x="331" y="679" type="curve" smooth="yes"/>
      <point x="409" y="647"/>
      <point x="457" y="558"/>
      <point x="457" y="472" type="curve" smooth="yes"/>
      <point x="457" y="449"/>
      <point x="454" y="428"/>
      <point x="447" y="408" type="curve"/>
      <point x="444" y="407" type="line" smooth="yes"/>
      <point x="425" y="402"/>
      <point x="409" y="401"/>
      <point x="392" y="401" type="curve" smooth="yes"/>
      <point x="365" y="401"/>
      <point x="340" y="405"/>
      <point x="312" y="409" type="curve" smooth="yes"/>
      <point x="310" y="409" type="line"/>
      <point x="294" y="452"/>
      <point x="318" y="540"/>
      <point x="240" y="540" type="curve" smooth="yes" name="hr04"/>
      <point x="161" y="540"/>
      <point x="176" y="419"/>
      <point x="176" y="348" type="curve" smooth="yes"/>
      <point x="176" y="276"/>
      <point x="168" y="145"/>
      <point x="244" y="145" type="curve" smooth="yes"/>
      <point x="320" y="145"/>
      <point x="308" y="218"/>
      <point x="316" y="274" type="curve"/>
      <point x="335" y="274"/>
      <point x="361" y="276"/>
      <point x="388" y="276" type="curve" smooth="yes" name="hr05"/>
      <point x="409" y="276"/>
      <point x="430" y="275"/>
      <point x="446" y="270" type="curve"/>
      <point x="453" y="246"/>
      <point x="457" y="223"/>
      <point x="457" y="200" type="curve" smooth="yes"/>
      <point x="457" y="96"/>
      <point x="387" y="-5"/>
      <point x="274" y="-10" type="curve"/>
      <point x="271" y="-9" type="line"/>
      <point x="263" y="-38"/>
      <point x="252" y="-90"/>
      <point x="241" y="-125" type="curve" smooth="yes"/>
      <point x="241" y="-127" type="line"/>
      <point x="236" y="-127"/>
      <point x="232" y="-126"/>
      <point x="225" y="-126" type="curve" smooth="yes"/>
      <point x="206" y="-126"/>
      <point x="185" y="-129"/>
      <point x="168" y="-129" type="curve" smooth="yes"/>
      <point x="161" y="-129"/>
      <point x="151" y="-130"/>
      <point x="151" y="-125" type="curve" smooth="yes"/>
      <point x="151" y="-111"/>
      <point x="172" y="-48"/>
      <point x="177" y="-10" type="curve" smooth="yes"/>
      <point x="177" y="-7" type="line"/>
      <point x="170" y="-8"/>
      <point x="166" y="-8"/>
      <point x="159" y="-8" type="curve" smooth="yes"/>
      <point x="66" y="-8"/>
      <point x="38" y="92"/>
      <point x="35" y="184" type="curve" smooth="yes"/>
      <point x="35" y="194" type="line" smooth="yes"/>
      <point x="34" y="241"/>
      <point x="33" y="288"/>
      <point x="33" y="339" type="curve" smooth="yes"/>
      <point x="33" y="402"/>
      <point x="34" y="464"/>
    </contour>
  </outline>
</glyph>
<glyph name="Iacute" format="1">
  <advance width="259"/>
  <unicode hex="00CD"/>
  <outline>
    <contour>
      <point x="198" y="713" type="line" name="hr01"/>
      <point x="174" y="713" type="line" smooth="yes"/>
      <point x="115" y="713"/>
      <point x="113" y="718"/>
      <point x="56" y="718" type="curve" smooth="yes"/>
      <point x="49" y="718"/>
      <point x="45" y="717"/>
      <point x="38" y="716" type="curve"/>
      <point x="31" y="644"/>
      <point x="28" y="579"/>
      <point x="28" y="515" type="curve" smooth="yes"/>
      <point x="28" y="399"/>
      <point x="35" y="285"/>
      <point x="35" y="170" type="curve" smooth="yes"/>
      <point x="35" y="111"/>
      <point x="32" y="41"/>
      <point x="28" y="-18" type="curve"/>
      <point x="36" y="-15"/>
      <point x="42" y="-15"/>
      <point x="49" y="-14" type="curve"/>
      <point x="49" y="-22"/>
      <point x="48" y="-30"/>
      <point x="48" y="-38" type="curve"/>
      <point x="65" y="-34"/>
      <point x="78" y="-33"/>
      <point x="91" y="-33" type="curve" smooth="yes" name="hr02"/>
      <point x="118" y="-33"/>
      <point x="149" y="-35"/>
      <point x="178" y="-35" type="curve" smooth="yes"/>
      <point x="209" y="-35"/>
      <point x="238" y="-32"/>
      <point x="251" y="-19" type="curve"/>
      <point x="247" y="50"/>
      <point x="245" y="123"/>
      <point x="245" y="194" type="curve" smooth="yes"/>
      <point x="245" y="359"/>
      <point x="252" y="519"/>
      <point x="252" y="679" type="curve" smooth="yes"/>
      <point x="252" y="693" type="line"/>
      <point x="232" y="693" type="line"/>
      <point x="232" y="713" type="line"/>
    </contour>
    <contour>
      <point x="222" y="703" type="line"/>
      <point x="222" y="699" type="line" smooth="yes"/>
      <point x="222" y="542"/>
      <point x="215" y="383"/>
      <point x="215" y="223" type="curve" smooth="yes"/>
      <point x="215" y="150"/>
      <point x="217" y="77"/>
      <point x="221" y="5" type="curve"/>
      <point x="213" y="-3"/>
      <point x="189" y="-6"/>
      <point x="162" y="-6" type="curve" smooth="yes"/>
      <point x="127" y="-6"/>
      <point x="89" y="-2"/>
      <point x="62" y="-2" type="curve" smooth="yes"/>
      <point x="53" y="-2"/>
      <point x="46" y="-3"/>
      <point x="39" y="-4" type="curve"/>
      <point x="43" y="52"/>
      <point x="45" y="108"/>
      <point x="45" y="164" type="curve" smooth="yes"/>
      <point x="45" y="284"/>
      <point x="38" y="400"/>
      <point x="38" y="516" type="curve" smooth="yes"/>
      <point x="38" y="580"/>
      <point x="40" y="643"/>
      <point x="47" y="706" type="curve" smooth="yes"/>
      <point x="47" y="708" type="line"/>
      <point x="51" y="708" type="line" smooth="yes"/>
      <point x="93" y="708"/>
      <point x="106" y="703"/>
      <point x="175" y="703" type="curve" smooth="yes"/>
      <point x="198" y="703" type="line"/>
    </contour>
    <contour>
      <point x="247" y="910" type="line"/>
      <point x="246" y="909" type="line"/>
      <point x="227" y="930" type="line"/>
      <point x="160" y="877"/>
      <point x="118" y="821"/>
      <point x="38" y="749" type="curve"/>
      <point x="46" y="746"/>
      <point x="58" y="745"/>
      <point x="73" y="742" type="curve"/>
      <point x="68" y="738"/>
      <point x="63" y="733"/>
      <point x="58" y="729" type="curve"/>
      <point x="81" y="722"/>
      <point x="128" y="718"/>
      <point x="165" y="718" type="curve" smooth="yes" name="hr03"/>
      <point x="181" y="718"/>
      <point x="198" y="718"/>
      <point x="219" y="721" type="curve"/>
      <point x="227" y="735"/>
      <point x="262" y="767"/>
      <point x="291" y="791" type="curve"/>
      <point x="290" y="791" type="line"/>
      <point x="302" y="802"/>
      <point x="317" y="815"/>
      <point x="328" y="826" type="curve"/>
    </contour>
    <contour>
      <point x="295" y="847" type="line"/>
      <point x="294" y="846" type="line" smooth="yes"/>
      <point x="276" y="828"/>
      <point x="204" y="769"/>
      <point x="193" y="750" type="curve"/>
      <point x="178" y="747"/>
      <point x="163" y="748"/>
      <point x="144" y="748" type="curve" smooth="yes"/>
      <point x="108" y="748"/>
      <point x="71" y="750"/>
      <point x="59" y="754" type="curve"/>
      <point x="105" y="798"/>
      <point x="179" y="880"/>
      <point x="226" y="917" type="curve"/>
    </contour>
  </outline>
</glyph>
<glyph name="Ntilde" format="1">
  <advance width="516"/>
  <unicode hex="00D1"/>
  <outline>
    <contour>
      <point x="506" y="-4" type="line" name="hr01"/>
      <point x="502" y="116"/>
      <point x="506" y="237"/>
      <point x="503" y="362" type="curve"/>
      <point x="504" y="690" type="line"/>
      <point x="499" y="691"/>
      <point x="493" y="692"/>
      <point x="484" y="693" type="curve"/>
      <point x="484" y="710" type="line"/>
      <point x="469" y="713"/>
      <point x="437" y="716"/>
      <point x="402" y="716" type="curve" smooth="yes"/>
      <point x="373" y="716"/>
      <point x="338" y="714"/>
      <point x="309" y="707" type="curve"/>
      <point x="305" y="680"/>
      <point x="304" y="661"/>
      <point x="304" y="641" type="curve" smooth="yes"/>
      <point x="304" y="594"/>
      <point x="310" y="550"/>
      <point x="310" y="514" type="curve"/>
      <point x="309" y="517"/>
      <point x="307" y="518"/>
      <point x="306" y="521" type="curve"/>
      <point x="269" y="580"/>
      <point x="228" y="651"/>
      <point x="223" y="675" type="curve"/>
      <point x="204" y="678"/>
      <point x="206" y="686"/>
      <point x="203" y="695" type="curve"/>
      <point x="172" y="704"/>
      <point x="129" y="711"/>
      <point x="94" y="711" type="curve" smooth="yes"/>
      <point x="75" y="711"/>
      <point x="57" y="709"/>
      <point x="38" y="701" type="curve"/>
      <point x="31" y="610"/>
      <point x="28" y="513"/>
      <point x="28" y="417" type="curve" smooth="yes"/>
      <point x="28" y="289"/>
      <point x="32" y="168"/>
      <point x="32" y="47" type="curve" smooth="yes"/>
      <point x="32" y="-11" type="line"/>
      <point x="39" y="-10"/>
      <point x="45" y="-9"/>
      <point x="52" y="-8" type="curve"/>
      <point x="52" y="-31" type="line"/>
      <point x="65" y="-29"/>
      <point x="77" y="-28"/>
      <point x="88" y="-28" type="curve" smooth="yes"/>
      <point x="127" y="-28"/>
      <point x="155" y="-36"/>
      <point x="188" y="-36" type="curve" smooth="yes"/>
      <point x="203" y="-36"/>
      <point x="216" y="-33"/>
      <point x="231" y="-29" type="curve"/>
      <point x="231" y="8"/>
      <point x="230" y="50"/>
      <point x="230" y="83" type="curve" smooth="yes"/>
      <point x="230" y="122"/>
      <point x="231" y="160"/>
      <point x="232" y="199" type="curve"/>
      <point x="260" y="127"/>
      <point x="290" y="52"/>
      <point x="321" y="-16" type="curve"/>
      <point x="324" y="-15"/>
      <point x="328" y="-15"/>
      <point x="331" y="-14" type="curve"/>
      <point x="334" y="-22"/>
      <point x="338" y="-29"/>
      <point x="341" y="-36" type="curve"/>
      <point x="352" y="-34"/>
      <point x="364" y="-33"/>
      <point x="377" y="-33" type="curve" smooth="yes"/>
      <point x="406" y="-33"/>
      <point x="435" y="-38"/>
      <point x="459" y="-38" type="curve" smooth="yes" name="hr02"/>
      <point x="480" y="-38"/>
      <point x="498" y="-33"/>
      <point x="505" y="-18" type="curve"/>
    </contour>
    <contour>
      <point x="475" y="3" type="line"/>
      <point x="471" y="-4"/>
      <point x="459" y="-8"/>
      <point x="438" y="-8" type="curve" smooth="yes" name="hr03"/>
      <point x="411" y="-8"/>
      <point x="378" y="-3"/>
      <point x="351" y="-3" type="curve" smooth="yes"/>
      <point x="342" y="-3"/>
      <point x="335" y="-4"/>
      <point x="328" y="-5" type="curve"/>
      <point x="327" y="-5" type="line"/>
      <point x="283" y="92"/>
      <point x="242" y="202"/>
      <point x="207" y="294" type="curve"/>
      <point x="202" y="227"/>
      <point x="200" y="167"/>
      <point x="200" y="103" type="curve" smooth="yes"/>
      <point x="200" y="70"/>
      <point x="201" y="36"/>
      <point x="202" y="0" type="curve" name="hr04"/>
      <point x="201" y="-1" type="line" smooth="yes"/>
      <point x="192" y="-4"/>
      <point x="181" y="-6"/>
      <point x="166" y="-6" type="curve" smooth="yes"/>
      <point x="135" y="-6"/>
      <point x="98" y="2"/>
      <point x="66" y="2" type="curve" smooth="yes"/>
      <point x="58" y="2"/>
      <point x="50" y="1"/>
      <point x="43" y="0" type="curve"/>
      <point x="42" y="1" type="line"/>
      <point x="42" y="63" type="line" smooth="yes"/>
      <point x="42" y="183"/>
      <point x="38" y="305"/>
      <point x="38" y="428" type="curve" smooth="yes"/>
      <point x="38" y="520"/>
      <point x="41" y="607"/>
      <point x="48" y="695" type="curve"/>
      <point x="59" y="699"/>
      <point x="74" y="701"/>
      <point x="94" y="701" type="curve" smooth="yes"/>
      <point x="127" y="701"/>
      <point x="167" y="695"/>
      <point x="194" y="688" type="curve"/>
      <point x="194" y="687" type="line"/>
      <point x="199" y="660"/>
      <point x="279" y="538"/>
      <point x="316" y="474" type="curve"/>
      <point x="319" y="484"/>
      <point x="320" y="497"/>
      <point x="320" y="514" type="curve" smooth="yes"/>
      <point x="320" y="550"/>
      <point x="314" y="597"/>
      <point x="314" y="642" type="curve" smooth="yes"/>
      <point x="314" y="663"/>
      <point x="315" y="681"/>
      <point x="318" y="696" type="curve" smooth="yes"/>
      <point x="318" y="699" type="line"/>
      <point x="341" y="704"/>
      <point x="373" y="706"/>
      <point x="402" y="706" type="curve" smooth="yes"/>
      <point x="435" y="706"/>
      <point x="465" y="703"/>
      <point x="474" y="702" type="curve"/>
      <point x="473" y="382" type="line"/>
      <point x="474" y="342"/>
      <point x="474" y="301"/>
      <point x="474" y="260" type="curve" smooth="yes"/>
      <point x="474" y="162" type="line" smooth="yes"/>
      <point x="474" y="114"/>
      <point x="473" y="65"/>
      <point x="476" y="17" type="curve"/>
    </contour>
    <contour>
      <point x="206" y="736" type="line"/>
      <point x="203" y="743"/>
      <point x="202" y="750"/>
      <point x="202" y="755" type="curve" smooth="yes"/>
      <point x="202" y="780"/>
      <point x="225" y="791"/>
      <point x="246" y="791" type="curve" smooth="yes"/>
      <point x="249" y="791"/>
      <point x="253" y="790"/>
      <point x="258" y="789" type="curve"/>
      <point x="274" y="750"/>
      <point x="320" y="718"/>
      <point x="368" y="718" type="curve" smooth="yes" name="hr05"/>
      <point x="441" y="718"/>
      <point x="494" y="791"/>
      <point x="494" y="872" type="curve" smooth="yes"/>
      <point x="494" y="888"/>
      <point x="496" y="900"/>
      <point x="473" y="900" type="curve"/>
      <point x="473" y="925"/>
      <point x="457" y="920"/>
      <point x="448" y="920" type="curve" smooth="yes"/>
      <point x="424" y="920"/>
      <point x="406" y="921"/>
      <point x="371" y="917" type="curve"/>
      <point x="366" y="898"/>
      <point x="345" y="855"/>
      <point x="324" y="855" type="curve" smooth="yes"/>
      <point x="317" y="855"/>
      <point x="311" y="857"/>
      <point x="308" y="864" type="curve"/>
      <point x="308" y="863" type="line"/>
      <point x="284" y="895"/>
      <point x="244" y="929"/>
      <point x="201" y="929" type="curve" smooth="yes" name="hr06"/>
      <point x="109" y="929"/>
      <point x="66" y="826"/>
      <point x="45" y="744" type="curve"/>
      <point x="52" y="744"/>
      <point x="60" y="745"/>
      <point x="71" y="745" type="curve"/>
      <point x="68" y="737"/>
      <point x="66" y="731"/>
      <point x="65" y="724" type="curve"/>
      <point x="82" y="725"/>
      <point x="113" y="726"/>
      <point x="128" y="726" type="curve" smooth="yes"/>
      <point x="155" y="726"/>
      <point x="181" y="725"/>
      <point x="194" y="722" type="curve"/>
    </contour>
    <contour>
      <point x="176" y="752" type="line"/>
      <point x="163" y="755"/>
      <point x="135" y="756"/>
      <point x="108" y="756" type="curve" smooth="yes"/>
      <point x="93" y="756"/>
      <point x="76" y="756"/>
      <point x="59" y="755" type="curve"/>
      <point x="78" y="824"/>
      <point x="116" y="919"/>
      <point x="200" y="919" type="curve" smooth="yes"/>
      <point x="272" y="919"/>
      <point x="283" y="845"/>
      <point x="324" y="845" type="curve" smooth="yes"/>
      <point x="351" y="845"/>
      <point x="372" y="888"/>
      <point x="378" y="908" type="curve"/>
      <point x="405" y="911"/>
      <point x="432" y="910"/>
      <point x="460" y="911" type="curve"/>
      <point x="462" y="909" type="line"/>
      <point x="463" y="902"/>
      <point x="464" y="895"/>
      <point x="464" y="888" type="curve" smooth="yes"/>
      <point x="464" y="817"/>
      <point x="416" y="748"/>
      <point x="348" y="748" type="curve" smooth="yes"/>
      <point x="313" y="748"/>
      <point x="280" y="763"/>
      <point x="265" y="798" type="curve"/>
      <point x="256" y="813"/>
      <point x="246" y="821"/>
      <point x="226" y="821" type="curve" smooth="yes" name="hr07"/>
      <point x="195" y="821"/>
      <point x="172" y="801"/>
      <point x="172" y="773" type="curve" smooth="yes"/>
      <point x="172" y="767"/>
      <point x="173" y="760"/>
      <point x="176" y="753" type="curve"/>
    </contour>
  </outline>
</glyph>
<glyph name="Oslash" format="1">
  <advance width="479"/>
  <unicode hex="00D8"/>
  <outline>
    <contour>
      <point x="481" y="413" type="line" name="hr01"/>
      <point x="482" y="432"/>
      <point x="483" y="448"/>
      <point x="483" y="467" type="curve" smooth="yes"/>
      <point x="483" y="526"/>
      <point x="474" y="584"/>
      <point x="435" y="631" type="curve"/>
      <point x="435" y="633" type="line" smooth="yes"/>
      <point x="435" y="649"/>
      <point x="454" y="665"/>
      <point x="454" y="702" type="curve"/>
      <point x="447" y="705"/>
      <point x="440" y="708"/>
      <point x="433" y="710" type="curve"/>
      <point x="434" y="713"/>
      <point x="434" y="717"/>
      <point x="434" y="722" type="curve"/>
      <point x="419" y="731"/>
      <point x="400" y="734"/>
      <point x="377" y="734" type="curve" smooth="yes" name="hr02"/>
      <point x="356" y="734"/>
      <point x="332" y="732"/>
      <point x="312" y="732" type="curve" smooth="yes"/>
      <point x="304" y="732"/>
      <point x="297" y="732"/>
      <point x="290" y="733" type="curve" name="hr03"/>
      <point x="271" y="733"/>
      <point x="272" y="723"/>
      <point x="271" y="712" type="curve"/>
      <point x="255" y="713"/>
      <point x="239" y="714"/>
      <point x="220" y="714" type="curve" smooth="yes"/>
      <point x="173" y="714"/>
      <point x="128" y="707"/>
      <point x="92" y="679" type="curve" smooth="yes"/>
      <point x="88" y="675" type="line" smooth="yes"/>
      <point x="71" y="658"/>
      <point x="58" y="637"/>
      <point x="46" y="613" type="curve"/>
      <point x="46" y="614" type="line"/>
      <point x="27" y="582"/>
      <point x="28" y="542"/>
      <point x="25" y="506" type="curve"/>
      <point x="22" y="450"/>
      <point x="19" y="396"/>
      <point x="19" y="340" type="curve" smooth="yes"/>
      <point x="19" y="249"/>
      <point x="26" y="158"/>
      <point x="49" y="69" type="curve"/>
      <point x="48" y="68"/>
      <point x="48" y="68"/>
      <point x="48" y="67" type="curve" smooth="yes"/>
      <point x="48" y="66"/>
      <point x="47" y="63"/>
      <point x="47" y="62" type="curve"/>
      <point x="47" y="63" type="line"/>
      <point x="39" y="42"/>
      <point x="25" y="4"/>
      <point x="25" y="-19" type="curve" smooth="yes"/>
      <point x="25" y="-25"/>
      <point x="26" y="-29"/>
      <point x="27" y="-31" type="curve"/>
      <point x="30" y="-30"/>
      <point x="36" y="-30"/>
      <point x="45" y="-30" type="curve"/>
      <point x="45" y="-33"/>
      <point x="44" y="-36"/>
      <point x="44" y="-39" type="curve" smooth="yes"/>
      <point x="44" y="-44"/>
      <point x="45" y="-48"/>
      <point x="47" y="-51" type="curve"/>
      <point x="66" y="-50"/>
      <point x="94" y="-50"/>
      <point x="117" y="-50" type="curve" smooth="yes" name="hr04"/>
      <point x="149" y="-50" type="line" smooth="yes"/>
      <point x="174" y="-50"/>
      <point x="189" y="-51"/>
      <point x="204" y="-31" type="curve"/>
      <point x="220" y="-28"/>
      <point x="237" y="-29"/>
      <point x="253" y="-29" type="curve" smooth="yes"/>
      <point x="357" y="-29"/>
      <point x="440" y="9"/>
      <point x="464" y="109" type="curve"/>
      <point x="480" y="194"/>
      <point x="481" y="279"/>
      <point x="481" y="367" type="curve" smooth="yes"/>
    </contour>
    <contour>
      <point x="451" y="434" type="curve"/>
      <point x="451" y="272"/>
      <point x="476" y="19"/>
      <point x="290" y="3" type="curve"/>
      <point x="253" y="-1"/>
      <point x="212" y="2"/>
      <point x="180" y="-2" type="curve" smooth="yes"/>
      <point x="178" y="-2" type="line"/>
      <point x="178" y="-3"/>
      <point x="176" y="-9"/>
      <point x="165" y="-17" type="curve" smooth="yes"/>
      <point x="164" y="-18" type="line"/>
      <point x="165" y="-18" type="line"/>
      <point x="154" y="-21"/>
      <point x="141" y="-20"/>
      <point x="122" y="-20" type="curve" smooth="yes"/>
      <point x="70" y="-20" type="line" smooth="yes"/>
      <point x="57" y="-20"/>
      <point x="44" y="-20"/>
      <point x="33" y="-21" type="curve"/>
      <point x="32" y="-20"/>
      <point x="32" y="-19"/>
      <point x="32" y="-18" type="curve" smooth="yes"/>
      <point x="32" y="-3"/>
      <point x="54" y="51"/>
      <point x="59" y="67" type="curve"/>
      <point x="59" y="71" type="line"/>
      <point x="36" y="160"/>
      <point x="29" y="248"/>
      <point x="29" y="339" type="curve" smooth="yes"/>
      <point x="29" y="382"/>
      <point x="30" y="422"/>
      <point x="33" y="465" type="curve"/>
      <point x="41" y="537"/>
      <point x="31" y="604"/>
      <point x="95" y="668" type="curve" smooth="yes"/>
      <point x="98" y="671" type="line" smooth="yes"/>
      <point x="133" y="698"/>
      <point x="176" y="704"/>
      <point x="220" y="704" type="curve" smooth="yes"/>
      <point x="240" y="704"/>
      <point x="259" y="702"/>
      <point x="278" y="701" type="curve"/>
      <point x="283" y="704"/>
      <point x="278" y="723"/>
      <point x="288" y="723" type="curve"/>
      <point x="289" y="723" type="line"/>
      <point x="296" y="722"/>
      <point x="305" y="722"/>
      <point x="314" y="722" type="curve" smooth="yes" name="hr05"/>
      <point x="335" y="722"/>
      <point x="358" y="723"/>
      <point x="379" y="723" type="curve" smooth="yes"/>
      <point x="398" y="723"/>
      <point x="415" y="723"/>
      <point x="424" y="716" type="curve"/>
      <point x="423" y="691"/>
      <point x="406" y="671"/>
      <point x="406" y="650" type="curve" smooth="yes"/>
      <point x="406" y="645" type="line"/>
      <point x="445" y="601"/>
      <point x="453" y="544"/>
      <point x="453" y="487" type="curve" smooth="yes"/>
      <point x="453" y="468"/>
      <point x="452" y="451"/>
    </contour>
    <contour>
      <point x="322" y="395" type="line"/>
      <point x="295" y="323"/>
      <point x="258" y="214"/>
      <point x="229" y="131" type="curve"/>
      <point x="231" y="130" type="line"/>
      <point x="257" y="135"/>
      <point x="310" y="153"/>
      <point x="318" y="187" type="curve"/>
      <point x="327" y="220"/>
      <point x="328" y="252"/>
      <point x="328" y="280" type="curve" smooth="yes"/>
      <point x="328" y="327"/>
      <point x="322" y="364"/>
      <point x="322" y="391" type="curve" smooth="yes"/>
    </contour>
    <contour>
      <point x="141" y="279" type="curve"/>
      <point x="168" y="364"/>
      <point x="205" y="466"/>
      <point x="234" y="562" type="curve"/>
      <point x="226" y="563" type="line"/>
      <point x="134" y="552"/>
      <point x="152" y="424"/>
      <point x="141" y="339" type="curve"/>
      <point x="139" y="316" type="line" smooth="yes"/>
      <point x="139" y="309"/>
      <point x="138" y="305"/>
      <point x="138" y="300" type="curve" smooth="yes"/>
      <point x="138" y="291"/>
      <point x="139" y="284"/>
    </contour>
    <contour>
      <point x="308" y="190" type="line"/>
      <point x="303" y="175"/>
      <point x="290" y="163"/>
      <point x="274" y="155" type="curve"/>
      <point x="286" y="196"/>
      <point x="304" y="242"/>
      <point x="319" y="283" type="curve"/>
      <point x="319" y="255"/>
      <point x="316" y="224"/>
      <point x="308" y="189" type="curve"/>
    </contour>
    <contour>
      <point x="182" y="430" type="curve"/>
      <point x="183" y="457"/>
      <point x="180" y="490"/>
      <point x="208" y="515" type="curve"/>
      <point x="200" y="487"/>
      <point x="191" y="458"/>
    </contour>
  </outline>
</glyph>
